<?xml version="1.0" standalone="no"?>
<!DOCTYPE svg PUBLIC "-//W3C//DTD SVG 1.1//EN" "http://www.w3.org/Graphics/SVG/1.1/DTD/svg11.dtd" >
<svg>
<metadata>
Created by FontForge 20090622 at Thu Jul 21 06:44:26 2016
 By deploy user
Copyright (c) 2000 by Carter &#38; Cone Type, Inc. All rights reserved.
</metadata>
<defs>
<font id="MillerBanner-LightItalic" horiz-adv-x="1024" >
  <font-face 
    font-family="MillerBanner Light Italic"
    font-weight="300"
    font-style="italic"
    font-stretch="normal"
    units-per-em="2048"
    panose-1="2 0 5 3 8 0 0 2 0 3"
    ascent="1565"
    descent="-483"
    x-height="940"
    cap-height="1399"
    bbox="-481 -492 2339 1900"
    underline-thickness="20"
    underline-position="-113"
    slope="-12"
    unicode-range="U+0020-U+FB04"
  />
<missing-glyph horiz-adv-x="467" 
 />
    <glyph glyph-name="f_f" unicode="ff" horiz-adv-x="1239" 
d="M-252 -483q-52 0 -87 13.5t-56 35t-30 48t-9 52.5q0 15 6 31t17.5 29.5t28.5 22.5t38 9q14 0 30.5 -4.5t30.5 -14.5t23.5 -26t9.5 -39q0 -27 -16.5 -54l-30.5 -50q2 -19 18 -29t27 -10q57 0 103.5 25t86.5 79t76 138.5t72 203.5l72 250.5l65.5 245.5l57 224l47.5 186
h-217l8 28h217l22 82q28 110 82 203.5t127.5 161.5t164 106.5t192.5 38.5q52 0 93 -12t69.5 -33t43.5 -49.5t17 -62.5l24 26q69 69 148.5 109.5t179.5 40.5q48 0 82.5 -13.5t56.5 -34.5t32.5 -47t10.5 -51q0 -19 -6 -37t-18 -31.5t-28.5 -21.5t-37.5 -8q-13 0 -30 4t-32 13
t-25.5 23.5t-10.5 35.5q0 15 4 30.5t9 30.5l10.5 30t7.5 30q0 14 -14 22t-31 8q-113 0 -205.5 -111.5t-157.5 -338.5l-41 -144h258l-10 -28h-254l-52.5 -205.5l-58.5 -222.5l-59 -217t-55 -189q-38 -124 -94.5 -229.5t-128.5 -179.5q-57 -57 -122.5 -90t-140.5 -33
q-52 0 -87 13.5t-56 35t-30 48t-9 52.5q0 15 6 31t17.5 29.5t28.5 22.5t38 9q14 0 30.5 -4.5t30.5 -14.5t23.5 -26t9.5 -39q0 -27 -16.5 -54l-30.5 -50q2 -19 18 -29t27 -10q57 0 103.5 25t86.5 79t76 138.5t72 203.5q38 124 72.5 250.5l65.5 245.5l57 224l47 186h-479
l-53.5 -205.5l-58 -222.5l-59 -217t-55.5 -189q-38 -124 -94.5 -229.5t-128.5 -179.5q-57 -57 -122.5 -90t-139.5 -33zM946 911l23 82q20 75 50 143.5t68 127.5q-6 -2 -14 -3t-16 -1q-13 0 -30 4t-32.5 13t-26 23t-10.5 35q0 15 4 30.5t9 30.5l10.5 30t7.5 30
q-3 14 -27 22.5t-59 8.5q-57 0 -113.5 -22.5t-108 -73.5t-96.5 -133.5t-79 -202.5l-41 -144h481z" />
    <glyph glyph-name="f_f_i" unicode="ffi" horiz-adv-x="1747" 
d="M-252 -483q-52 0 -87 13.5t-56 35t-30 48t-9 52.5q0 15 6 31t17.5 29.5t28.5 22.5t38 9q14 0 30.5 -4.5t30.5 -14.5t23.5 -26t9.5 -39q0 -27 -16.5 -54l-30.5 -50q2 -19 18 -29t27 -10q57 0 103.5 25t86.5 79t76 138.5t72 203.5l72 250.5l65.5 245.5l57 224l47.5 186
h-217l8 28h217l22 82q28 110 82 203.5t127.5 161.5t164 106.5t192.5 38.5q51 0 92 -12t69.5 -33t44 -49.5t17.5 -62.5l33 34q65 63 145.5 102.5t173.5 39.5q52 0 95 -11t74 -31t48 -49t17 -65q0 -34 -23 -61t-68 -27q-13 0 -30 4t-32 13t-25.5 23.5t-10.5 35.5q0 15 4 30.5
t9 30.5l10.5 30t7.5 30q-3 14 -26.5 22t-49.5 8q-126 0 -221.5 -108.5t-161.5 -341.5l-41 -144h553q-5 -33 -15 -75t-23.5 -88t-29 -93.5t-32.5 -91.5l-117 -301q-26 -68 -36.5 -111.5t-10.5 -72.5q0 -35 21 -51.5t53 -16.5q37 0 71.5 19.5t66 56.5t60 89.5t54.5 117.5
l12 -6q-27 -69 -55.5 -126t-63 -98t-76.5 -63.5t-96 -22.5q-33 0 -63 7.5t-52.5 25.5t-35.5 49t-13 78q0 37 10.5 76.5t30.5 93.5l137 348q13 33 24 66t18.5 63t11.5 55.5t4 43.5h-414l-52.5 -205.5l-58.5 -222.5l-59 -217t-55 -189q-38 -124 -94.5 -229.5t-128.5 -179.5
q-57 -57 -122.5 -90t-140.5 -33q-52 0 -87 13.5t-56 35t-30 48t-9 52.5q0 15 6 31t17.5 29.5t28.5 22.5t38 9q14 0 30.5 -4.5t30.5 -14.5t23.5 -26t9.5 -39q0 -27 -16.5 -54l-30.5 -50q2 -19 18 -29t27 -10q57 0 103.5 25t86.5 79t76 138.5t72 203.5l39.5 134.5l44 158.5
l45.5 169.5l44.5 167l40 152l32.5 124.5h-483l-53.5 -205.5l-58 -222.5l-59 -217t-55.5 -189q-38 -124 -94.5 -229.5t-128.5 -179.5q-57 -57 -122.5 -90t-139.5 -33zM948 911q9 39 15 60q4 12 6 22q20 76 50 145t68 126q-6 -2 -14 -3t-16 -1q-13 0 -30 4t-32.5 13t-26 23
t-10.5 35q0 15 4 30.5t9 30.5l10.5 30t7.5 30q-3 14 -27 22.5t-59 8.5q-57 0 -113.5 -23t-108.5 -74t-96.5 -133.5t-78.5 -201.5l-41 -144h483z" />
    <glyph glyph-name="f_f_l" unicode="ffl" horiz-adv-x="1786" 
d="M-252 -483q-52 0 -87 13.5t-56 35t-30 48t-9 52.5q0 15 6 31t17.5 29.5t28.5 22.5t38 9q14 0 30.5 -4.5t30.5 -14.5t23.5 -26t9.5 -39q0 -27 -16.5 -54l-30.5 -50q2 -19 18 -29t27 -10q57 0 103.5 25t86.5 79t76 138.5t72 203.5l72 250.5l65.5 245.5l57 224l47.5 186
h-217l8 28h217l22 82q28 110 82 203.5t127.5 161.5t164 106.5t192.5 38.5q51 0 92 -12t69.5 -33t44 -49.5t17.5 -62.5l24 26q69 69 148.5 109.5t179.5 40.5q62 0 103 -23t61 -57l195 78l-404 -1262l-17.5 -55t-12 -45t-7 -39.5t-2.5 -38.5q0 -37 18 -52.5t52 -15.5
q74 0 139.5 75t116.5 206l12 -6q-27 -69 -55.5 -126t-63 -98t-77 -63.5t-97.5 -22.5q-33 0 -62 7t-51 25t-34.5 48.5t-12.5 77.5q0 37 11.5 82t25.5 90l158 498l58 182.5l50.5 159l36 111.5l13.5 42q-24 -16 -51 -16q-14 0 -29 4.5t-27 13.5t-20 22.5t-8 31.5q0 12 4 25.5
t9.5 26.5l11 26.5t7.5 25.5q-12 45 -71 45q-112 0 -205 -111.5t-158 -338.5l-41 -144h258l-10 -28h-254l-52.5 -205.5l-58.5 -222.5l-59 -217t-55 -189q-38 -124 -94.5 -229.5t-128.5 -179.5q-57 -57 -122.5 -90t-140.5 -33q-52 0 -87 13.5t-56 35t-30 48t-9 52.5q0 15 6 31
t17.5 29.5t28.5 22.5t38 9q14 0 30.5 -4.5t30.5 -14.5t23.5 -26t9.5 -39q0 -27 -16.5 -54l-30.5 -50q2 -19 18 -29t27 -10q57 0 103.5 25t86.5 79t76 138.5t72 203.5l39.5 134.5l44 158.5l45.5 169.5l44.5 167l40 152l32.5 124.5h-483l-53.5 -205.5l-58 -222.5l-59 -217
t-55.5 -189q-38 -124 -94.5 -229.5t-128.5 -179.5q-57 -57 -122.5 -90t-139.5 -33zM948 911q9 39 15 60q4 12 6 22q20 75 50 143.5t68 127.5q-6 -2 -14 -3t-16 -1q-13 0 -30 4t-32.5 13t-26 23t-10.5 35q0 15 4 30.5t9 30.5l10.5 30t7.5 30q-3 14 -29 22.5t-57 8.5
q-57 0 -113.5 -23t-108.5 -74t-96.5 -133.5t-78.5 -201.5l-41 -144h483z" />
    <glyph glyph-name="f_j" unicode="fj" horiz-adv-x="1110" 
d="M-252 -483q-52 0 -87 13.5t-56 35t-30 48t-9 52.5q0 15 6 31t17.5 29.5t28.5 22.5t38 9q14 0 30.5 -4.5t30.5 -14.5t23.5 -26t9.5 -39q0 -14 -5 -27.5t-12.5 -27t-16 -26.5t-15.5 -25q2 -19 18 -28t27 -9q57 0 103 23t85.5 74.5t75.5 135.5t74 207l72 251.5l66.5 247.5
l58 226l47.5 187h-217l8 28h217l22 82q32 118 85.5 217t125.5 170q65 63 146 102.5t174 39.5q52 0 95 -11t73.5 -31t47.5 -49t17 -65q0 -34 -22.5 -61t-67.5 -27q-13 0 -30 4t-32 13t-25.5 23.5t-10.5 35.5q0 15 5 30.5t11.5 30.5l12.5 30t8 30q-2 7 -11.5 12.5t-22.5 9.5
t-26.5 6t-21.5 2q-126 0 -221.5 -108.5t-161.5 -341.5l-41 -144h579q-3 -26 -7.5 -54t-11.5 -62.5t-17 -77t-25 -96.5l-37.5 -145.5l-35.5 -135l-38.5 -139l-46.5 -156.5q-13 -42 -26 -79t-27.5 -70t-31 -63.5t-35.5 -61.5q-36 -57 -78.5 -104t-89 -80t-97 -51.5
t-102.5 -18.5q-43 0 -74.5 12.5t-52.5 32.5t-31 44.5t-10 49.5q0 37 22 65.5t64 28.5q38 0 63 -22.5t25 -57.5q0 -28 -13 -52.5t-32 -47.5q2 -17 15 -28t28 -11q55 0 100.5 24t85 77t75 137t71.5 204l65 224l57 207l48 182l39 149l8.5 39t7.5 41.5l5.5 38t4.5 29.5h-450
l-53.5 -205.5l-58 -222.5l-59 -217t-55.5 -189q-38 -124 -94.5 -229.5t-128.5 -179.5q-57 -57 -122.5 -90t-139.5 -33z" />
    <glyph glyph-name="f_i" unicode="fi" horiz-adv-x="1137" 
d="M-252 -483q-52 0 -87 13.5t-56 35t-30 48t-9 52.5q0 15 6 31t17.5 29.5t28.5 22.5t38 9q14 0 30.5 -4.5t30.5 -14.5t23.5 -26t9.5 -39q0 -14 -5 -27.5t-12.5 -27t-16 -26.5t-15.5 -25q2 -19 18 -28t27 -9q57 0 103 23.5t86 75.5t76 136t73 205l69 238.5l61 225l57 221
l57 227.5h-217l8 28h217l22 82q32 118 85.5 217t125.5 170q65 63 146 102.5t174 39.5q52 0 95 -11t73.5 -31t47.5 -49t17 -65q0 -34 -22.5 -61t-67.5 -27q-13 0 -30 4t-32 13t-25.5 23.5t-10.5 35.5q0 15 4.5 31t10.5 31.5l12 30.5t8 30q-2 7 -9.5 12.5t-19 9.5t-25 6
t-26.5 2q-126 0 -221.5 -109.5t-161.5 -342.5l-41 -144h553q-5 -33 -15 -75t-23.5 -88t-29 -93.5t-32.5 -91.5l-117 -301q-26 -68 -36.5 -111.5t-10.5 -72.5q0 -35 20.5 -50.5t52.5 -15.5q75 0 138 74t114 205l13 -4q-27 -69 -55.5 -126t-63 -98t-76.5 -63.5t-96 -22.5
q-33 0 -63 7.5t-52.5 25.5t-35.5 49t-13 78q0 37 10.5 76.5t30.5 93.5l137 348q13 33 23.5 66t18 63t11.5 55.5t4 43.5h-413l-53.5 -205.5l-58 -222.5l-59 -217t-55.5 -189q-38 -124 -94.5 -229.5t-128.5 -179.5q-57 -57 -122.5 -90t-139.5 -33z" />
    <glyph glyph-name="f_l" unicode="fl" horiz-adv-x="1176" 
d="M-252 -483q-52 0 -87 13.5t-56 35t-30 48t-9 52.5q0 15 6 31t17.5 29.5t28.5 22.5t38 9q14 0 30.5 -4.5t30.5 -14.5t23.5 -26t9.5 -39q0 -14 -5 -27.5t-12.5 -27t-16 -26.5t-15.5 -25q2 -19 18 -28t27 -9q57 0 102.5 22t84.5 73t75.5 135.5t75.5 209.5q38 123 73 250.5
l66 247.5l57.5 226.5l47.5 187.5h-217l8 28h217l22 82q31 112 81.5 209.5t121.5 169.5q68 69 148 109.5t180 40.5q62 0 103 -23t61 -57l194 78l-403 -1262q-20 -62 -29.5 -103t-9.5 -75q0 -37 20 -54.5t54 -17.5q37 0 70.5 19.5t64.5 56.5t59.5 89.5t54.5 117.5l15 -4
q-28 -69 -56.5 -126t-63 -98t-77 -63.5t-96.5 -22.5q-33 0 -62 7t-51 25t-34.5 48.5t-12.5 77.5q0 34 11.5 80.5t25.5 91.5l315 993q-22 -16 -51 -16q-14 0 -29 4.5t-27 13.5t-20 22.5t-8 31.5q0 25 11 53.5t16 52.5q-6 25 -21.5 35t-44.5 10q-111 0 -204 -112.5
t-158 -339.5l-41 -144h258l-10 -28h-254l-53.5 -205.5l-58 -222.5l-59 -217t-55.5 -189q-38 -124 -94.5 -229.5t-128.5 -179.5q-57 -57 -122.5 -90t-139.5 -33z" />
    <glyph glyph-name="f_t" unicode="ft" horiz-adv-x="1241" 
d="M459 883l-53.5 -205.5l-58 -222.5l-59 -217t-55.5 -189q-38 -124 -94.5 -229.5t-128.5 -179.5q-57 -57 -122.5 -90t-139.5 -33q-52 0 -87 13.5t-56 35t-30 48t-9 52.5q0 15 6 31t17.5 29.5t28.5 22.5t38 9q14 0 30.5 -4.5t30.5 -14.5t23.5 -26t9.5 -39q0 -14 -5 -27.5
t-12.5 -27t-16 -26.5t-15.5 -25q2 -19 18 -28t27 -9q57 0 103 23t85.5 74.5t75.5 135.5t74 207l72 251.5l66.5 247.5l58 226l47.5 187h-217l8 28h217l22 82q31 112 81.5 209.5t121.5 169.5q68 69 148 109.5t180 40.5q48 0 82.5 -13.5t56.5 -34.5t32.5 -47t10.5 -51
q0 -19 -6.5 -37t-18 -31.5t-28 -21.5t-37.5 -8q-13 0 -30 4t-32 13t-25.5 23.5t-10.5 35.5q0 15 5 31t11 31.5l12 30.5t9 30q0 14 -17.5 22t-34.5 8q-112 0 -204.5 -112.5t-157.5 -339.5l-41 -144h455l90 318h129l-95 -318h263l-11 -28h-260l-31.5 -106.5l-36.5 -123
l-38 -126.5l-34.5 -116.5l-27.5 -94t-16 -58.5l-13 -47.5t-12.5 -47t-9.5 -41t-4 -30.5q0 -24 6 -40.5t16.5 -26t24.5 -13.5t29 -4q37 0 73 20.5t70 58t64.5 90.5t56.5 118l14 -4q-27 -68 -58 -125.5t-68 -99.5t-81 -65.5t-98 -23.5q-33 0 -63 7t-52.5 25t-35.5 48.5
t-13 77.5q0 35 8 68.5t13 50.5q6 23 21.5 75.5l35.5 118l42 137.5l41 134.5l32.5 107t17.5 56.5h-450z" />
    <glyph glyph-name=".notdef" horiz-adv-x="467" 
 />
    <glyph glyph-name="NUL" horiz-adv-x="0" 
 />
    <glyph glyph-name="nonmarkingreturn" horiz-adv-x="467" 
 />
    <glyph glyph-name="space" unicode=" " horiz-adv-x="467" 
 />
    <glyph glyph-name="quotesingle" unicode="'" horiz-adv-x="371" 
d="M266 967q5 72 6 135.5t0 115.5t-2.5 89.5t-1.5 58.5q0 72 27 107.5t72 35.5q26 0 43 -8t27.5 -22t15 -33.5t4.5 -42.5q0 -20 -12.5 -53.5t-36 -86l-57 -125.5l-75.5 -171h-10v0z" />
    <glyph glyph-name="parenleft" unicode="(" horiz-adv-x="698" 
d="M444 -295q-86 70 -155 140.5t-117 150.5t-74 173.5t-26 209.5q0 172 44.5 321.5t136.5 284.5t232.5 259.5t333.5 246.5l8 -12q-172 -114 -300 -240.5t-213 -263.5t-127 -283t-42 -297q0 -112 21.5 -207t62 -177.5t97.5 -155t129 -140.5l-11 -10v0z" />
    <glyph glyph-name="parenright" unicode=")" horiz-adv-x="698" 
d="M-104 -274q172 114 300 240.5t213 263.5t127 282.5t42 296.5q0 112 -21.5 207t-62 177.5t-97.5 155t-129 140.5l11 10q86 -70 155 -140.5t117 -150t74 -173.5t26 -210q0 -172 -44.5 -321.5t-136.5 -284.5t-232.5 -259.5t-333.5 -246.5z" />
    <glyph glyph-name="comma" unicode="," horiz-adv-x="422" 
d="M-2 -272q38 21 75.5 52.5t67.5 68.5t50 77t24 78h-47q-63 0 -88 24t-25 66q0 21 8 41.5t22.5 37t36 26.5t48.5 10q60 0 89.5 -37t29.5 -94q0 -65 -26.5 -120t-68.5 -100.5t-93 -80.5t-99 -60z" />
    <glyph glyph-name="hyphen" unicode="-" horiz-adv-x="811" 
d="M84 575h690l-31 -110h-690z" />
    <glyph glyph-name="hyphen" unicode="&#xad;" horiz-adv-x="811" 
d="M84 575h690l-31 -110h-690z" />
    <glyph glyph-name="period" unicode="." horiz-adv-x="422" 
d="M172 -16q-23 0 -43.5 8.5t-36 23.5t-24.5 35.5t-9 44.5q0 23 9 43.5t24.5 36t36 24.5t43.5 9q24 0 44.5 -9t36 -24.5t24 -36t8.5 -43.5q0 -24 -8.5 -44.5t-24 -35.5t-36 -23.5t-44.5 -8.5z" />
    <glyph glyph-name="zero" unicode="0" horiz-adv-x="1208" 
d="M530 -29q-102 0 -181.5 35.5t-133.5 98t-82.5 148t-28.5 185.5q0 110 26 214t71.5 196.5t108 170t136 133.5t155 87t165.5 31q89 0 162.5 -30t126 -89.5t81.5 -148.5t29 -207q0 -108 -23.5 -211.5t-66 -195t-101.5 -168t-129.5 -132t-150.5 -86.5t-164 -31zM508 -12
q75 0 141.5 40.5t122.5 109.5t100.5 160.5t75.5 193t47.5 207t16.5 202.5q0 67 -12 130t-39 112.5t-71 79.5t-108 30q-71 0 -138 -38.5t-125 -105t-106 -156.5t-82.5 -192t-53.5 -212t-19 -217q0 -69 15 -131.5t45.5 -110t77.5 -75t112 -27.5z" />
    <glyph glyph-name="one" unicode="1" horiz-adv-x="825" 
d="M23 8q13 1 33.5 2t42 3t41.5 5t32 7q31 9 55 35.5t33 60.5l277 995q-17 -5 -35.5 -6.5t-32.5 -1.5q-50 0 -103 23.5t-110 89.5l4 4q40 -20 91.5 -33.5t113.5 -13.5q44 0 83.5 8.5t74 22t63.5 29t53 30.5h13q-32 -65 -59.5 -145t-47.5 -154l-231 -838q-13 -42 -2.5 -64
t34.5 -34q10 -6 28.5 -10t39.5 -7t41.5 -5t34.5 -3l-2 -8h-570z" />
    <glyph glyph-name="two" unicode="2" horiz-adv-x="1116" 
d="M20 31q107 70 189 130.5t150 115.5l128 107.5l123 107.5q83 72 139.5 140.5t91.5 134.5t50.5 128.5t15.5 122.5q0 51 -12.5 94.5t-37.5 74.5t-63 48.5t-89 17.5t-100 -17.5t-93.5 -47.5t-82.5 -69t-65.5 -82t-43 -87.5t-15.5 -83.5q0 -69 32 -112t103 -43q57 0 101.5 28
t91.5 70l8 -6q-39 -43 -73.5 -72t-68 -46t-67.5 -24.5t-72 -7.5q-40 0 -73.5 13.5t-57.5 37.5t-37.5 56.5t-13.5 70.5q0 49 21.5 100.5t60 100t91 92t114.5 76t130.5 51.5t139.5 19q84 0 146 -19.5t103 -56t61 -88.5t20 -117q0 -111 -43.5 -207.5t-135.5 -188t-234.5 -183
t-340.5 -193.5l-106 -78h495q51 0 85.5 12t63 38.5t57.5 67.5l69 99l10 -6l-188 -350h-783z" />
    <glyph glyph-name="three" unicode="3" horiz-adv-x="1100" 
d="M387 -53q-74 0 -143.5 16.5t-123 49.5t-86 81t-32.5 111q0 34 12 68t34 60.5t52.5 43t67.5 16.5q43 0 65.5 -20.5t22.5 -50.5q0 -33 -9.5 -51t-24 -28.5t-31 -16.5t-31 -14.5t-24 -23t-9.5 -41.5q0 -42 16 -76t44.5 -58t69 -37t89.5 -13q61 0 121 20.5t113.5 57t99 86
t79 107t52 120t18.5 125.5q0 37 -9 68.5t-27.5 54t-46 35t-64.5 12.5q-29 0 -58 -10.5t-59 -27t-60 -36.5l-59 -40l-16 28q133 67 232 125t163.5 114.5t96.5 117t32 133.5q0 45 -11 82t-35.5 63.5t-63.5 40.5t-94 14q-53 0 -113 -24.5t-111.5 -66t-85.5 -97.5t-34 -119
q0 -30 10.5 -50.5t27 -32.5t37 -17.5t39.5 -5.5q42 0 83 15t75 44l8 -8q-65 -57 -125.5 -89t-134.5 -32q-27 0 -53.5 9.5t-47 28t-33.5 46.5t-13 64q0 42 20 84t55 81.5t83.5 73.5t106 59t121.5 39.5t130 14.5q81 0 138 -21.5t93 -57t52 -81.5t16 -96q0 -56 -24.5 -109
t-74 -96.5t-124.5 -74.5t-175 -44l-47 -26h90q115 0 176.5 -56.5t61.5 -169.5q0 -111 -46 -201.5t-126 -155t-187.5 -99.5t-230.5 -35z" />
    <glyph glyph-name="four" unicode="4" horiz-adv-x="1028" 
d="M553 14q-35 6 -73 21.5t-83.5 31t-99.5 27.5t-119 12q-15 0 -29.5 -1t-31.5 -3l-35.5 -30t-40.5 -30.5t-42 -24t-40 -9.5q-28 0 -50 11.5t-22 37.5q0 22 25.5 33.5t62.5 18.5q31 5 67.5 6.5t70.5 1.5q72 64 138.5 179.5t128.5 266.5t120.5 331.5t115.5 375.5h179
q-57 -175 -124 -347t-148 -324.5t-178 -277t-214 -204.5q38 5 78 6.5t72 1.5q51 0 93 -4.5t78 -11t67 -13t59 -10.5l182 518h135l-190 -532q51 3 91 15.5t72 33t58.5 47t52.5 57.5l8 -8l-53 -72.5t-62 -67t-82 -51.5t-112 -26l-129 -362h-129z" />
    <glyph glyph-name="five" unicode="5" horiz-adv-x="1022" 
d="M352 -29q-76 0 -138 20t-106 53t-68 75.5t-24 87.5q0 35 12.5 61t32 43t42.5 25t44 8q41 0 60.5 -20.5t19.5 -55.5q0 -23 -8.5 -37.5t-19 -27t-20.5 -26t-13 -34.5q-5 -35 5 -64t33 -50t58.5 -33t81.5 -12q97 0 175 44.5t132.5 117t83.5 165t29 189.5q0 120 -63 182.5
t-173 62.5q-40 0 -82 -10.5t-82 -32t-74 -54t-57 -75.5l-18 7l305 684h8q9 -13 33.5 -27t62 -26t87.5 -19.5t112 -7.5q98 0 168.5 27.5t130.5 74.5l8 -6q-54 -74 -115.5 -120.5t-128 -73t-136.5 -36.5t-142 -10q-22 0 -47.5 2t-48 5t-39.5 5.5t-22 4.5l-170 -371
q54 35 128 56.5t152 21.5q79 0 144.5 -21.5t113 -62.5t73.5 -100.5t26 -135.5q0 -94 -40 -179.5t-113.5 -151t-178 -104t-234.5 -38.5z" />
    <glyph glyph-name="six" unicode="6" horiz-adv-x="1087" 
d="M461 -29q-175 0 -267 109.5t-92 322.5q0 122 34 246t94 238.5t141.5 214t176.5 173.5t199 116.5t209 42.5q69 0 113.5 -16.5t71 -42.5t37 -57.5t10.5 -62.5q0 -26 -6 -48.5t-18.5 -39.5t-31 -27t-42.5 -10q-42 0 -64.5 32.5t-24.5 92.5q-1 33 -4.5 61t-15.5 49t-35 32.5
t-63 11.5q-49 0 -103 -27.5t-109.5 -77.5t-110 -120.5t-105 -155.5t-94.5 -182.5t-78 -202.5l4 -4q37 45 77.5 86.5t87.5 73t102 50.5t122 19q76 0 133 -25t94.5 -70.5t56.5 -109t19 -141.5q0 -62 -17 -127t-48.5 -126t-77 -115.5t-103 -95t-126 -64t-146.5 -23.5zM436 -14
q58 0 110.5 26.5t96 71t78.5 103.5t59.5 124t37.5 131.5t13 126.5q0 56 -15 102t-44.5 79t-71.5 51t-96 18q-74 0 -144 -40.5t-124 -111t-86.5 -165.5t-32.5 -205q0 -66 14.5 -123t42 -98.5t68.5 -65.5t94 -24z" />
    <glyph glyph-name="seven" unicode="7" horiz-adv-x="1006" 
d="M287 -244q-45 0 -66.5 25t-21.5 63q0 37 24.5 99t71.5 144.5t115 184.5t155 220q103 139 224.5 284.5l254.5 304.5h-548q-64 0 -114 -20.5t-92 -57.5t-79 -88t-74 -112l-10 4l262 526h8l-14 -114h799l-2 -13q-91 -99 -173 -198.5t-153 -196.5q-95 -131 -168 -247.5
t-128.5 -225.5t-96 -213t-70.5 -211l-17.5 -65t-18 -50t-26 -32t-42.5 -11z" />
    <glyph glyph-name="eight" unicode="8" horiz-adv-x="1090" 
d="M473 -33q-92 0 -165.5 22.5t-125 63.5t-79 97t-27.5 124q0 64 30 123.5t81 108.5t117 86t138 57q-40 22 -72.5 49.5t-56 59.5t-36.5 69t-13 80q0 73 34.5 141t95.5 120.5t143.5 84t177.5 31.5q75 0 137 -19.5t107 -55.5t70.5 -86t27.5 -111q1 -62 -21 -116t-63 -98
t-97 -77t-122 -53q37 -16 75 -40.5t69 -58t50 -76.5t19 -96q0 -100 -42.5 -179.5t-111.5 -135t-158 -85.5t-182 -30zM477 -16q72 0 135.5 27.5t111 73t74.5 104t27 120.5q0 41 -5 75t-23.5 64.5t-56 59t-101.5 59.5q-71 34 -180 72q-65 -25 -117 -65.5t-88.5 -92t-56 -110
t-19.5 -119.5q0 -49 18.5 -97t55.5 -86t93.5 -61.5t131.5 -23.5zM731 676q61 18 107.5 57.5t77.5 89t46 103.5t13 102t-22 91.5t-54.5 76.5t-82.5 52.5t-105 19.5q-75 0 -132.5 -28t-96.5 -70.5t-59 -94t-20 -98.5q0 -35 5 -63.5t20 -53.5t42 -48.5t71 -47.5
q35 -20 81.5 -41.5t108.5 -46.5z" />
    <glyph glyph-name="nine" unicode="9" horiz-adv-x="1087" 
d="M184 -209q-68 0 -115.5 16.5t-78 42t-44.5 57t-14 62.5q0 26 6 49t18.5 40t31 26.5t43.5 9.5q42 0 65 -32.5t23 -92.5q0 -37 4.5 -65.5t17 -48.5t36 -30.5t61.5 -10.5q68 0 132 31t122.5 85.5t112.5 129t101.5 162t89 184.5t76.5 196l-4 4q-34 -47 -74.5 -89t-89 -74
t-105.5 -51t-124 -19q-76 0 -133 25t-94.5 70.5t-56.5 109t-19 141.5q0 62 17 127t48.5 126t77 115.5t103 95t126 64t146.5 23.5q175 0 267 -109.5t92 -322.5q0 -122 -32 -247t-90 -241.5t-138 -218t-176 -177.5t-205 -119.5t-224 -43.5zM547 420q74 0 144 40.5t124 111.5
t86.5 166.5t32.5 205.5q0 66 -14.5 122t-42 97.5t-68.5 64.5t-94 23q-61 0 -114 -26t-97 -70.5t-78.5 -102.5t-58 -122.5t-36 -131t-12.5 -126.5q0 -56 15.5 -102.5t44.5 -79.5t71.5 -51.5t96.5 -18.5z" />
    <glyph glyph-name="colon" unicode=":" horiz-adv-x="557" 
d="M205 -16q-23 0 -43.5 8.5t-36 23.5t-24.5 35.5t-9 44.5q0 23 9 43.5t24.5 36t36 24.5t43.5 9q24 0 44.5 -9t36 -24.5t24.5 -36t9 -43.5q0 -24 -9 -44.5t-24.5 -35.5t-36 -23.5t-44.5 -8.5zM385 705q-23 0 -43.5 8.5t-36 23.5t-24.5 35.5t-9 44.5q0 23 9 43.5t24.5 36
t36 24.5t43.5 9q24 0 44.5 -9t36 -24.5t24 -36t8.5 -43.5q0 -24 -8.5 -44.5t-24 -35.5t-36 -23.5t-44.5 -8.5z" />
    <glyph glyph-name="semicolon" unicode=";" horiz-adv-x="557" 
d="M35 -272q38 21 75.5 52.5t67.5 68.5t50 77t24 78h-47q-63 0 -88 24t-25 66q0 21 8 41.5t22.5 37t36 26.5t48.5 10q60 0 89.5 -37t29.5 -94q0 -65 -26.5 -120t-68.5 -100.5t-93 -80.5t-99 -60zM387 705q-23 0 -43.5 8.5t-36 23.5t-24.5 35.5t-9 44.5q0 23 9 43.5t24.5 36
t36 24.5t43.5 9q24 0 44.5 -9t36 -24.5t24 -36t8.5 -43.5q0 -24 -8.5 -44.5t-24 -35.5t-36 -23.5t-44.5 -8.5z" />
    <glyph glyph-name="question" unicode="?" horiz-adv-x="827" 
d="M416 328q-75 0 -120.5 49.5t-45.5 142.5q0 60 21 108t60.5 88.5t97 75.5t130.5 70q77 36 125.5 69.5t76.5 69.5t38 76.5t10 89.5q0 45 -14 87t-44 74.5t-75.5 52.5t-108.5 20q-53 0 -97 -16.5t-76 -44.5t-50 -66t-18 -80q0 -38 12.5 -69.5t34 -55t51 -36.5t63.5 -13
q31 0 48 8v6q-9 -1 -22 3t-24.5 12.5t-19.5 21t-8 29.5q0 34 22 57t56 23q42 0 66 -20t24 -60q0 -20 -9.5 -38.5t-27 -33t-43 -23t-57.5 -8.5q-37 0 -70.5 14.5t-58.5 40.5t-39.5 62t-14.5 78q0 49 21.5 92.5t59.5 76.5t91.5 52t118.5 19q81 0 140.5 -26.5t99 -70t59 -100
t19.5 -115.5q0 -61 -18 -110t-53.5 -89.5t-87.5 -74.5t-120 -64q-67 -29 -127.5 -61.5t-107 -70t-74 -81.5t-27.5 -96q0 -29 10.5 -51.5t28 -37.5t41 -22.5t49.5 -7.5q28 0 52 13.5t43.5 36t33 53t19.5 65.5l10 -4q-16 -90 -61 -140t-113 -50zM299 -18q-46 0 -77.5 30
t-31.5 76q0 23 8.5 43t23 34.5t34.5 23t43 8.5t43 -8.5t34.5 -23t23 -34.5t8.5 -43q0 -46 -31.5 -76t-77.5 -30z" />
    <glyph glyph-name="A" unicode="A" horiz-adv-x="1290" 
d="M-233 8q10 1 26.5 4.5t35.5 9t38.5 12.5t36.5 15q23 11 47 30t47.5 43.5t47 52l44.5 54.5l223 280.5l240 302l244.5 308.5l236.5 301h15v-1274q0 -21 0.5 -38.5t4.5 -31.5t12.5 -24.5t23.5 -17.5q23 -13 57 -19t63 -8l-2 -8h-546l2 8q48 3 93.5 10.5t71.5 16.5
q41 15 56.5 45t15.5 61v437h-506l-74.5 -96.5l-68.5 -92l-58 -79.5l-42 -60l-28 -40t-25 -39t-18 -36t-7 -31q0 -23 23.5 -40t57 -29t69 -19t59.5 -8l-2 -8h-517zM901 598l12 633l-170 -213l-78.5 -99l-84.5 -106l-86.5 -108.5l-83.5 -106.5h491z" />
    <glyph glyph-name="B" unicode="B" horiz-adv-x="1253" 
d="M-55 8l34 2.5t43.5 4.5t42.5 6.5t31 7.5q41 14 60 41t28 59l314 1124q8 32 5 58t-38 45q-11 4 -30 10t-39.5 11t-39.5 9t-30 5l4 8h569q170 0 262 -68t92 -192q0 -79 -30.5 -143.5t-87.5 -113t-139.5 -81.5t-186.5 -49v-9q183 -12 269.5 -87.5t86.5 -202.5
q0 -99 -44.5 -182t-127.5 -143t-202 -94t-267 -34h-581zM526 14q114 0 202.5 39t148.5 101.5t91 140t31 154.5q0 73 -22 126.5t-63 88.5t-99.5 52t-130.5 17q-14 0 -38.5 -0.5l-51 -1l-51 -1t-39.5 -1.5l-164 -590q-9 -69 39 -97t147 -28zM631 748q117 0 203 29.5
t142.5 80.5t83.5 118.5t27 143.5q0 57 -15.5 105.5t-44.5 83.5t-72.5 55t-98.5 20q-17 0 -39 -0.5l-45.5 -1l-46.5 -1t-41 -1.5l-174 -632h121z" />
    <glyph glyph-name="C" unicode="C" horiz-adv-x="1262" 
d="M604 -31q-108 0 -199.5 38t-159 108t-105.5 168.5t-38 220.5q0 129 30.5 248t84 221t128 185.5t162 143t186 91.5t200.5 32q64 0 118.5 -14.5t97 -34t72 -40t44.5 -33.5l104 116h10l-98 -506h-12q-4 63 -14.5 124t-29.5 116t-47.5 101.5t-68.5 80.5t-93.5 53t-121.5 19
q-75 0 -147.5 -32t-137 -89.5t-119 -137.5t-94.5 -176t-62 -205.5t-22 -225.5q0 -108 25 -204t76 -168t127.5 -113.5t179.5 -41.5q79 0 147 27t127 74t110.5 110.5t96.5 136.5l15 -8q-43 -71 -94.5 -140t-119 -123.5t-155 -88t-203.5 -33.5z" />
    <glyph glyph-name="D" unicode="D" horiz-adv-x="1485" 
d="M-55 8l34 2.5t43.5 4.5t42.5 6.5t31 7.5q41 14 59 38t29 62l314 1124q8 32 5 58t-38 45q-11 4 -30 10t-39.5 11t-39.5 9t-30 5l4 8h579q105 0 205 -28t177 -92t124 -168t47 -255q0 -134 -34 -249.5t-96 -211t-148 -169t-190.5 -124t-224 -76.5t-247.5 -26h-579zM535 14
q105 0 202.5 28t182 80.5t154 126.5t119 165.5t76.5 198.5t27 225q0 140 -29.5 243t-86.5 170.5t-140.5 100t-191.5 32.5q-1 0 -20 -0.5t-45 -1l-53 -1t-44 -1.5l-338 -1208q-12 -44 -8.5 -74t26 -49t64 -27t105.5 -8z" />
    <glyph glyph-name="E" unicode="E" horiz-adv-x="1274" 
d="M-72 8q11 0 34.5 2t49.5 5.5t50.5 8t37.5 9.5q39 14 59 40.5t29 61.5l310 1116q4 16 6 31t-0.5 28.5t-11.5 25t-27 20.5q-12 5 -32.5 11t-43 11t-43.5 8.5t-35 4.5l4 8h1024l-88 -320h-10q0 50 -8 101t-24 93t-40.5 70t-58.5 33q-32 4 -81.5 6t-98.5 2h-242l-180 -643
h201q40 0 71.5 6.5t54.5 16.5t39.5 21.5t28.5 21.5q29 23 56.5 71t58.5 126h12l-160 -570h-10q4 21 8.5 51.5t6 63t-1.5 63t-13 50.5q-5 10 -14.5 21t-26.5 20.5t-44.5 15.5t-69.5 6h-201l-148 -524q-18 -62 -18.5 -98.5t21 -56.5t67 -26t117.5 -6q51 0 108 0.5t109.5 5
t94.5 14t65 27.5t48.5 46t50.5 59.5t49 65.5l44 64.5l35.5 56t23.5 40.5h11l-133 -393h-1125z" />
    <glyph glyph-name="F" unicode="F" horiz-adv-x="1223" 
d="M-72 8q11 0 34.5 2t49.5 5.5t50.5 8t37.5 9.5q39 14 59 40.5t29 61.5l310 1116q4 16 6 31t-0.5 28.5t-11.5 25t-27 20.5q-12 5 -32.5 11t-43 11t-43.5 8.5t-35 4.5l4 8h1076l-88 -332h-11q0 51 -6.5 103.5t-22 96.5t-42.5 74t-68 35q-35 5 -76.5 6.5t-91.5 1.5h-297
l-180 -647h229q39 0 71 6.5t56.5 16t43 21t30.5 20.5q14 10 30 31.5t31.5 49t30 58.5t25.5 59h10l-162 -575h-10q4 22 6.5 57t3 70.5t-1.5 65t-6 40.5q-4 10 -16.5 21.5t-33.5 21t-49.5 15.5t-64.5 6h-227l-162 -574q-5 -15 -7 -30.5t1.5 -29.5t12.5 -25.5t26 -18.5
q12 -5 32 -11t42 -11t42.5 -8.5t34.5 -4.5l-2 -8h-600z" />
    <glyph glyph-name="G" unicode="G" horiz-adv-x="1413" 
d="M604 -31q-101 0 -192 33t-160 100.5t-109.5 170.5t-40.5 243q0 117 28.5 230t81 214t127.5 186.5t167.5 147t200.5 96.5t227 35q61 0 110.5 -9t91 -26.5t78 -43t72.5 -58.5l107 131h8l-113 -491h-10q-6 93 -23.5 180t-58 154.5t-108.5 108t-175 40.5q-76 0 -152.5 -30
t-147.5 -85t-132.5 -133.5t-107 -175.5t-71.5 -210.5t-26 -239.5q0 -125 22.5 -226.5t68.5 -173t115 -110.5t161 -39q84 0 146.5 26t107.5 71t75.5 106t49.5 131l35 133q9 40 3.5 72.5t-40.5 47.5q-17 7 -44 13t-55.5 10t-54 6.5t-39.5 3.5l2 10h617l-2 -10l-33.5 -4.5
t-38 -5.5t-38.5 -7.5t-34 -10.5q-43 -17 -62.5 -45t-27.5 -62l-137 -512l-6 -2l-43 137l-105 -50.5t-101.5 -40.5t-103 -26.5t-110.5 -9.5z" />
    <glyph glyph-name="H" unicode="H" horiz-adv-x="1626" 
d="M-55 8l34 2.5t43.5 4.5t42.5 6.5t31 7.5q41 14 60 41t28 59l314 1124q8 32 5 58t-38 45q-11 4 -29.5 10t-38.5 11t-39 9t-30 5l2 8h575l-2 -8q-15 -1 -36 -3.5t-44 -6t-44 -7.5t-36 -8q-40 -12 -60 -41t-30 -61l-141 -510h723l141 499q3 15 5 30t0 28.5t-10.5 24.5
t-27.5 20q-11 5 -29.5 11t-39 11t-40.5 8.5t-34 4.5l2 8h574l-2 -8q-14 -1 -34.5 -3.5t-42.5 -6t-42.5 -7.5t-34.5 -8q-41 -12 -60 -40t-28 -62l-318 -1127q-8 -34 -4 -57t39 -41q9 -5 26.5 -10t38 -9.5t41 -7.5t34.5 -4l-3 -8h-575l2 8l36.5 2.5t46.5 4.5t45 6.5t32 7.5
q40 14 59.5 40t28.5 60l170 604h-725l-168 -596q-8 -32 -3 -57.5t40 -40.5q7 -4 25 -9t39.5 -9.5t42.5 -8t36 -4.5l-2 -8h-573z" />
    <glyph glyph-name="I" unicode="I" horiz-adv-x="764" 
d="M-39 8l34 2.5t43.5 4.5t42.5 6.5t32 7.5q40 14 59 41t29 59l313 1124q8 32 5 58t-38 45q-11 4 -29 10t-38.5 11t-39 9t-30.5 5l2 8h576l-2 -8q-15 -1 -36 -3.5t-44 -6t-44 -7.5t-36 -8q-40 -12 -60.5 -41t-29.5 -61l-316 -1127q-9 -35 -3.5 -59t40.5 -39q8 -4 26 -9
t39.5 -9.5t42.5 -8t36 -4.5l-3 -8h-573z" />
    <glyph glyph-name="J" unicode="J" horiz-adv-x="1090" 
d="M166 -354q-62 0 -102 14t-64 36t-33.5 50t-9.5 55q0 18 8 34t20.5 28t29 19t34.5 7q42 0 68 -19.5t26 -64.5q0 -24 -16 -47t-33 -45q0 -24 21 -38.5t49 -14.5q63 0 114 19.5t94.5 69t81.5 134t74 213.5q23 83 43.5 167.5l38 163l31.5 146.5l25 117l-269 -2l6 19l271 8
q17 51 39 103t51.5 104.5t68.5 104.5t89 101q-20 -2 -37 -3.5t-36.5 -2t-44.5 -0.5h-61q-49 0 -85.5 18.5t-65.5 47t-54.5 62t-53.5 62.5t-62.5 49t-81.5 23q-32 0 -63.5 -16t-56 -41.5t-39.5 -56t-15 -58.5q0 -24 12 -43q18 -1 37.5 -7t36.5 -17t28 -27t11 -35
q0 -13 -6 -25.5t-16 -22.5t-24 -16.5t-30 -6.5q-24 0 -42.5 11t-31 29.5t-18.5 43t-6 51.5q0 43 24.5 94t67 94.5t99 73t120.5 29.5t106 -20.5t73 -51.5t56.5 -67.5t56 -69.5t72 -57.5t105.5 -30.5h45q31 37 59.5 77.5t54.5 73.5t51.5 54.5t51.5 21.5q49 0 49 -55
q0 -19 -18 -45t-52 -52.5t-83.5 -49.5t-112.5 -36q-21 -51 -37 -100t-29.5 -98.5t-25.5 -101.5l-25 -109l269 8l-17 -35l-258 -2q-21 -104 -54 -239t-85 -310q-39 -131 -94.5 -224.5t-122 -154.5t-142 -89.5t-155.5 -28.5z" />
    <glyph glyph-name="K" unicode="K" horiz-adv-x="1440" 
d="M-55 8l34 2.5t43.5 4.5t42.5 6.5t31 7.5q41 14 60 41t28 59l314 1124q8 32 5 58t-38 45q-11 4 -36 10t-52.5 11t-53 9t-36.5 5l2 8h616l-2 -8q-15 -1 -36 -3.5t-44 -6t-44 -7.5t-36 -8q-40 -12 -60 -41t-30 -61l-151 -545h37l163 112.5l159 116.5t144.5 114t119.5 104.5
t84.5 87t39.5 63.5q6 23 -13.5 37t-49 22t-59 11t-42.5 4l2 8h508l-2 -8l-43.5 -3t-66.5 -12t-82.5 -31.5t-91.5 -60.5l-165.5 -135.5l-160 -128.5l-159.5 -122.5l-165 -117.5q31 -39 67.5 -90.5l75 -109.5l77 -117.5l73 -114l63.5 -100l48 -74.5q26 -40 61.5 -74.5
t87.5 -60.5q26 -12 61.5 -19.5t61.5 -9.5l-2 -10h-647l2 10q55 5 97.5 10.5t70.5 15t42.5 23.5t14.5 35q0 17 -16 55t-43 90t-63.5 113.5l-76.5 124t-82 121.5t-81 107h-51l-162 -568q-8 -32 -2.5 -57.5t39.5 -40.5q7 -4 25 -9t39.5 -9.5t42.5 -8t36 -4.5l-2 -8h-573z" />
    <glyph glyph-name="L" unicode="L" horiz-adv-x="1257" 
d="M-72 8q11 0 34.5 2t49.5 5.5t50.5 8t37.5 9.5q39 14 59 40.5t29 61.5l310 1116q4 16 6 31t-0.5 28.5t-11.5 25t-27 20.5q-12 5 -32.5 11t-43 11t-43.5 8.5t-35 4.5l4 8h590l-2 -8q-15 -1 -36 -3.5t-44 -6t-44 -7.5t-36 -8q-40 -12 -60 -41t-30 -61l-295 -1063
q-16 -59 -18.5 -96t17 -57t66.5 -27t130 -7q45 0 97.5 1t101 5t87 11.5t54.5 19.5q27 21 66.5 64t80 94t76 102t55.5 86h11l-138 -397h-1120z" />
    <glyph glyph-name="M" unicode="M" horiz-adv-x="1876" 
d="M-100 8q17 1 45 6t58.5 13t58 17.5t42.5 18.5q42 26 78 102t70 200l217 798q17 63 10.5 103t-30.5 65q-15 15 -35.5 25.5t-43.5 18t-46 11.5t-43 5l4 8h344l264 -1178l653 1002q40 63 64 111t30 65h379l-2 -8q-15 -1 -36 -3.5t-43.5 -6t-44 -7.5t-35.5 -8
q-41 -12 -60.5 -38t-30.5 -64l-290 -1127q-11 -31 -3.5 -57t39.5 -41q9 -5 28.5 -10t41.5 -9.5t43.5 -7.5t36.5 -4l-2 -8h-571l2 8l33 2.5t41.5 4.5t40.5 6.5t30 7.5q40 14 60 41t28 59l297 1171l-836 -1277h-10q-2 32 -8 67t-14.5 71l-18 73t-16.5 73l-207 944l-233 -876
q-7 -25 -17.5 -67.5t-16 -88t-2.5 -85.5t23 -60q12 -12 44 -24t67.5 -21t68 -14.5t46.5 -6.5l-3 -8h-591z" />
    <glyph glyph-name="N" unicode="N" horiz-adv-x="1499" 
d="M508 1239l-232 -885q-6 -22 -15.5 -60.5t-14.5 -80t-1 -80t25 -59.5q12 -12 38.5 -24t56.5 -21t58 -14.5t42 -6.5l-2 -8h-565l2 8q17 1 45.5 6t59 13t58 17.5t41.5 18.5q42 26 77 92.5t67 188.5l213 793q6 22 10.5 47.5t3.5 50.5t-9.5 49t-27.5 43q-57 57 -215 64l4 8
h371l522 -1176l219 830l10 36.5t11.5 49t9.5 55.5t3 55t-8 47t-22 33q-13 10 -38 20.5t-53.5 19.5t-55.5 15t-45 7l2 8h559l-2 -8q-14 -1 -41.5 -5.5t-58 -12t-59 -16.5t-44.5 -18q-26 -15 -46.5 -41.5t-37 -62.5t-30.5 -79t-27 -91l-289 -1079h-10z" />
    <glyph glyph-name="O" unicode="O" horiz-adv-x="1436" 
d="M614 -33q-90 0 -179.5 38.5t-161.5 110.5t-117 175.5t-45 234.5q0 126 31 242.5t86 217t130 182.5t162.5 140t183.5 90t193 32q65 0 128 -17.5t119.5 -51t105 -82t83.5 -109.5t54.5 -133.5t19.5 -155.5q0 -113 -26.5 -225t-76.5 -213.5t-120.5 -188.5t-159 -151
t-192 -100t-218.5 -36zM627 -16q100 0 184.5 39.5t153 107.5t120 159.5t86.5 196t52.5 216.5t17.5 221q0 92 -17.5 180t-58 156.5t-107 110.5t-165.5 42q-103 0 -189 -40t-154.5 -109.5t-119.5 -162t-85.5 -197t-51.5 -216t-17 -217.5q0 -95 18.5 -183t59.5 -155.5t108 -108
t165 -40.5z" />
    <glyph glyph-name="P" unicode="P" horiz-adv-x="1204" 
d="M-55 8l34 2.5t43.5 4.5t42.5 6.5t31 7.5q41 14 60 41t28 59l314 1124q3 15 5 30t0 28.5t-11 25t-27 19.5q-17 7 -36 13t-38 10.5t-35.5 7.5t-27.5 4l2 8h532q100 0 173 -21.5t120.5 -61.5t70.5 -95.5t23 -122.5q0 -102 -45.5 -183t-129 -137.5t-202 -86t-264.5 -29.5
h-123l-147 -527q-9 -31 -2 -56t39 -40q7 -4 25 -9t39.5 -9.5t42.5 -8t36 -4.5l-2 -8h-573zM616 678q111 0 198 27.5t147 79t91 126t31 168.5q0 66 -16 121.5t-50 96t-86.5 63t-125.5 22.5h-119l-194 -704h124z" />
    <glyph glyph-name="Q" unicode="Q" horiz-adv-x="1333" 
d="M1241 -489q-117 0 -202.5 28.5t-148 74t-108 103.5t-83 116.5l-72.5 112t-76 91.5q-81 -32 -160 -50t-166 -18q-47 0 -91.5 8t-79.5 24t-56 40.5t-21 58.5q0 28 20 52.5t54 43t77.5 29.5t90.5 11q58 0 114.5 -14t106.5 -36.5t93.5 -50t76.5 -53.5q110 58 206.5 151
t168.5 213.5t114 265t42 306.5q0 69 -14 139.5t-49.5 127t-96 92.5t-152.5 36q-83 0 -158.5 -28t-140 -76.5t-117 -113t-89 -137t-56.5 -149t-20 -149.5q0 -66 19 -119t52.5 -89.5t79.5 -56.5t101 -20q54 0 110 15.5t101.5 52t74.5 97.5t29 153q0 45 -11.5 83.5t-29 67
t-39 46.5t-41.5 22q11 -28 11 -53t-9 -44.5t-25.5 -31t-39.5 -11.5q-45 0 -62.5 21t-17.5 55q0 18 9.5 36.5t26.5 33.5t41.5 24t53.5 9q41 0 74.5 -18t57.5 -48.5t37 -70.5t13 -85q0 -87 -32.5 -157.5t-85 -120t-118 -76t-130.5 -26.5q-76 0 -138.5 28t-106.5 78.5
t-68.5 121.5t-24.5 157q0 78 25 152.5t69.5 140.5t106 121.5t134.5 96t155.5 63t168.5 22.5q132 0 223.5 -39t148 -105t82 -153.5t25.5 -184.5q0 -99 -27 -191.5t-74 -177t-111.5 -160t-139.5 -140t-157.5 -117.5t-165.5 -92q57 -42 106 -96.5l96.5 -111l97 -111t108 -97
t129.5 -68.5t161 -26q39 0 64.5 2t42 5t26.5 7t19 8v6q-31 11 -51.5 39t-20.5 60q0 18 8.5 33.5t22 27t30.5 17.5t35 6q19 0 33 -7t23 -17.5t13.5 -24t4.5 -25.5q0 -35 -24.5 -68.5t-68.5 -59.5t-104.5 -42t-132.5 -16zM250 -6q69 0 145.5 12t147.5 43q-32 32 -68 63
t-75.5 55t-83 39t-89.5 15q-26 0 -51.5 -10t-46 -26t-34.5 -36.5t-17 -42.5q6 -24 23.5 -44.5t41.5 -35.5t52 -23.5t55 -8.5z" />
    <glyph glyph-name="R" unicode="R" horiz-adv-x="1425" 
d="M1087 -23q-53 0 -89 13t-58.5 39t-32.5 66.5t-10 94.5v218q0 97 -12 157.5t-45 93.5t-91.5 44.5t-152.5 11.5h-96l-164 -578q-8 -32 -2.5 -57.5t39.5 -40.5q7 -4 25.5 -9t40 -9.5t43 -8t36.5 -4.5l-2 -8h-573l2 8l34 2.5t43.5 4.5t42.5 6.5t31 7.5q41 14 60 41t28 59
l314 1124q8 32 5 58t-38 45q-11 4 -29.5 10t-38.5 11t-39 9t-30 5l2 8h542q208 0 308 -73t100 -202q0 -74 -26 -137.5t-82.5 -115t-147 -89.5t-219.5 -59v-6q71 -11 119 -34t77 -59t41.5 -84.5t12.5 -109.5v-235q0 -84 20.5 -119t65.5 -35q34 0 64.5 21.5t57.5 58.5t49.5 87
t39.5 107l14 -4q-21 -71 -46 -132t-57.5 -106t-75 -70.5t-100.5 -25.5zM653 731q98 0 182 22.5t145.5 68.5t96.5 115.5t35 164.5q0 134 -66 207t-200 73h-160l-184 -651h151z" />
    <glyph glyph-name="S" unicode="S" horiz-adv-x="1069" 
d="M438 -27q-57 0 -114 11t-107 27.5t-89.5 36.5t-61.5 38l-103 -106h-12l115 479h10q12 -101 39.5 -186t75 -147t117 -97t167.5 -35q91 0 161.5 29.5t117.5 77.5t71.5 108t24.5 121q0 45 -7.5 79t-24 61.5t-42 51t-61.5 47.5q-71 47 -144.5 86t-144.5 88q-78 56 -122 123
t-44 154q0 81 35 154.5t97.5 129t149 88.5t189.5 33q45 0 92.5 -9.5t89.5 -25.5t76.5 -35.5t54.5 -39.5l97 104h14l-117 -465h-10q-6 101 -26 184.5t-58.5 143t-96.5 92.5t-140 33q-64 0 -123 -22.5t-104 -62.5t-72 -95.5t-27 -122.5q0 -41 7.5 -73.5t23.5 -60t41.5 -53
t62.5 -51.5q34 -24 69.5 -44.5l72 -41.5l73.5 -43t74 -47q80 -54 124 -118.5t44 -151.5q0 -99 -41.5 -181t-113.5 -141.5t-169.5 -92t-210.5 -32.5z" />
    <glyph glyph-name="T" unicode="T" horiz-adv-x="1264" 
d="M178 8q14 1 40 3.5t54 6t52.5 7.5t35.5 8q41 14 61 41t30 61l346 1249h-107q-17 0 -41 -0.5t-49.5 -1.5t-50.5 -2.5t-43 -3.5q-23 -3 -52 -22.5t-59.5 -49t-61.5 -66t-58.5 -72.5t-48.5 -68.5t-33 -55.5h-13l101 357h1192l-101 -357h-12q0 55 -6.5 112.5t-21.5 105.5
t-39 79.5t-58 36.5q-18 2 -41 3.5t-47 2.5t-47.5 1.5t-44.5 0.5h-107l-340 -1239q-11 -31 -4 -59t39 -43q9 -4 33 -9.5t52.5 -11t55.5 -9.5t41 -5l-2 -8h-647z" />
    <glyph glyph-name="U" unicode="U" horiz-adv-x="1610" 
d="M668 -33q-220 0 -325 85t-105 239q0 43 6.5 91.5t21.5 102.5l213 768q4 16 6 30.5t-0.5 27.5t-11.5 24.5t-27 20.5q-11 4 -29 10t-38.5 11t-39 9t-30.5 5l2 8h576l-2 -8q-15 -1 -36 -3.5t-44 -6t-44 -7.5t-36 -8q-40 -12 -60.5 -41t-29.5 -61l-205 -738
q-18 -66 -28.5 -127t-10.5 -112q0 -53 22.5 -100.5t66 -83t106 -56t143.5 -20.5q198 0 327.5 115t192.5 339l158 553l10.5 39.5t13 53t11.5 59t4.5 58.5t-7 50.5t-22.5 34.5q-13 10 -38 20.5t-53.5 19.5t-55.5 15t-45 7l2 8h557l-2 -8q-14 -1 -41.5 -5.5t-58 -12t-59 -16.5
t-44.5 -18q-26 -15 -47.5 -44.5t-39 -68.5t-32.5 -85t-28 -94l-164 -574q-35 -123 -84.5 -217.5t-121 -158.5t-168 -97t-226.5 -33z" />
    <glyph glyph-name="V" unicode="V" horiz-adv-x="1290" 
d="M338 1251q0 22 -0.5 39.5t-4.5 31t-12.5 24t-23.5 18.5q-23 12 -57.5 18.5t-63.5 8.5l2 8h547l-2 -8q-48 -4 -94 -11t-72 -16q-40 -16 -56 -46t-16 -61l15 -1067l239.5 308l183 235.5l133.5 173.5l91.5 120.5l57.5 77l32 44.5l28 39.5t25.5 38t19 35.5t7.5 32
q0 23 -24 40.5t-57 29.5t-68.5 18.5t-59.5 8.5l2 8h512l-2 -8q-11 -1 -27.5 -4.5t-35 -9t-38 -13l-36.5 -14.5q-23 -11 -43.5 -26t-42 -36t-46 -50.5l-55.5 -68.5l-223 -279l-235.5 -300.5l-239 -309l-233.5 -303.5h-11z" />
    <glyph glyph-name="W" unicode="W" horiz-adv-x="1939" 
d="M338 1251q-1 21 -1.5 38.5t-4.5 31.5t-12 24.5t-23 18.5q-23 12 -57.5 18.5t-63.5 8.5l2 8h547l-2 -8q-48 -4 -94 -11t-72 -16q-40 -16 -57 -46t-15 -61l31 -1042l606 911q0 15 -0.5 33.5l-1 37.5l-1 37.5t-1.5 33.5l-2 30.5t-5 27t-12 22t-22 16.5q-11 6 -26 10.5t-31 8
t-32.5 5.5t-31.5 3l2 8h549l-2 -8q-47 -4 -93.5 -11t-72.5 -16q-40 -16 -56.5 -46t-14.5 -61l30 -1040l560 842q52 80 78 134t26 97q0 23 -19 41t-48.5 30.5t-66 19.5t-71.5 10l2 8h500l-2 -8q-29 -2 -68 -14t-71 -27q-23 -12 -44 -30.5t-39.5 -42t-36 -49l-34.5 -50.5
l-797 -1194h-10l-35 1106l-737 -1106h-10z" />
    <glyph glyph-name="X" unicode="X" horiz-adv-x="1460" 
d="M-129 10q29 2 61 9.5t64 19.5q67 26 117.5 64.5t87.5 72.5l88 84l121.5 120l145.5 145l161 161l-102 245.5l-123 293.5q-12 29 -22.5 50t-22.5 37t-27.5 27.5t-38.5 22.5q-12 5 -29.5 10t-37 9t-38 6.5t-32.5 3.5l2 8h672l-5 -8q-44 -3 -91.5 -7.5t-87 -15.5t-65.5 -30
t-26 -50q0 -21 11 -62t34 -104t58 -149.5l81 -198.5l64 65.5l92 94.5l103 109l98 108l47 55t38 47.5t25 37t9 24.5q0 38 -54.5 54.5t-150.5 21.5l2 8h534l-2 -8q-28 -2 -61.5 -9.5t-65.5 -19.5q-34 -13 -63 -30t-54 -35t-47 -36.5l-41 -35.5l-76 -72l-86 -86.5l-89 -92
l-85 -88.5l-73.5 -77l-54.5 -57l106 -256l133 -320q16 -37 31.5 -63t32.5 -43q16 -19 33 -30t37.5 -17t46.5 -8.5t61 -4.5l-4 -10h-672l4 10q61 3 112 8.5t88 17t58 30.5t21 49q0 34 -39 145q-25 71 -64.5 173l-93.5 233l-237 -236.5l-162 -169.5q-66 -72 -96.5 -113
t-30.5 -57q0 -22 14.5 -36.5t41.5 -23.5t65 -13.5t84 -6.5l-5 -10h-534z" />
    <glyph glyph-name="Y" unicode="Y" horiz-adv-x="1255" 
d="M242 8l33 2.5t41 4.5t40 6.5t31 7.5q20 7 34.5 18.5t24.5 25t16 28.5t9 28l133 537q9 34 14.5 72t9.5 75.5t5.5 71.5t1.5 59q0 70 -14 137.5t-45.5 120.5t-81.5 86t-123 33q-36 0 -72 -14t-68 -41t-58.5 -67.5t-43.5 -94.5l-12 4q106 315 356 315q78 0 132.5 -36
t88.5 -95t49 -134t15 -154q0 -27 -2 -60t-5 -68t-7 -69.5t-9 -65.5h19q56 167 127 294.5t149 214t158.5 131t154.5 44.5q54 0 87.5 -26.5t33.5 -69.5q0 -25 -8.5 -43.5t-22 -30.5t-30.5 -18t-35 -6q-24 0 -39.5 7t-25 17.5t-13.5 22t-4 20.5q0 20 8.5 43t18.5 35l-8 8
q-55 -6 -130 -51.5t-152 -131.5t-146.5 -213.5t-112.5 -297.5l-139 -553q-3 -12 -5 -22.5t-2 -18.5q2 -21 13.5 -34.5t34.5 -24.5q7 -4 28.5 -9t47 -9.5t50.5 -7.5t39 -3l-2 -8h-589z" />
    <glyph glyph-name="Z" unicode="Z" horiz-adv-x="1190" 
d="M-123 16l1301 1368h-406q-53 0 -99.5 -2t-78.5 -8q-29 -6 -62 -26.5t-66.5 -51t-66.5 -67.5t-62 -74.5l-53.5 -72l-41.5 -60.5h-9l140 377h993l-4 -13l-1305 -1372h437q46 0 95 2.5t93.5 9t81 17t57.5 25.5q40 31 83.5 77.5t83.5 96.5t73.5 97.5t54.5 80.5h8l-149 -420
h-1102z" />
    <glyph glyph-name="grave" unicode="`" 
d="M842 1087l-72 73l-70.5 69.5l-61 59l-44.5 42.5q-51 48 -51 101q0 27 17.5 46t45.5 19q35 0 54.5 -22.5t39.5 -65.5l29.5 -62.5l38 -79.5l42 -88l40.5 -87l-8 -5v0z" />
    <glyph glyph-name="a" unicode="a" horiz-adv-x="1081" 
d="M309 -27q-50 0 -97 15.5t-84 52.5t-59 99t-22 155q0 53 14.5 122t43.5 141t73 141.5t104 123.5t136 87.5t168 33.5q49 0 86.5 -15.5t63.5 -39.5t41.5 -52.5t21.5 -54.5h4l53 150h129l-235 -670q-19 -52 -27 -92.5t-10 -69.5q-2 -50 17 -71t48 -21q36 0 72 19.5t70 56.5
t64.5 89.5t55.5 117.5l15 -4q-28 -69 -58.5 -126t-68 -98t-82.5 -63.5t-101 -22.5q-38 0 -67.5 13t-46 41.5t-18 73.5t15.5 108l-4 2q-27 -51 -61 -95.5t-74 -77t-85.5 -51t-95.5 -18.5zM336 18q45 -2 84.5 12t74 41.5t64.5 67.5t57 90l175 523q-6 34 -21.5 64t-41.5 52
t-62.5 34.5t-83.5 12.5q-62 0 -115.5 -32t-97 -85.5t-77 -122.5t-56.5 -143.5t-34.5 -148.5t-11.5 -137q0 -60 10 -102.5t28.5 -69.5t45.5 -40.5t62 -15.5z" />
    <glyph glyph-name="b" unicode="b" horiz-adv-x="999" 
d="M414 -27q-79 0 -138 23t-98 61.5t-58.5 89.5t-19.5 107q0 42 8.5 79t20.5 75l279 870q17 51 23.5 84t6.5 53q0 34 -24 47.5t-58 18.5q-38 5 -67 5.5t-66 2.5v10l398 21l-263 -799l4 -2q19 31 50.5 70.5t72 73.5t89 57.5t102.5 23.5q50 0 99.5 -15.5t88.5 -52.5
t63.5 -98.5t24.5 -154.5q0 -53 -13.5 -122t-41.5 -141t-71.5 -141.5t-103.5 -124t-136.5 -88t-171.5 -33.5zM418 -12q62 0 115.5 33t97 88t77 126.5t56 147.5t34 151t11.5 138q0 60 -12 102t-33.5 69t-51 39.5t-63.5 12.5q-48 0 -92.5 -20t-84 -53t-73.5 -75.5t-59 -87.5
l-135 -428q0 -57 15.5 -102t44 -76.5t67.5 -48t86 -16.5z" />
    <glyph glyph-name="c" unicode="c" horiz-adv-x="797" 
d="M330 -29q-43 0 -92.5 14t-92 50.5t-70.5 99t-28 160.5q0 62 18.5 134.5t52 144.5t81 139t106 118.5t126.5 82t142 30.5q49 0 89 -14t68 -39.5t43 -61.5t15 -79q0 -28 -7 -47.5t-18 -32t-26 -18t-30 -5.5q-18 0 -35 6t-30.5 16.5t-21.5 26t-8 33.5q0 29 26 59.5t71 47.5
q-2 18 -12.5 35t-28 30.5t-40.5 22t-48 8.5q-51 0 -99.5 -30.5t-91.5 -82.5t-79 -120t-62 -144t-40.5 -154t-14.5 -149q0 -119 50 -176.5t130 -57.5q56 0 107.5 22.5t97.5 60.5t85.5 89.5t71.5 110.5l13 -6q-50 -91 -103 -153t-106.5 -100t-106.5 -54.5t-102 -16.5z" />
    <glyph glyph-name="d" unicode="d" horiz-adv-x="1102" 
d="M309 -27q-50 0 -97 15.5t-84 52.5t-59 99t-22 155q0 53 13.5 122t42 141t72 141.5t103.5 123.5t136.5 87.5t171.5 33.5q49 0 85.5 -15t62.5 -40t43 -57t26 -66h4l156 512q15 48 22.5 82.5t7.5 54.5q0 17 -6.5 28.5t-18 19t-26.5 12t-33 6.5q-38 5 -76.5 5.5t-76.5 2.5v10
l415 21l-395 -1258q-33 -104 -33 -160q0 -51 19.5 -70.5t48.5 -19.5q72 0 135.5 74t114.5 205l14 -4q-28 -69 -56 -126t-62 -98t-76.5 -63.5t-98.5 -22.5q-93 0 -121 65t1 191l-5 3q-33 -55 -73.5 -103t-85.5 -83.5t-93 -56t-96 -20.5zM336 23q48 0 92.5 17.5t84.5 49
t74.5 74.5t63.5 94l146 479q-6 34 -23 66t-44 56.5t-64 39t-84 14.5q-62 0 -115.5 -32t-97 -85t-77 -122t-56.5 -143t-34.5 -148t-11.5 -137q0 -120 38.5 -171.5t107.5 -51.5z" />
    <glyph glyph-name="e" unicode="e" horiz-adv-x="799" 
d="M336 -29q-46 0 -97 14.5t-93.5 52t-70.5 100.5t-28 161q0 53 17 121t49.5 140t80.5 141t110.5 123t138.5 87t165 33q34 0 67 -8.5t59 -25.5t41.5 -43t15.5 -60q0 -60 -24 -108.5t-66 -87.5t-98 -68t-120 -49.5t-133 -32t-135 -15.5q-11 -46 -18 -100t-7 -100
q0 -106 46.5 -163.5t130.5 -57.5q56 0 108 22.5t98.5 61.5t86 90.5t71.5 109.5l12 -6q-48 -91 -98.5 -154t-102 -102.5t-103.5 -57.5t-103 -18zM217 457q127 13 213 53t138.5 90.5t75 103t22.5 91.5q0 26 -6 50.5t-19 43t-32.5 30t-47.5 11.5q-51 0 -103 -40t-98 -106
t-83.5 -151.5t-59.5 -175.5z" />
    <glyph glyph-name="f" unicode="f" horiz-adv-x="629" 
d="M-252 -483q-52 0 -87 13.5t-56 35t-30 48t-9 52.5q0 15 6 31t17.5 29.5t28.5 22.5t38 9q14 0 30.5 -4.5t30.5 -14.5t23.5 -26t9.5 -39q0 -14 -5 -27.5t-12.5 -27t-16 -26.5t-15.5 -25q2 -19 18 -28t27 -9q57 0 103 23t85.5 74.5t75.5 135.5t74 207l72 251.5l66.5 247.5
l58 226l47.5 187h-217l8 28h217l22 82q31 112 81.5 209.5t121.5 169.5q68 69 148 109.5t180 40.5q48 0 82.5 -13.5t56.5 -34.5t32.5 -47t10.5 -51q0 -19 -6.5 -37t-18 -31.5t-28 -21.5t-37.5 -8q-13 0 -30 4t-32 13t-25.5 23.5t-10.5 35.5q0 15 5 31t11 31.5l12 30.5t9 30
q0 14 -17.5 22t-34.5 8q-112 0 -204.5 -112.5t-157.5 -339.5l-41 -144h258l-10 -28h-254l-53.5 -205.5l-58 -222.5l-59 -217t-55.5 -189q-38 -124 -94.5 -229.5t-128.5 -179.5q-57 -57 -122.5 -90t-139.5 -33z" />
    <glyph glyph-name="g" unicode="g" horiz-adv-x="938" 
d="M270 -479q-86 0 -153 16.5t-113.5 46.5t-71 71.5t-24.5 90.5q0 52 24 97t69.5 80.5t112 60.5t150.5 36v7q-38 7 -72.5 17t-60.5 26.5t-41.5 40t-15.5 57.5q0 44 23 77.5t55.5 58t68 40t60.5 23.5v4q-75 34 -115.5 91.5t-40.5 125.5q0 74 29.5 139t81.5 113t123 76t153 28
q42 0 76.5 -9t61 -21.5t44.5 -26.5t27 -23l45 26t49.5 26t52 20t52.5 8q16 0 31 -6.5t27 -18t19 -27.5t7 -34q0 -40 -24.5 -64t-59.5 -24q-23 0 -37 9.5t-22.5 26.5t-11.5 40t-3 51q-34 0 -68 -15t-57 -30v-10q9 -14 17.5 -32.5t15 -39t10.5 -40.5t4 -38q0 -77 -27 -140.5
t-73.5 -108.5t-109.5 -70t-136 -25h-152q-46 -12 -75 -42.5t-31 -67.5q-2 -29 10.5 -48.5t43 -32t81.5 -20.5t127 -12l51.5 -4.5t56.5 -6l53 -6.5t40 -6q100 -15 145 -64.5t45 -146.5q0 -70 -38.5 -136.5t-110 -118.5t-172.5 -83.5t-226 -31.5zM322 -463q95 0 167 25.5
t120.5 68.5t73 99.5t24.5 119.5q0 17 -4 36.5t-13 37t-24.5 31t-38.5 18.5q-41 9 -91 15.5t-100.5 11t-95.5 6.5t-76 4q-46 -11 -87.5 -34t-73 -56t-50 -75t-18.5 -91q0 -43 16.5 -82t51 -69t89 -48t130.5 -18zM418 360q38 0 70 20t57 52.5t44 73.5t31.5 84t18.5 83.5
t6 71.5q0 85 -35 136t-110 51q-40 0 -73.5 -19t-60.5 -50t-48 -70.5t-34.5 -79.5t-20.5 -77.5t-7 -64.5q0 -111 43 -161t119 -50z" />
    <glyph glyph-name="h" unicode="h" horiz-adv-x="1083" 
d="M760 -23q-32 0 -63.5 7.5t-56 25.5t-39.5 49t-15 78q0 37 12.5 77.5t32.5 92.5l121 320l16 47t14.5 46.5t10.5 42t4 34.5q0 32 -12 51.5t-30 30t-39.5 13.5t-41.5 3q-57 0 -107 -25t-91 -63.5t-72.5 -84t-51.5 -85.5l-200 -637h-132l404 1278q17 51 23 84t6 53
q0 34 -23 47.5t-57 18.5q-20 2 -36.5 3.5t-32 2l-31 1t-33.5 1.5v10l397 21l-268 -813l4 -2q29 44 65 87t77.5 76.5t87.5 54.5t95 21q56 0 96.5 -18t66.5 -48t38 -69.5t12 -81.5q0 -15 -3 -34.5t-8.5 -41.5t-12.5 -44.5t-15 -43.5l-114 -301q-10 -27 -19 -54t-15.5 -51
t-10.5 -44t-4 -33q0 -21 7 -35t18 -21.5t25.5 -10.5t28.5 -3q73 0 135.5 75t114.5 206l15 -4q-28 -69 -56.5 -126t-63 -98t-77 -63.5t-96.5 -22.5z" />
    <glyph glyph-name="i" unicode="i" horiz-adv-x="645" 
d="M309 -23q-33 0 -63 7.5t-52.5 25.5t-35.5 49t-13 78q0 37 10.5 76.5t30.5 93.5l138 348q24 63 35.5 108.5t11.5 74.5q0 42 -17 57.5t-49 15.5q-38 0 -72 -19.5t-65 -56t-59.5 -89t-53.5 -117.5l-12 4q28 67 56 124.5t61.5 98.5t75.5 64.5t98 23.5q33 0 61.5 -10t49 -31.5
t32.5 -54.5t12 -78q0 -18 -6.5 -44t-16 -54.5t-20.5 -57.5l-20 -51l-117 -301q-26 -68 -36.5 -111.5t-10.5 -72.5q0 -35 21 -50.5t53 -15.5q74 0 137.5 74t114.5 205l12 -4q-28 -69 -56.5 -126t-62.5 -98t-76 -63.5t-96 -22.5zM541 1210q-44 0 -65 29t-21 70q0 25 8 47.5
t23 39t37 26.5t50 10q18 0 32.5 -8.5t24.5 -22.5t15.5 -31t5.5 -35q0 -25 -7 -47.5t-21 -40t-34.5 -27.5t-47.5 -10z" />
    <glyph glyph-name="j" unicode="j" horiz-adv-x="557" 
d="M-184 -483q-43 0 -74.5 12.5t-52.5 32.5t-31 44.5t-10 49.5q0 37 22 65.5t64 28.5q38 0 63 -22.5t25 -57.5q0 -28 -13.5 -52.5t-31.5 -47.5q2 -17 14.5 -28t28.5 -11q55 0 100 24t84.5 77t75.5 137t72 204l60.5 207.5l49 177.5l44.5 170l48 185q10 37 13.5 66t3.5 50
q0 82 -62 82q-36 0 -70 -19.5t-65.5 -56t-60.5 -89t-54 -117.5l-12 4q27 67 55 124.5t62 98.5t76 64.5t98 23.5q69 0 110 -40.5t41 -131.5q0 -7 -2.5 -24t-6.5 -39t-9 -45.5t-10 -42.5l-37.5 -145.5l-35.5 -135l-38.5 -139l-46.5 -156.5q-13 -42 -26.5 -79t-28 -70
t-31 -63.5t-35.5 -61.5q-36 -57 -78 -104t-88.5 -80t-97 -51.5t-102.5 -18.5zM524 1210q-43 0 -64.5 29t-21.5 70q0 25 8 47.5t23 39t37 26.5t51 10q18 0 32 -8.5t24.5 -22.5t16 -31t5.5 -35q0 -25 -7 -47.5t-21.5 -40t-35 -27.5t-47.5 -10z" />
    <glyph glyph-name="k" unicode="k" horiz-adv-x="1071" 
d="M702 -23q-41 0 -73 8t-53.5 26.5t-32.5 49.5t-11 76q0 34 6.5 71t14 72.5l14 66.5t6.5 54q0 70 -37 105t-124 35q-17 0 -44.5 -1.5l-45.5 -2.5l-175 -537h-131l406 1278q17 53 23 85t6 52q0 34 -23 47.5t-57 18.5q-20 2 -36.5 3.5t-32 2l-31 1t-33.5 1.5v10l397 21
l-311 -967q23 -2 57 -2h61q66 0 108 29t71 73t52 94.5t52 94.5t70 73t106 29q82 0 119 -35t37 -92q0 -21 -7.5 -41.5t-21 -37.5t-33 -27.5t-43.5 -10.5q-14 0 -28 5t-25 13t-18 19.5t-7 24.5q0 32 10 49t22.5 28l24 21t15.5 29q-8 20 -20.5 31.5t-40.5 11.5q-35 0 -58.5 -25
t-44 -63.5t-42 -85t-52.5 -89.5t-75 -77t-109 -47q47 -10 82.5 -23.5t59.5 -35t36 -53.5t12 -79q0 -41 -5.5 -76t-12 -65.5l-12 -58t-5.5 -52.5q0 -49 20 -70.5t54 -21.5q74 0 137.5 75t112.5 206l14 -4q-27 -69 -56.5 -126t-64.5 -98t-77.5 -63.5t-96.5 -22.5z" />
    <glyph glyph-name="l" unicode="l" horiz-adv-x="561" 
d="M236 -23q-33 0 -62.5 7t-51 25t-34 48.5t-12.5 77.5q0 37 11.5 81.5t25.5 90.5l307 971q17 53 23 85t6 52q0 34 -24 47.5t-58 18.5q-39 4 -68 5t-66 3v10l400 21l-404 -1262q-10 -31 -17 -55t-12 -45t-7.5 -39.5t-2.5 -38.5q0 -37 20 -54.5t54 -17.5q37 0 70.5 19.5
t65 56.5t60 89.5t54.5 117.5l14 -4q-27 -69 -56 -126t-63 -98t-76.5 -63.5t-96.5 -22.5z" />
    <glyph glyph-name="m" unicode="m" horiz-adv-x="1718" 
d="M1397 -23q-32 0 -63.5 7.5t-56 25.5t-39.5 49t-15 78q0 37 12.5 77.5t32.5 92.5l121 320l16 47t14.5 46.5t10.5 42t4 34.5q0 32 -12 51.5t-30 30t-39.5 13.5t-41.5 3q-50 0 -93.5 -19t-81 -49.5t-67.5 -68t-53 -74.5l-223 -684h-138l217 655q5 13 10.5 31.5t10.5 38
t8.5 38.5t3.5 34q0 32 -11.5 51.5t-29.5 30t-40 13.5t-42 3q-57 0 -106.5 -24.5t-90 -62.5t-72 -83.5t-52.5 -87.5l-213 -637h-137l221 655q25 72 35 119t10 76q0 37 -18 50t-44 13q-38 0 -72.5 -20t-65 -57t-58.5 -89.5t-53 -117.5l-15 4q28 67 56 124.5t62 98.5t76 64.5
t97 23.5q40 0 71 -15.5t48.5 -47t20 -80t-14.5 -113.5l4 -2q31 54 70.5 101t83.5 82t90.5 55t91.5 20q51 0 91 -16.5t65.5 -49t34.5 -80t-1 -108.5l4 -2q28 52 67.5 98.5t84 81.5t91.5 55.5t91 20.5q53 0 93 -16.5t66.5 -45.5t40 -68.5t13.5 -86.5q0 -15 -3.5 -35.5t-9 -43
t-12.5 -45t-14 -40.5l-114 -301q-10 -26 -19 -52.5t-15.5 -51t-10.5 -45t-4 -33.5q0 -21 7 -35t18 -21.5t25 -10.5t29 -3q73 0 135.5 75t114.5 206l15 -4q-28 -69 -56.5 -126t-63 -98t-77 -63.5t-96.5 -22.5z" />
    <glyph glyph-name="n" unicode="n" horiz-adv-x="1190" 
d="M868 -23q-32 0 -63.5 7.5t-56 25.5t-39.5 49t-15 78q0 37 12.5 77.5t32.5 92.5l121 320q9 23 17 47t14 46.5t10 42t4 34.5q0 32 -11.5 51.5t-29.5 30t-40 13.5t-42 3q-57 0 -106.5 -25t-90.5 -63.5t-72.5 -84t-51.5 -85.5l-209 -637h-141l221 655q25 72 35 119t10 76
q0 37 -18 50t-44 13q-38 0 -72.5 -20t-65 -57t-58.5 -89.5t-53 -117.5l-15 4q28 67 56 124.5t62 98.5t76 64.5t97 23.5q40 0 71 -15.5t48.5 -47t20 -80t-14.5 -113.5l4 -2q31 54 70.5 101t83.5 82t90.5 55t91.5 20q57 0 97 -18t66 -47.5t38 -67t12 -76.5q0 -18 -3.5 -40.5
t-9 -45.5t-12.5 -45.5t-14 -40.5l-115 -301q-10 -27 -19 -54t-15.5 -51t-10.5 -44t-4 -33q0 -21 7 -35t18.5 -21.5t25.5 -10.5t29 -3q72 0 134.5 75t115.5 206l14 -4q-28 -69 -56.5 -126t-63 -98t-76.5 -63.5t-97 -22.5z" />
    <glyph glyph-name="o" unicode="o" horiz-adv-x="936" 
d="M346 -29q-57 0 -109.5 22t-93 66t-64.5 111.5t-24 159.5q0 55 16.5 122t48.5 135.5t78 132.5t105 114t129.5 80t151.5 30q59 0 113 -22t95.5 -67t66 -112.5t24.5 -158.5q0 -52 -15.5 -118t-46.5 -134t-76 -133t-105 -115.5t-133.5 -81.5t-160.5 -31zM365 -14q60 0 111 30
t92.5 80.5t73.5 116t53.5 137t32.5 143.5t11 136q0 84 -13.5 141.5t-36 93t-53 51t-63.5 15.5q-56 0 -105.5 -28.5t-91 -77t-74.5 -112t-56 -134.5t-35 -145t-12 -142q0 -80 12.5 -137.5t34.5 -95t52.5 -55t66.5 -17.5z" />
    <glyph glyph-name="p" unicode="p" horiz-adv-x="1110" 
d="M-174 -471q35 1 59 4.5t40 8.5t26.5 13t19.5 19q15 16 26.5 38t21 45.5t17 47l13.5 41.5l285 909q21 66 32 114.5t9 80.5q-3 63 -58 63q-39 0 -73.5 -20t-65.5 -57t-59 -89.5t-53 -117.5l-15 4q28 67 56.5 124.5t62.5 98.5t76 64.5t96 23.5q84 0 116.5 -66.5t0.5 -193.5
l4 -2q33 54 72.5 102t83 83.5t91 56t95.5 20.5q50 0 97 -15.5t84 -52.5t59 -98.5t22 -154.5q0 -53 -13.5 -122t-42 -141t-72 -141.5t-103.5 -124t-136.5 -88t-171.5 -33.5q-49 0 -86 17t-63.5 43.5t-43 59t-24.5 63.5h-4l-125 -414q-14 -48 -21 -82.5t-7 -54.5
q0 -34 24 -47.5t60 -18.5l33.5 -3.5t27.5 -2l27 -1t32 -1.5l-2 -10h-532zM532 4q62 0 115.5 32t97 85t77 122.5t56.5 143.5t34.5 148t11.5 137q0 119 -38.5 171t-107.5 52q-48 0 -92.5 -20t-84 -53t-73.5 -75.5t-59 -87.5l-150 -479q6 -35 23 -66.5t43.5 -56t63 -39
t83.5 -14.5z" />
    <glyph glyph-name="q" unicode="q" horiz-adv-x="1012" 
d="M246 -471q69 3 110 13t60 32q15 16 26.5 37t21 44.5t17 46.5t13.5 44l54 168l23 73.5l24 77l23.5 75l20.5 67.5l-4 2q-32 -52 -69 -95.5t-78 -74.5t-86 -48.5t-93 -17.5q-50 0 -97 14.5t-84 50.5t-59 98.5t-22 158.5q0 53 13.5 121.5t42 140.5t72 141.5t103.5 124
t136.5 88t171.5 33.5q49 0 89 -18t69.5 -45t47.5 -58t23 -57h4l96 166h86l-378 -1190q-16 -50 -22.5 -83.5t-6.5 -53.5q0 -34 23.5 -47.5t58.5 -18.5q19 -2 31 -3.5t22.5 -2t22.5 -1t30 -1.5l-2 -10h-536zM336 23q48 0 91.5 17t82.5 48t72.5 74.5t62.5 95.5l162 479
q-5 34 -23.5 66t-47.5 56.5t-68 39t-86 14.5q-62 0 -115.5 -32t-97 -85t-77 -122t-56.5 -143t-34.5 -148t-11.5 -137q0 -120 38.5 -171.5t107.5 -51.5z" />
    <glyph glyph-name="r" unicode="r" horiz-adv-x="813" 
d="M332 655q39 126 39 185q0 38 -16 55.5t-42 17.5q-36 0 -70.5 -21t-66 -59t-60 -90.5t-53.5 -115.5l-12 6q28 67 56.5 124.5t62.5 98.5t76 64.5t96 23.5q40 0 71 -16.5t48.5 -49t20 -81.5t-14.5 -113l4 -2q10 21 25 48.5t34.5 56.5t43 57.5t49.5 50.5t54.5 35.5t57.5 13.5
q53 0 83 -31.5t30 -74.5q0 -20 -6 -40t-17.5 -37t-29 -27.5t-41.5 -10.5q-48 0 -68.5 24.5t-17.5 55.5q1 15 8 26.5t15 20l14.5 15t7.5 12.5q3 22 -23 22q-25 0 -57 -26.5t-64 -67t-61.5 -88t-50.5 -90.5l-195 -627h-135z" />
    <glyph glyph-name="s" unicode="s" horiz-adv-x="741" 
d="M303 -29q-88 0 -145 23.5t-90 58.5t-45.5 75t-12.5 73q0 26 8.5 49t24 40.5t36 27.5t44.5 10q26 0 43 -8.5t26.5 -21t13 -27t3.5 -25.5q0 -12 -4 -26t-13 -26t-24.5 -20t-38.5 -8q-25 0 -37 -2.5t-12 -24.5q0 -21 13.5 -48t40.5 -51t68.5 -40t98.5 -16q46 0 86 14.5
t69.5 40t46.5 61t17 76.5q0 45 -15 79t-40 61.5t-56.5 51.5l-64.5 48q-32 22 -61.5 46.5t-53 54t-37.5 66t-14 83.5q0 52 22 102t61.5 89t93.5 63t118 24q52 0 89.5 -12t62.5 -30.5t40 -42t22.5 -46.5t10 -43t2.5 -33q0 -52 -24 -84t-72 -32q-13 0 -27 4.5t-26 13.5
t-19.5 23t-7.5 34q0 28 15 47t34 32t35.5 21.5t18.5 16.5q-1 9 -6 28.5t-21.5 39.5t-47 35.5t-81.5 15.5q-34 0 -68 -13t-61 -38t-44 -62.5t-17 -85.5q0 -37 13.5 -66.5t35.5 -55.5t50.5 -49l59.5 -46q33 -24 65 -50t57 -56.5t40.5 -67t15.5 -82.5q0 -55 -22 -107
t-62.5 -92.5t-99 -65t-131.5 -24.5z" />
    <glyph glyph-name="t" unicode="t" horiz-adv-x="633" 
d="M254 -23q-33 0 -63 7t-52.5 25t-35.5 48.5t-13 77.5q0 35 8 68.5t13 50.5q6 23 21.5 75.5l35.5 118l42 137.5l41 134.5l32.5 107t17.5 56.5h-199l11 28h198l90 318h129l-94 -318h262l-10 -28h-260l-31.5 -106.5l-36.5 -123l-38 -126.5l-34.5 -116.5l-27.5 -94t-16 -58.5
l-13 -47.5l-13 -47t-9.5 -41t-3.5 -30.5q0 -24 6 -40.5t16.5 -26t24.5 -13.5t29 -4q37 0 73 20.5t70 58t64.5 90.5t56.5 118l14 -4q-28 -68 -59 -125.5t-67.5 -99.5t-80.5 -65.5t-98 -23.5z" />
    <glyph glyph-name="u" unicode="u" horiz-adv-x="1174" 
d="M379 -27q-103 0 -158 62.5t-55 167.5q0 10 3 27.5t8 38t12 42.5t16 43l117 301q45 120 45 176q0 41 -17 60.5t-45 19.5q-36 0 -69.5 -19.5t-64 -56t-59 -89t-53.5 -117.5l-14 4q27 67 54.5 123.5t61 97.5t75 63.5t96.5 22.5q33 0 61.5 -9t49 -28t32.5 -49.5t12 -73.5
q0 -37 -11.5 -76.5t-31.5 -93.5l-125 -319q-36 -93 -36 -166q0 -47 27 -78t93 -31q52 0 98 19.5t85 51t71 72.5t56 83l211 671h139l-215 -651q-6 -18 -12 -40.5t-10.5 -45t-7.5 -44t-3 -38.5q0 -35 19.5 -58.5t48.5 -23.5q72 0 135.5 75t114.5 206l14 -6q-28 -69 -56.5 -126
t-63 -98t-77 -63.5t-96.5 -22.5q-87 0 -124 57t-15 175l-4 2q-29 -52 -67.5 -96t-82.5 -75.5t-90.5 -49t-91.5 -17.5z" />
    <glyph glyph-name="v" unicode="v" horiz-adv-x="1012" 
d="M444 -29q-49 0 -97.5 17t-86.5 51.5t-62 85.5t-24 119q0 151 100.5 297.5t286.5 304.5l-6 6q-48 -29 -87.5 -48.5t-73.5 -31.5t-64 -17t-58 -5q-45 0 -83 8t-60 22l-74 -209l-12 4l125 365h6q14 -28 37.5 -48.5t52 -34.5t59.5 -21t60 -7q40 0 75.5 6.5t69 20.5t66.5 35.5
t68 52.5l8 -8q-36 -34 -76 -79t-79.5 -97.5t-76 -111t-64.5 -121t-44.5 -127t-16.5 -128.5q0 -65 16 -110t44.5 -73t68 -41t86.5 -13q90 0 168 52t133 153q39 69 60.5 158t21.5 198q0 47 -17.5 75.5t-38.5 53.5t-38.5 53.5t-17.5 75.5q0 18 8 33.5t21 27t30.5 18.5t36.5 7
q26 0 42 -13.5t25 -34.5t12 -47t3 -52q0 -104 -15.5 -206t-46 -193t-76 -168.5t-104.5 -134t-132 -88.5t-159 -32z" />
    <glyph glyph-name="w" unicode="w" horiz-adv-x="1386" 
d="M383 -27q-42 0 -80.5 18.5t-68.5 54t-48 87t-18 117.5q0 76 29 152t79.5 151t118.5 148t146 143l-6 8q-42 -28 -77.5 -46.5t-68 -30t-62 -16.5t-57.5 -5q-45 0 -84.5 9.5t-58.5 20.5l-72 -202l-12 4l121 354h6q14 -28 40.5 -48.5t57.5 -34.5t61.5 -21t51.5 -7
q36 0 68.5 6t64 19.5t63 35t66.5 52.5l6 -6q-36 -36 -75.5 -84t-78 -104t-73 -119t-60.5 -128.5t-41.5 -131.5t-15.5 -129q0 -54 12 -93t31.5 -64.5t43.5 -37.5t48 -12q47 0 93.5 25.5t93.5 74.5q-19 47 -28 99.5t-9 103.5t15.5 115.5t42 132t61.5 132.5t74 115.5t79.5 81.5
t77.5 31q28 0 38.5 -30.5t10.5 -92.5q0 -54 -21 -126t-57 -152t-84.5 -164t-103.5 -162q18 -50 43.5 -84.5t53.5 -55.5t55 -30.5t47 -9.5q44 0 86 16t80.5 45.5t71.5 71t59 92.5q18 36 31.5 69t21.5 70.5t12 81.5t4 103q0 39 -9.5 65t-23 45.5t-30 35t-30 33t-23 39.5
t-9.5 54q0 15 6.5 30.5t18.5 28t28.5 20t36.5 7.5q32 0 51.5 -13t29.5 -35t13 -50.5t3 -59.5q0 -110 -16.5 -212.5t-47 -193.5t-74.5 -166t-99.5 -129t-121.5 -84t-141 -30q-81 0 -133.5 41t-83.5 107q-26 -30 -54.5 -56.5t-59.5 -46.5t-65 -31.5t-71 -11.5zM717 236
q46 66 88.5 139t75 144t52 134.5t19.5 110.5q0 49 -18 69.5t-43 20.5q-15 0 -30 -6t-29 -15.5t-26 -20.5t-20 -21q-42 -56 -65 -159t-23 -243q0 -40 4 -79t15 -74z" />
    <glyph glyph-name="x" unicode="x" horiz-adv-x="1040" 
d="M127 -25q-43 0 -74 11t-51 30.5t-29.5 44.5t-9.5 54q0 47 18 90t44.5 80t57 67t54.5 51l8 -8q-32 -74 -50.5 -150t-18.5 -149q0 -57 20.5 -80.5t53.5 -23.5q45 0 83 24.5t69.5 64t57.5 91t47 105.5t38 106.5l30 95.5q16 51 27.5 93.5t18.5 78t10.5 66t3.5 59.5
q0 42 -9 68.5t-23.5 41.5t-33 20t-37.5 5q-39 0 -78 -19.5t-75 -56t-68 -89t-57 -117.5l-15 4q28 67 60 124.5t71 98.5t84.5 64.5t100.5 23.5q32 0 65 -8t60 -34t44 -75.5t19 -132.5h6q16 42 43.5 86.5t64 81t80.5 59.5t93 23q30 0 57 -7.5t47.5 -25t32.5 -46t12 -70.5
t-14.5 -79.5t-36.5 -69t-48 -57.5t-48 -46l-6 6q12 21 24 54.5t21.5 72t15.5 78t6 73.5q0 19 -3.5 38t-12 33t-22 23t-33.5 9q-48 0 -88 -27t-73 -70.5t-59 -98.5t-46 -110t-34.5 -105t-23.5 -85q-22 -83 -34.5 -145.5t-12.5 -110.5q0 -46 9 -77.5t25 -50.5t39 -27.5
t52 -8.5q76 0 148 67t128 212l15 -4q-27 -69 -60 -126.5t-72.5 -99t-86 -65t-101.5 -23.5q-44 0 -83.5 11.5t-69 42t-45.5 83.5t-13 136h-8q-18 -42 -44.5 -90t-63 -88.5t-84.5 -67.5t-109 -27z" />
    <glyph glyph-name="y" unicode="y" horiz-adv-x="1061" 
d="M184 -489q-89 0 -139.5 20t-76 48t-32 57t-6.5 47q0 30 10.5 52.5t27.5 37.5t37.5 22.5t41.5 7.5q40 0 60 -22.5t20 -50.5q0 -21 -5.5 -34.5t-14 -22.5t-18.5 -13.5t-19 -7.5q-11 -3 -20.5 -5t-17 -5.5t-12 -10t-4.5 -18.5q0 -25 13.5 -42t35.5 -27.5t50 -15.5t57 -5
q108 0 191.5 51.5t150 145t118.5 224t97 289.5l-4 3q-29 -53 -67.5 -100.5t-84 -83.5t-95 -57.5t-99.5 -21.5q-51 0 -91 18.5t-67 50t-41 73.5t-14 88q0 10 3 27.5t8 38t12 42.5t16 43l117 301q21 54 33 101.5t12 74.5q0 41 -17 60.5t-45 19.5q-36 0 -69.5 -19.5t-64 -56
t-59 -89t-53.5 -117.5l-14 4q27 67 54.5 123.5t61 97.5t75 63.5t96.5 22.5q33 0 61.5 -9t49 -28t32.5 -49.5t12 -73.5q0 -37 -11.5 -76.5t-31.5 -93.5l-125 -319q-36 -93 -36 -166q0 -47 27 -78t93 -31q52 0 97.5 19.5t86 53.5t75.5 80.5t67 100.5l199 643h133l-215 -696
q-57 -183 -127.5 -316.5t-153.5 -220t-178.5 -128t-202.5 -41.5z" />
    <glyph glyph-name="z" unicode="z" horiz-adv-x="834" 
d="M6 -27q-20 0 -38.5 16t-18.5 54q0 35 32.5 72t81.5 78l120 98.5l159.5 130l187 147l201.5 148.5l-2 6q-45 -3 -95.5 8t-101.5 26t-99.5 27.5t-88.5 12.5q-68 0 -102.5 -25.5t-34.5 -73.5q0 -25 11 -46.5t29 -39t40 -30t45 -19.5l-6 -12q-30 10 -65.5 26t-66 39t-51 55
t-20.5 74q0 38 15 73t41 62t60.5 43.5t73.5 16.5q42 0 79 -15t70.5 -38t65 -49.5t62.5 -49.5t63 -38t66 -15q31 0 44.5 10.5t17.5 27t2.5 37t-1.5 40.5q0 45 20 68.5t46 23.5q18 0 31.5 -15t13.5 -46q0 -19 -4.5 -36t-17.5 -36t-36.5 -41.5t-60.5 -52.5l-649 -514l2 -6
q45 -3 85.5 -15.5l82.5 -26.5t88 -26.5t102 -13.5q88 -3 134.5 26.5t52.5 77.5q3 28 -4.5 50t-22 37.5t-33.5 25.5t-39 14l5 10q48 -10 79.5 -30t50 -45.5t26 -55.5t7.5 -59q0 -40 -16 -74.5t-42 -60t-59 -40t-67 -14.5q-45 0 -87.5 15.5t-82 38.5t-77 50t-73.5 50t-71 38.5
t-70 16.5q-20 -5 -27.5 -19t-9 -32t1 -39t2.5 -41q0 -15 -2.5 -29.5t-9 -26t-17.5 -18t-28 -6.5z" />
    <glyph glyph-name="bullet" unicode="&#x2022;" horiz-adv-x="819" 
d="M473 391q-48 0 -95.5 21.5t-85 59t-60.5 87.5t-23 107t23 107.5t60.5 88.5t85 60t95.5 22t95.5 -22t85 -60t60.5 -88.5t23 -107.5t-23 -107t-60.5 -87.5t-85 -59t-95.5 -21.5z" />
    <glyph glyph-name="registered" unicode="&#xae;" horiz-adv-x="958" 
d="M797 866q-31 0 -53.5 26t-28.5 79q-2 18 -7.5 37.5t-16.5 36t-28.5 27.5t-44.5 11h-40v-168q0 -11 3.5 -18t14.5 -12q6 -3 19 -4.5t22 -1.5v-7h-180v7q8 0 23 2t18 4q18 9 18 30v332q0 11 -3.5 19.5t-14.5 11.5q-10 3 -21.5 5.5t-19.5 2.5v6h209q23 0 46 -5t41.5 -16.5
t30 -29.5t11.5 -43q0 -26 -12.5 -43t-30.5 -29t-38.5 -19t-37.5 -11v-6q11 -2 25.5 -7t28 -13t24.5 -20.5t16 -29.5q6 -23 12 -51t13 -49q5 -16 13.5 -21.5t16.5 -5.5q16 0 24.5 13.5t8.5 45.5h8q0 -45 -13.5 -65.5t-55.5 -20.5zM641 694q-75 0 -142 28.5t-117 79t-79 118.5
t-29 147t29 147t79 118.5t117 79t142 28.5t142 -28.5t117 -79t79 -118.5t29 -147t-29 -147t-79 -118.5t-117 -79t-142 -28.5zM641 717q70 0 132 26.5t108.5 73.5t73 111t26.5 139t-26.5 139t-73 111t-108.5 73.5t-132 26.5q-71 0 -132.5 -26.5t-108 -73.5t-73 -111
t-26.5 -139t26.5 -139t73 -111t108 -73.5t132.5 -26.5zM616 1092q21 0 40.5 5t34 16t23.5 29t9 44t-7.5 44.5t-20 30.5t-28.5 17.5t-34 5.5h-55v-192h38z" />
    <glyph glyph-name="copyright" unicode="&#xa9;" horiz-adv-x="1923" 
d="M989 27q-105 0 -192.5 33.5t-150 95.5t-97.5 150.5t-35 199.5q0 106 38 197t105.5 158t160 105t200.5 38q27 0 64 -5t74 -14t69.5 -20.5t50.5 -24.5l45 78h8l8 -371h-8q-19 57 -47.5 117t-70.5 109.5t-99 81.5t-133 32q-53 0 -105 -30t-93.5 -89t-67 -147t-25.5 -205
q0 -95 27.5 -173.5t74 -134t108.5 -86t132 -30.5q64 0 115.5 20.5t92 54t71.5 77t53 88.5l10 -8q-24 -53 -58.5 -106t-81.5 -95.5t-107.5 -69t-135.5 -26.5zM977 -371q-118 0 -229 31.5t-209 89.5t-179.5 139t-140 179t-91 211t-32.5 235q0 121 32.5 233t91 210t139.5 178.5
t179 138.5t209.5 89.5t229.5 31.5q117 0 228 -31.5t208.5 -89.5t178.5 -138.5t139.5 -178.5t91 -210t32.5 -233q0 -122 -32.5 -235t-91 -211t-139.5 -179t-178.5 -139t-208.5 -89.5t-228 -31.5zM977 -322q110 0 214.5 30t196 84.5t168 130.5t131 169t85 200t30.5 222
q0 114 -30.5 220t-85 198.5t-131 168.5t-168 130.5t-196 84.5t-214.5 30q-112 0 -216.5 -30t-196.5 -84.5t-168 -130.5t-131 -168.5t-85 -198.5t-30 -220q0 -115 30.5 -222t85 -200t131 -169t168.5 -130.5t196.5 -84.5t215.5 -30z" />
    <glyph glyph-name="trademark" unicode="&#x2122;" horiz-adv-x="1288" 
d="M811 891q4 1 14 2t21.5 3t22.5 5t18 8q24 16 24 101v301q0 47 -22 61q-16 9 -37 16t-35 7v4h174l156 -395l115 327q6 17 10 35.5t6 32.5h178v-4q-5 0 -13 -1.5t-17.5 -3.5t-18.5 -4.5t-14 -3.5q-21 -8 -21 -34v-408q0 -27 21 -35q4 -2 12.5 -4.5t18.5 -4l19.5 -3
t14.5 -2.5v-4h-260v4q4 1 15.5 2t23.5 2.5t22.5 3.5t14.5 4q20 11 20 37v410h-12l-160 -457h-8l-39 106l-141 351h-10v-334q0 -44 6.5 -67.5t17.5 -33.5q6 -5 17.5 -9t24 -7t23 -5l15.5 -3v-4h-217v4zM377 891q5 1 14.5 1.5t19.5 2t19 3t14 3.5q25 9 25 33v455h-31h-16
t-21 -0.5l-21.5 -1t-17.5 -1.5q-12 -2 -25 -19.5t-24.5 -40t-20 -45t-11.5 -34.5h-5v152h461v-152h-4l-12 34.5t-19 45t-24 40t-25 19.5q-14 2 -29 2.5t-30 0.5h-45v-451q0 -26 22 -35l66 -12v-4h-260v4z" />
    <glyph glyph-name="acute" unicode="&#xb4;" 
d="M496 1092l81.5 87.5l82 91l72.5 83l54 63.5q32 38 63 58t66 20q28 0 44 -17t16 -38q0 -35 -27 -62t-65 -53l-67.5 -42l-94 -58l-108.5 -68l-111 -72z" />
    <glyph glyph-name="dieresis" unicode="&#xa8;" 
d="M492 1202q-44 0 -65 27.5t-21 62.5q0 22 8 43t23.5 37t37.5 25.5t49 9.5q18 0 32.5 -8t25 -20.5t16.5 -28.5t6 -31q0 -22 -7.5 -43t-22 -37.5t-35 -26.5t-47.5 -10zM887 1202q-44 0 -65 27.5t-21 62.5q0 22 8 43t23.5 37t37.5 25.5t50 9.5q18 0 32.5 -8t25 -20.5
t16 -28.5t5.5 -31q0 -22 -7.5 -43t-22 -37.5t-35 -26.5t-47.5 -10z" />
    <glyph glyph-name="ellipsis" unicode="&#x2026;" horiz-adv-x="1266" 
d="M172 -16q-23 0 -43.5 8.5t-36 23.5t-24.5 35.5t-9 44.5q0 23 9 43.5t24.5 36t36 24.5t43.5 9q24 0 44.5 -9t36 -24.5t24 -36t8.5 -43.5q0 -24 -8.5 -44.5t-24 -35.5t-36 -23.5t-44.5 -8.5zM594 -16q-23 0 -43.5 8.5t-36 23.5t-24.5 35.5t-9 44.5q0 23 9 43.5t24.5 36
t36 24.5t43.5 9q24 0 44.5 -9t35.5 -24.5t24 -36t9 -43.5q0 -24 -9 -44.5t-24 -35.5t-35.5 -23.5t-44.5 -8.5zM1016 -16q-23 0 -43.5 8.5t-36 23.5t-24.5 35.5t-9 44.5q0 23 9 43.5t24.5 36t36 24.5t43.5 9q24 0 44.5 -9t35.5 -24.5t23.5 -36t8.5 -43.5q0 -48 -32 -80
t-80 -32z" />
    <glyph glyph-name="endash" unicode="&#x2013;" horiz-adv-x="1114" 
d="M139 565h910l-27 -90h-909z" />
    <glyph glyph-name="emdash" unicode="&#x2014;" horiz-adv-x="1810" 
d="M137 565h1608l-25 -90h-1607z" />
    <glyph glyph-name="quotedblleft" unicode="&#x201c;" horiz-adv-x="688" 
d="M309 975q-51 0 -80.5 35t-29.5 94q0 43 14.5 89.5t49.5 92.5t93.5 90.5t147.5 83.5l4 -10q-87 -45 -150 -109.5t-92 -152.5h68q58 0 82 -27t24 -61q0 -24 -9.5 -46.5t-27 -40t-41.5 -28t-53 -10.5zM657 975q-51 0 -80.5 35t-29.5 94q0 43 14.5 89.5t49.5 92.5t93.5 90.5
t147.5 83.5l4 -10q-87 -45 -150 -109.5t-92 -152.5h68q58 0 82 -27t24 -61q0 -24 -9.5 -46.5t-27 -40t-41.5 -28t-53 -10.5z" />
    <glyph glyph-name="quotedblright" unicode="&#x201d;" horiz-adv-x="688" 
d="M252 1034q87 45 150 109.5t92 152.5h-68q-29 0 -49.5 7.5t-33.5 19.5t-18.5 28t-5.5 33q0 24 9.5 46.5t27 40t42 28t53.5 10.5q51 0 80.5 -35t29.5 -94q0 -43 -14.5 -89t-49.5 -92.5t-94 -91t-147 -83.5zM600 1034q87 45 150 109.5t92 152.5h-68q-29 0 -49.5 7.5
t-33 19.5t-18 28t-5.5 33q0 24 9.5 46.5t26.5 40t41.5 28t53.5 10.5q51 0 80.5 -35t29.5 -94q0 -43 -14.5 -89t-49.5 -92.5t-94 -91t-147 -83.5z" />
    <glyph glyph-name="quoteleft" unicode="&#x2018;" horiz-adv-x="340" 
d="M309 975q-51 0 -80.5 35t-29.5 94q0 43 14.5 89.5t49.5 92.5t93.5 90.5t147.5 83.5l4 -10q-87 -45 -150 -109.5t-92 -152.5h68q58 0 82 -27t24 -61q0 -24 -9.5 -46.5t-27 -40t-41.5 -28t-53 -10.5z" />
    <glyph glyph-name="quoteright" unicode="&#x2019;" horiz-adv-x="340" 
d="M252 1034q87 45 150 109.5t92 152.5h-68q-29 0 -49.5 7.5t-33.5 19.5t-18.5 28t-5.5 33q0 24 9.5 46.5t27 40t42 28t53.5 10.5q51 0 80.5 -35t29.5 -94q0 -43 -14.5 -89t-49.5 -92.5t-94 -91t-147 -83.5z" />
    <glyph glyph-name="periodcentered" unicode="&#xb7;" horiz-adv-x="578" 
d="M309 426q-27 0 -51.5 10t-42.5 27.5t-28.5 41.5t-10.5 52t10.5 52t28.5 42t42.5 28.5t51.5 10.5q28 0 52 -10.5t42 -28.5t28.5 -42t10.5 -52t-10.5 -52t-28.5 -41.5t-42 -27.5t-52 -10z" />
    <glyph glyph-name="periodcentered" unicode="&#x2219;" horiz-adv-x="578" 
d="M309 426q-27 0 -51.5 10t-42.5 27.5t-28.5 41.5t-10.5 52t10.5 52t28.5 42t42.5 28.5t51.5 10.5q28 0 52 -10.5t42 -28.5t28.5 -42t10.5 -52t-10.5 -52t-28.5 -41.5t-42 -27.5t-52 -10z" />
    <glyph glyph-name="circumflex" unicode="&#x2c6;" 
d="M365 1092l86.5 95.5l93 103l84 93.5l59.5 68q11 12 19 20t17 12t21 5.5t31 1.5q16 0 26 -1.5t16.5 -5t10.5 -10.5t9 -18l155 -366l-8 -5l-231 287l-381 -287z" />
    <glyph glyph-name="tilde" unicode="&#x2dc;" 
d="M295 1143q8 14 23.5 38t36 51.5t45.5 56t52.5 51t57.5 37t61 14.5q32 0 57.5 -8.5t47 -21.5t40.5 -28.5t38 -28.5t39.5 -21.5t44.5 -8.5q34 0 68.5 17.5t64.5 42.5t53 51.5t35 44.5l10 -5l-27.5 -45.5t-37.5 -55t-45.5 -56.5t-52.5 -50.5t-57.5 -36.5t-60.5 -14
q-29 0 -53.5 8.5t-46 21.5t-41 28.5t-39.5 28.5t-41 21.5t-45 8.5q-35 0 -68.5 -16t-63 -38.5t-51.5 -47.5t-34 -43z" />
    <glyph glyph-name="macron" unicode="&#xaf;" 
d="M399 1333h676l-26 -100h-676z" />
    <glyph glyph-name="macron" unicode="&#x304;" 
d="M399 1333h676l-26 -100h-676z" />
    <glyph glyph-name="breve" unicode="&#x2d8;" 
d="M688 1104q-48 0 -87.5 33t-67.5 86t-44 119.5t-18 134.5l10 4q7 -33 24 -76.5t45.5 -82.5t69.5 -66t97 -27q51 0 102.5 24.5t99.5 61.5t88.5 81.5t69.5 84.5l8 -4q-35 -68 -83 -134.5t-101 -119.5t-108 -86t-105 -33z" />
    <glyph glyph-name="dotaccent" unicode="&#x2d9;" 
d="M735 1225q-24 0 -45 9.5t-37 25t-25.5 36.5t-9.5 45q0 25 9.5 47t25.5 38.5t37 26t45 9.5q27 0 49.5 -9t39 -24.5t25.5 -36t9 -42.5q0 -26 -9.5 -48.5t-26 -39.5t-39 -27t-48.5 -10z" />
    <glyph glyph-name="ring" unicode="&#x2da;" 
d="M700 1085q-43 0 -80 12.5t-64.5 34.5t-43.5 52.5t-16 66.5q0 51 23 93t59.5 72t83 46.5t94.5 16.5q41 0 77.5 -12t63.5 -34t43 -53.5t16 -70.5q0 -47 -21 -88t-56.5 -71t-82 -47.5t-96.5 -17.5zM696 1102q40 0 71.5 22.5t53.5 57t33.5 75t11.5 76.5q0 56 -26.5 92.5
t-81.5 36.5q-39 0 -70.5 -22.5t-53.5 -57t-34 -76t-12 -79.5q0 -53 26.5 -89t81.5 -36z" />
    <glyph glyph-name="cedilla" unicode="&#xb8;" 
d="M123 -453q57 1 114 12t102.5 31t74 48t28.5 63q0 42 -37.5 56t-117.5 14l80 245h16l-41 -129q37 0 76 -6.5t71 -21.5t53 -40.5t21 -64.5q0 -59 -40.5 -100.5t-104 -68t-142.5 -38.5t-157 -12z" />
    <glyph glyph-name="hungarumlaut" unicode="&#x2dd;" 
d="M281 1114l80 89l81 89.5l72.5 81.5t54.5 64q35 43 62.5 62.5t62.5 19.5q25 0 38 -16.5t13 -35.5q0 -35 -25 -63t-61 -51l-67 -43.5l-92 -61l-105.5 -70.5l-107.5 -71zM651 1114l81.5 89l82.5 89.5l74 81.5t55 64q35 43 62.5 62.5t62.5 19.5q25 0 38 -16.5t13 -35.5
q0 -35 -25.5 -63t-60.5 -51l-67.5 -43.5l-93.5 -61l-107.5 -70.5l-108.5 -71z" />
    <glyph glyph-name="ogonek" unicode="&#x2db;" 
d="M397 -463q-66 0 -123 8.5t-98.5 26.5t-65.5 45.5t-24 65.5q0 39 19.5 76t63.5 75t114 78.5t172 87.5h10q-72 -52 -120 -95.5t-78 -80t-43.5 -66.5t-14.5 -55q-2 -24 7 -50t31 -47.5t59.5 -37.5t94.5 -21l-4 -10v0z" />
    <glyph glyph-name="caron" unicode="&#x2c7;" 
d="M674 1104q-16 0 -26 1.5t-16.5 5t-10.5 10.5t-9 18l-155 366l8 4l231 -286l381 286l8 -6l-86.5 -96.5l-93 -103l-84 -93.5l-59.5 -67q-11 -12 -19 -20t-17 -12t-21 -5.5t-31 -1.5z" />
    <glyph glyph-name="Eth" unicode="&#xd0;" horiz-adv-x="1485" 
d="M-55 8l34 2.5t43.5 4.5t42.5 6.5t31 7.5q41 14 59 38t29 62l164 590h-215l10 35h215l140 499q3 15 5 30t0 28.5t-11 25t-27 19.5q-16 7 -35.5 13t-38 10.5t-35.5 7.5t-28 4l2 8h579q105 0 205 -28t177 -92t124 -168t47 -255q0 -134 -34 -249.5t-96 -211t-148 -169
t-190.5 -124t-224 -76.5t-247.5 -26h-579zM535 14q105 0 202.5 28t182 80.5t154 126.5t119 165.5t76.5 198.5t27 225q0 140 -29.5 243t-86.5 170.5t-140.5 100t-191.5 32.5q-1 0 -20 -0.5t-45 -1l-53 -1t-44 -1.5l-176 -626h340l-10 -35h-340l-152 -547q-12 -44 -8.5 -74
t26 -49t64 -27t105.5 -8z" />
    <glyph glyph-name="eth" unicode="&#xf0;" horiz-adv-x="936" 
d="M336 -29q-48 0 -98 20t-90.5 63.5t-66.5 111.5t-26 164q0 57 17 125t49 136t78.5 132t105.5 113t129.5 78.5t151.5 29.5q29 0 60 -8t59 -23t51 -37.5t37 -50.5h4q12 122 -4.5 243.5t-79.5 248.5l-224 -176l-18 28l225 179q-28 43 -62.5 87t-74.5 78l10 11q53 -32 96 -67
t78 -73l193 152l20 -29l-190 -149q54 -62 87.5 -126.5t53 -128.5t26.5 -124.5t7 -112.5q0 -122 -19.5 -236t-57 -213.5t-90.5 -181.5t-120.5 -140.5t-147 -91t-169.5 -32.5zM367 -14q59 0 110 30.5t92.5 82t73.5 117.5t54 137.5t33 143t11 132.5q0 73 -12.5 129.5t-35 94.5
t-52.5 57.5t-66 19.5q-59 0 -109.5 -30t-92.5 -80t-74.5 -115t-54.5 -136t-33.5 -143t-11.5 -135q0 -80 12.5 -137.5t35 -95t53.5 -55t67 -17.5z" />
    <glyph glyph-name="Lslash" unicode="&#x141;" horiz-adv-x="1257" 
d="M-72 8q11 0 34.5 2t49.5 5.5t50.5 8t37.5 9.5q39 14 59 40.5t29 61.5l142 508l-64.5 -20.5l-74.5 -23.5l-87 -28l-10 31l94 31l81 26t71 23l158 569q4 16 6 31t-0.5 28.5t-11.5 25t-27 20.5q-12 5 -32.5 11t-43 11t-43.5 8.5t-35 4.5l4 8h590l-4 -8q-15 -1 -36 -3.5
t-43 -6t-43 -7.5t-36 -8q-40 -12 -60 -41t-30 -61l-147 -531l403 133l9 -32l-168 -56l-70 -24l-70 -23.5l-63.5 -21.5l-50.5 -17l-138 -491q-16 -59 -18.5 -96t17 -57t66.5 -27t130 -7q45 0 97.5 1t101 5t87 11.5t54.5 19.5q27 21 66.5 64t80 94t76 102t55.5 86h11
l-138 -397h-1120z" />
    <glyph glyph-name="lslash" unicode="&#x142;" horiz-adv-x="561" 
d="M236 -23q-33 0 -62.5 7t-51 25t-34 48.5t-12.5 77.5q0 37 11.5 81.5t25.5 90.5l98 311l-170 -55l-8 27l188 63l199 625q17 53 23 85t6 52q0 34 -24 47.5t-58 18.5q-39 4 -68 5t-66 3v10l400 21l-264 -824l215 74l8 -29l-234 -79l-129 -404q-10 -31 -17 -55t-12 -45
t-7.5 -39.5t-2.5 -38.5q0 -37 20 -54.5t54 -17.5q37 0 70.5 19.5t65 56.5t60 89.5t54.5 117.5l14 -4q-27 -69 -56 -126t-63 -98t-76.5 -63.5t-96.5 -22.5z" />
    <glyph glyph-name="Scaron" unicode="&#x160;" horiz-adv-x="1069" 
d="M438 -27q-57 0 -114 11t-107 27.5t-89.5 36.5t-61.5 38l-103 -106h-12l115 479h10q12 -101 39.5 -186t75 -147t117 -97t167.5 -35q91 0 161.5 29.5t117.5 77.5t71.5 108t24.5 121q0 45 -7.5 79t-24 61.5t-42 51t-61.5 47.5q-71 47 -144.5 86t-144.5 88q-78 56 -122 123
t-44 154q0 81 35 154.5t97.5 129t149 88.5t189.5 33q45 0 92.5 -9.5t89.5 -25.5t76.5 -35.5t54.5 -39.5l97 104h14l-117 -465h-10q-6 101 -26 184.5t-58.5 143t-96.5 92.5t-140 33q-64 0 -123 -22.5t-104 -62.5t-72 -95.5t-27 -122.5q0 -41 7.5 -73.5t23.5 -60t41.5 -53
t62.5 -51.5q34 -24 69.5 -44.5l72 -41.5l73.5 -43t74 -47q80 -54 124 -118.5t44 -151.5q0 -99 -41.5 -181t-113.5 -141.5t-169.5 -92t-210.5 -32.5zM789 1495q-16 0 -26 1.5t-16.5 5t-10.5 10.5t-9 18l-155 366l8 4l231 -286l381 286l8 -6l-86.5 -96.5l-93 -103l-84 -93.5
l-59.5 -67q-11 -12 -19 -20t-17 -12t-21 -5.5t-31 -1.5z" />
    <glyph glyph-name="scaron" unicode="&#x161;" horiz-adv-x="741" 
d="M303 -29q-88 0 -145 23.5t-90 58.5t-45.5 75t-12.5 73q0 26 8.5 49t24 40.5t36 27.5t44.5 10q26 0 43 -8.5t26.5 -21t13 -27t3.5 -25.5q0 -12 -4 -26t-13 -26t-24.5 -20t-38.5 -8q-25 0 -37 -2.5t-12 -24.5q0 -21 13.5 -48t40.5 -51t68.5 -40t98.5 -16q46 0 86 14.5
t69.5 40t46.5 61t17 76.5q0 45 -15 79t-40 61.5t-56.5 51.5l-64.5 48q-32 22 -61.5 46.5t-53 54t-37.5 66t-14 83.5q0 52 22 102t61.5 89t93.5 63t118 24q52 0 89.5 -12t62.5 -30.5t40 -42t22.5 -46.5t10 -43t2.5 -33q0 -52 -24 -84t-72 -32q-13 0 -27 4.5t-26 13.5
t-19.5 23t-7.5 34q0 28 15 47t34 32t35.5 21.5t18.5 16.5q-1 9 -6 28.5t-21.5 39.5t-47 35.5t-81.5 15.5q-34 0 -68 -13t-61 -38t-44 -62.5t-17 -85.5q0 -37 13.5 -66.5t35.5 -55.5t50.5 -49l59.5 -46q33 -24 65 -50t57 -56.5t40.5 -67t15.5 -82.5q0 -55 -22 -107
t-62.5 -92.5t-99 -65t-131.5 -24.5zM534 1104q-16 0 -26 1.5t-16.5 5t-10.5 10.5t-9 18l-155 366l8 4l231 -286l381 286l8 -6l-86.5 -96.5l-93 -103l-84 -93.5l-59.5 -67q-11 -12 -19 -20t-17 -12t-21 -5.5t-31 -1.5z" />
    <glyph glyph-name="Yacute" unicode="&#xdd;" horiz-adv-x="1255" 
d="M242 8l33 2.5t41 4.5t40 6.5t31 7.5q20 7 34.5 18.5t24.5 25t16 28.5t9 28l133 537q9 34 14.5 72t9.5 75.5t5.5 71.5t1.5 59q0 70 -14 137.5t-45.5 120.5t-81.5 86t-123 33q-36 0 -72 -14t-68 -41t-58.5 -67.5t-43.5 -94.5l-12 4q106 315 356 315q78 0 132.5 -36
t88.5 -95t49 -134t15 -154q0 -27 -2 -60t-5 -68t-7 -69.5t-9 -65.5h19q56 167 127 294.5t149 214t158.5 131t154.5 44.5q54 0 87.5 -26.5t33.5 -69.5q0 -25 -8.5 -43.5t-22 -30.5t-30.5 -18t-35 -6q-24 0 -39.5 7t-25 17.5t-13.5 22t-4 20.5q0 20 8.5 43t18.5 35l-8 8
q-55 -6 -130 -51.5t-152 -131.5t-146.5 -213.5t-112.5 -297.5l-139 -553q-3 -12 -5 -22.5t-2 -18.5q2 -21 13.5 -34.5t34.5 -24.5q7 -4 28.5 -9t47 -9.5t50.5 -7.5t39 -3l-2 -8h-589zM738 1483l81.5 87.5l82 91l72.5 83l54 63.5q32 38 63 58t66 20q28 0 44 -17t16 -38
q0 -35 -27 -62t-65 -53l-67.5 -42l-94 -58l-108.5 -68l-111 -72z" />
    <glyph glyph-name="yacute" unicode="&#xfd;" horiz-adv-x="1061" 
d="M184 -489q-89 0 -139.5 20t-76 48t-32 57t-6.5 47q0 30 10.5 52.5t27.5 37.5t37.5 22.5t41.5 7.5q40 0 60 -22.5t20 -50.5q0 -21 -5.5 -34.5t-14 -22.5t-18.5 -13.5t-19 -7.5q-11 -3 -20.5 -5t-17 -5.5t-12 -10t-4.5 -18.5q0 -25 13.5 -42t35.5 -27.5t50 -15.5t57 -5
q108 0 191.5 51.5t150 145t118.5 224t97 289.5l-4 3q-29 -53 -67.5 -100.5t-84 -83.5t-95 -57.5t-99.5 -21.5q-51 0 -91 18.5t-67 50t-41 73.5t-14 88q0 10 3 27.5t8 38t12 42.5t16 43l117 301q21 54 33 101.5t12 74.5q0 41 -17 60.5t-45 19.5q-36 0 -69.5 -19.5t-64 -56
t-59 -89t-53.5 -117.5l-14 4q27 67 54.5 123.5t61 97.5t75 63.5t96.5 22.5q33 0 61.5 -9t49 -28t32.5 -49.5t12 -73.5q0 -37 -11.5 -76.5t-31.5 -93.5l-125 -319q-36 -93 -36 -166q0 -47 27 -78t93 -31q52 0 97.5 19.5t86 53.5t75.5 80.5t67 100.5l199 643h133l-215 -696
q-57 -183 -127.5 -316.5t-153.5 -220t-178.5 -128t-202.5 -41.5zM549 1092l81.5 87.5l82 91l72.5 83l54 63.5q32 38 63 58t66 20q28 0 44 -17t16 -38q0 -35 -27 -62t-65 -53l-67.5 -42l-94 -58l-108.5 -68l-111 -72z" />
    <glyph glyph-name="Thorn" unicode="&#xde;" horiz-adv-x="1204" 
d="M-55 8l34 2.5t43.5 4.5t42.5 6.5t31 7.5q41 14 60 41t28 59l314 1124q8 32 5 58t-38 45q-11 4 -29.5 10t-38.5 11t-39 9t-30 5l2 8h561l-2 -10l-34 -4.5t-39 -6l-39 -7t-34 -7.5q-40 -12 -60 -41t-30 -61l-43 -148h172q100 0 173 -21.5t120.5 -61.5t70.5 -95.5t23 -122.5
q0 -102 -45.5 -183t-129 -137t-202 -86t-264.5 -30h-122l-68 -242q-9 -31 -2 -56t39 -40q7 -4 25 -9t39.5 -9.5t42.5 -8t36 -4.5l-2 -8h-573zM537 393q111 0 198 27.5t147 79.5t91 126.5t31 168.5q0 66 -16 121.5t-50 96t-87 63t-126 22.5h-119l-194 -705h125z" />
    <glyph glyph-name="thorn" unicode="&#xfe;" horiz-adv-x="981" 
d="M-303 -471q35 1 59 4.5t40 8.5t26.5 13t19.5 19q15 16 26.5 38t21 45.5t17 47l13.5 41.5l488 1530q17 51 23.5 84t6.5 53q0 34 -24 47.5t-58 18.5q-38 5 -67 6.5l-66 3.5v10l398 21l-218 -662q-18 -51 -29.5 -80.5l-25.5 -62.5l4 -2q31 46 67.5 88t77.5 73.5t86 50.5
t93 19q50 0 97 -15.5t84 -52.5t59 -98.5t22 -154.5q0 -53 -13.5 -122t-42 -141t-72 -141.5t-103.5 -124t-136.5 -88t-171.5 -33.5q-49 0 -86 17t-63.5 43.5t-43 59t-24.5 63.5h-4l-125 -414q-14 -48 -21 -82.5t-7 -54.5q0 -34 24 -47.5t60 -18.5l33.5 -3.5t27.5 -2l27 -1
t32 -1.5l-2 -10h-532zM403 4q62 0 115.5 32t97 85t77 122.5t56.5 143.5t34.5 148t11.5 137q0 119 -38.5 171t-107.5 52q-48 0 -92.5 -20t-84 -53t-73.5 -75.5t-59 -87.5l-150 -479q6 -35 23 -66.5t43.5 -56t63 -39t83.5 -14.5z" />
    <glyph glyph-name="Zcaron" unicode="&#x17d;" horiz-adv-x="1190" 
d="M-123 16l1301 1368h-406q-53 0 -99.5 -2t-78.5 -8q-29 -6 -62 -26.5t-66.5 -51t-66.5 -67.5t-62 -74.5l-53.5 -72l-41.5 -60.5h-9l140 377h993l-4 -13l-1305 -1372h437q46 0 95 2.5t93.5 9t81 17t57.5 25.5q40 31 83.5 77.5t83.5 96.5t73.5 97.5t54.5 80.5h8l-149 -420
h-1102zM883 1495q-16 0 -26 1.5t-16.5 5t-10.5 10.5t-9 18l-155 366l8 4l231 -286l381 286l8 -6l-86.5 -96.5l-93 -103l-84 -93.5l-59.5 -67q-11 -12 -19 -20t-17 -12t-21 -5.5t-31 -1.5z" />
    <glyph glyph-name="zcaron" unicode="&#x17e;" horiz-adv-x="834" 
d="M6 -27q-20 0 -38.5 16t-18.5 54q0 35 32.5 72t81.5 78l120 98.5l159.5 130l187 147l201.5 148.5l-2 6q-45 -3 -95.5 8t-101.5 26t-99.5 27.5t-88.5 12.5q-68 0 -102.5 -25.5t-34.5 -73.5q0 -25 11 -46.5t29 -39t40 -30t45 -19.5l-6 -12q-30 10 -65.5 26t-66 39t-51 55
t-20.5 74q0 38 15 73t41 62t60.5 43.5t73.5 16.5q42 0 79 -15t70.5 -38t65 -49.5t62.5 -49.5t63 -38t66 -15q31 0 44.5 10.5t17.5 27t2.5 37t-1.5 40.5q0 45 20 68.5t46 23.5q18 0 31.5 -15t13.5 -46q0 -19 -4.5 -36t-17.5 -36t-36.5 -41.5t-60.5 -52.5l-649 -514l2 -6
q45 -3 85.5 -15.5l82.5 -26.5t88 -26.5t102 -13.5q88 -3 134.5 26.5t52.5 77.5q3 28 -4.5 50t-22 37.5t-33.5 25.5t-39 14l5 10q48 -10 79.5 -30t50 -45.5t26 -55.5t7.5 -59q0 -40 -16 -74.5t-42 -60t-59 -40t-67 -14.5q-45 0 -87.5 15.5t-82 38.5t-77 50t-73.5 50t-71 38.5
t-70 16.5q-20 -5 -27.5 -19t-9 -32t1 -39t2.5 -41q0 -15 -2.5 -29.5t-9 -26t-17.5 -18t-28 -6.5zM579 1104q-16 0 -26 1.5t-16.5 5t-10.5 10.5t-9 18l-155 366l8 4l231 -286l381 286l8 -6l-86.5 -96.5l-93 -103l-84 -93.5l-59.5 -67q-11 -12 -19 -20t-17 -12t-21 -5.5
t-31 -1.5z" />
    <glyph glyph-name="onehalf" unicode="&#xbd;" horiz-adv-x="1081" 
d="M6 -408l142 78l114.5 64.5t98.5 61t94 67.5q70 54 115 101t70 89.5t34.5 82t9.5 79.5q0 29 -9 55t-26.5 45t-44 30t-61.5 11q-53 0 -108 -22.5t-100.5 -58.5t-74.5 -80.5t-29 -88.5q0 -17 4.5 -33t16 -28t30 -19.5t46.5 -7.5q32 0 59.5 11.5t51 28.5t42 36.5l33.5 36.5
l8 -8q-24 -31 -52.5 -60.5t-61.5 -53t-71 -38t-83 -14.5q-56 0 -90.5 33t-34.5 84q0 36 18.5 72.5t50 69.5t73.5 62t89.5 50t98 33t98.5 12q65 0 114.5 -18.5t82.5 -49t50 -69t17 -78.5q0 -58 -27 -111t-88.5 -105t-161.5 -103t-247 -105l-152 -86h412q27 0 54 14.5
t54.5 37.5t54.5 52l54 58l8 -7l-200 -268h-590zM381 705q12 1 31.5 2t40.5 2.5t39 3.5t26 4q23 6 42.5 24t25.5 41l176 662q-14 -3 -31.5 -4.5t-40.5 -1.5q-40 0 -82.5 16t-72.5 45l4 8q27 -15 69 -23.5t80 -8.5q43 0 78 5t64.5 13.5t53.5 19t46 21.5h12q-12 -21 -22.5 -47
t-19.5 -54t-16.5 -56l-13.5 -52l-143 -537q-6 -21 0.5 -39t28.5 -26q7 -3 25 -6t38.5 -5.5t40 -4t29.5 -2.5l-4 -11h-506zM111 551h931l-12 -43h-932z" />
    <glyph glyph-name="onequarter" unicode="&#xbc;" horiz-adv-x="1081" 
d="M510 -297q-28 4 -59 15l-64 22.5t-68 20t-71 8.5q-28 0 -39 -2.5t-21 -4.5q-29 -31 -63 -46t-62 -15q-23 0 -37 9.5t-14 29.5q0 26 25.5 38.5t56.5 12.5q14 0 42 -1.5t52 -6.5q45 35 81.5 93.5t68 136t59.5 170.5t56 198h159q-29 -95 -70 -183.5t-93 -166t-113 -142
t-129 -110.5q15 2 42 6t46 4q30 0 62.5 -2.5t63.5 -5.5t58.5 -6.5t48.5 -5.5l103 280h117l-103 -280q21 2 44 8.5t46 16.5t44 23.5t36 30.5l8 -6q-37 -48 -86.5 -86t-109.5 -49l-70 -199h-113zM381 705q12 1 31.5 2t40.5 2.5t39 3.5t26 4q23 6 42.5 24t25.5 41l176 662
q-14 -3 -31.5 -4.5t-40.5 -1.5q-40 0 -82.5 16t-72.5 45l4 8q27 -15 69 -23.5t80 -8.5q43 0 78 5t64.5 13.5t53.5 19t46 21.5h12q-12 -21 -22.5 -47t-19.5 -54t-16.5 -56l-13.5 -52l-143 -537q-6 -21 0.5 -39t28.5 -26q7 -3 25 -6t38.5 -5.5t40 -4t29.5 -2.5l-4 -11h-506z
M119 551h932l-13 -43h-932z" />
    <glyph glyph-name="onesuperior" unicode="&#xb9;" horiz-adv-x="674" 
d="M111 705q11 1 30.5 2t40.5 2.5t39 3.5t27 4q23 6 42 24t25 41l177 662q-14 -3 -31.5 -4.5t-40.5 -1.5q-40 0 -82.5 16t-73.5 45l4 8q28 -15 70 -23.5t80 -8.5q43 0 78 5t64 13.5t53.5 19t45.5 21.5h13q-12 -21 -22.5 -47t-19.5 -54t-16.5 -56l-13.5 -52l-143 -537
q-6 -21 0.5 -39t27.5 -26q8 -3 26 -6t38.5 -5.5t39.5 -4t29 -2.5l-4 -11h-505z" />
    <glyph glyph-name="threequarters" unicode="&#xbe;" horiz-adv-x="1081" 
d="M535 680q-53 0 -100.5 11t-83 32t-56.5 51.5t-21 69.5q0 33 12.5 58.5t31.5 43t40 26.5t39 9q41 0 59.5 -17.5t18.5 -43.5q0 -32 -14.5 -46t-32.5 -22t-35 -16.5t-22 -28.5q-5 -17 1.5 -36.5t25.5 -36t49.5 -27.5t74.5 -11q64 0 125.5 26t109 71t76.5 105t29 128
q0 22 -4 42.5t-13.5 36t-25.5 25t-41 9.5q-15 0 -34 -9t-41 -23t-46 -31l-49 -34l-18 33q92 45 160.5 75.5t113.5 62.5t67.5 72.5t22.5 105.5q0 60 -34 91t-91 31q-44 0 -88.5 -15.5t-80 -42t-58 -61.5t-22.5 -75q0 -26 19.5 -46t64.5 -20q35 0 61.5 17.5t46.5 34.5l6 -9
q-18 -18 -37.5 -34t-41 -28.5t-45.5 -20t-52 -7.5q-35 0 -58.5 7.5t-38.5 20t-21.5 28.5t-6.5 34q0 52 36 95t91 73.5t121 47t127 16.5q69 0 114.5 -17t72 -42.5t37.5 -55.5t11 -57q0 -45 -20 -78t-55.5 -55t-84 -34.5t-104.5 -17.5l-51 -24q24 6 49 6q39 0 72.5 -12.5
t58.5 -34.5t39.5 -52t14.5 -65q0 -49 -21 -91t-56.5 -76.5t-82.5 -60.5t-99 -44t-107 -27.5t-105 -9.5zM473 -297q-28 4 -59 15l-64 22.5t-68 20t-71 8.5q-28 0 -39 -2.5l-20 -4.5q-29 -31 -63.5 -46t-61.5 -15q-22 0 -37 9.5t-15 29.5q0 26 25.5 38.5t56.5 12.5
q14 0 42 -1.5t53 -6.5q44 35 80.5 93.5t68 136t59.5 170.5t56 198h159q-29 -95 -70 -183.5t-93 -166t-113 -142t-129 -110.5q15 2 42 6t46 4q30 0 62.5 -2.5t63.5 -5.5t59 -6.5t49 -5.5l102 280h117l-103 -280q21 2 44.5 8.5t46 16.5t43.5 23.5t36 30.5l8 -6
q-37 -48 -86.5 -86t-109.5 -49l-70 -199h-112zM92 551h932l-10 -43h-932z" />
    <glyph glyph-name="threesuperior" unicode="&#xb3;" horiz-adv-x="821" 
d="M365 680q-53 0 -100.5 11t-83 32t-56.5 51.5t-21 69.5q0 33 12.5 58.5t31.5 43t40 26.5t39 9q41 0 58.5 -15.5t17.5 -41.5q0 -39 -14 -54.5t-32 -23t-34.5 -13.5t-21.5 -26q-5 -17 1.5 -36.5t25.5 -36t49.5 -27.5t74.5 -11q64 0 125.5 26t109 71t76.5 105t29 128
q0 22 -4 42.5t-13.5 36t-25.5 25t-41 9.5q-15 0 -34 -9t-41 -23t-46 -31l-49 -34l-18 33q92 45 160.5 75.5t113.5 62.5t67.5 72.5t22.5 105.5q0 60 -34 91t-91 31q-44 0 -88.5 -15.5t-80 -42t-58 -61.5t-22.5 -75q0 -26 19.5 -46t64.5 -20q35 0 61.5 17.5t46.5 34.5l6 -9
q-18 -18 -37.5 -34t-41 -28.5t-45.5 -20t-52 -7.5q-35 0 -58.5 7.5t-38.5 20t-21.5 28.5t-6.5 34q0 52 36 95t91 73.5t121 47t127 16.5q69 0 114.5 -17t72.5 -42.5t38 -55.5t11 -57q0 -45 -20.5 -78t-56 -55t-84 -34.5t-104.5 -17.5l-53 -24q27 6 55 6q38 -1 71 -13.5
t57.5 -34t38.5 -51.5t14 -65q0 -49 -21 -91t-56.5 -76.5t-82.5 -60.5t-99 -44t-107 -27.5t-105 -9.5z" />
    <glyph glyph-name="twosuperior" unicode="&#xb2;" horiz-adv-x="848" 
d="M133 748l142 77l114.5 64.5t98.5 61t94 67.5q70 54 115 101t70 89.5t34.5 82t9.5 79.5q0 29 -9 55t-26.5 45t-44 30t-61.5 11q-53 0 -108 -22.5t-100.5 -58.5t-74.5 -80.5t-29 -87.5q0 -17 4.5 -33t16 -28t30 -19.5t46.5 -7.5q32 0 59.5 11t51 28t42 36.5l33.5 36.5l8 -8
q-24 -31 -52.5 -60.5t-61.5 -53t-71 -38t-83 -14.5q-56 0 -90.5 33t-34.5 84q0 36 18.5 72.5t50 69.5t73.5 62t89.5 50t98 33t98.5 12q65 0 114.5 -18.5t82.5 -49t50 -69t17 -78.5q0 -58 -27 -111t-88.5 -105t-161.5 -103t-247 -105l-152 -86h412q27 0 54 14.5t54.5 37.5
t54.5 52l54 58l8 -7l-200 -268h-590z" />
    <glyph glyph-name="brokenbar" unicode="&#xa6;" horiz-adv-x="553" 
d="M293 379h53v-803h-53v803zM293 1528h53v-785h-53v785z" />
    <glyph glyph-name="minus" unicode="&#x2212;" horiz-adv-x="1139" 
d="M88 559h987v-55h-987v55z" />
    <glyph glyph-name="multiply" unicode="&#xd7;" horiz-adv-x="1139" 
d="M145 113l418 415l-418 418l43 41l416 -416l416 416l39 -39l-416 -416l416 -415l-41 -43l-418 418l-416 -418z" />
    <glyph glyph-name="numbersign" unicode="#" horiz-adv-x="1001" 
d="M270 358l-247 -57l34 131l248 57l72 263l-248 -58l33 129l250 58l108 403h27l-107 -393l256 59l90 334h29l-88 -323l250 57l-35 -131l-250 -58l-71 -262l249 58l-34 -129l-248 -58l-121 -452h-29l119 442l-256 -59l-102 -383h-27zM590 559l72 262l-256 -61l-72 -262z" />
    <glyph glyph-name="dollar" unicode="$" horiz-adv-x="1055" 
d="M309 14q-71 16 -120.5 44.5t-80 63t-44 71.5t-13.5 69q0 33 10.5 64t29.5 55t44 38.5t55 14.5q39 0 61.5 -21.5t22.5 -58.5q0 -29 -10.5 -47.5t-26.5 -32.5t-33.5 -26t-31.5 -29q-6 -22 -4.5 -49.5t16 -53.5t45.5 -49t84 -36l70 281l25.5 102.5l22.5 90l16 63.5l6 24
q-50 15 -94 37t-76.5 53.5t-51 73.5t-18.5 98q0 69 25.5 136.5t76 122.5t126.5 92.5t177 47.5l52 207h18l-51 -205q46 4 93.5 1t90.5 -11l53 215h19l-55 -219q60 -14 103 -38t70.5 -53t40.5 -60.5t13 -59.5q0 -29 -8.5 -57.5t-23.5 -51t-35.5 -36t-45.5 -13.5
q-37 0 -60.5 18.5t-23.5 49.5t12 50.5t28.5 34.5t34.5 29.5t30 35.5q-1 11 -6.5 29.5t-21 38t-42 37.5t-69.5 30l-134 -537q271 -70 271 -262q0 -87 -29 -161t-85 -130t-138 -91t-189 -44l-73 -291h-19l74 289q-53 -2 -102.5 2.5t-83.5 9.5l-74 -301h-19zM489 739l5.5 22
l14 57l20 79.5l23 91l23 91l20 79l14 55.5l5.5 21q-65 -9 -115.5 -37.5t-86 -68t-54 -86.5t-18.5 -95q0 -45 8.5 -78t27 -57.5t46.5 -42t67 -31.5zM647 549q-46 12 -90.5 19.5t-87.5 17.5l-139 -559q48 -8 96 -11t90 2zM535 20q73 9 130.5 39t97.5 72t61.5 92.5t23.5 100.5
q1 46 -7.5 80.5t-30 60.5t-57.5 44.5t-89 33.5zM817 1229q-46 9 -93.5 11t-90.5 -3l-127 -504q48 -14 92 -21t86 -20z" />
    <glyph glyph-name="percent" unicode="%" horiz-adv-x="1659" 
d="M414 614q-53 0 -99 18t-80 51t-53.5 79.5t-19.5 103.5q0 78 32.5 151t86 128.5t123 89t143.5 33.5q56 0 106 -18t88 -51.5t60 -81t22 -105.5t-18 -110t-48 -96.5t-71 -79.5t-86 -60t-93 -38.5t-93 -13.5zM414 633q58 0 108 36.5t87 96.5t58 136t21 155q0 38 -8.5 73
t-25.5 62t-42 43t-59 16q-62 0 -109.5 -42t-80 -106t-49.5 -139t-17 -141q0 -34 4 -68t16.5 -61t35.5 -44t61 -17zM1147 -27q-53 0 -99 18t-80 51t-53.5 79.5t-19.5 103.5q0 78 32.5 151t86 128.5t123 89t143.5 33.5q56 0 106.5 -18t88 -51.5t59.5 -81t22 -105.5t-18 -110
t-48 -96.5t-71 -79.5t-86 -60t-93 -38.5t-93 -13.5zM1147 -8q59 0 109.5 36.5t87 96.5t57 136t20.5 155q0 38 -8.5 73t-25.5 62t-42 43t-59 16q-62 0 -110 -42t-80.5 -106t-49 -139t-16.5 -141q0 -34 4.5 -68t17 -61t35.5 -44t60 -17zM166 -180l1333 1585l25 -19
l-1336 -1585z" />
    <glyph glyph-name="asterisk" unicode="*" horiz-adv-x="748" 
d="M449 825q-22 7 -29 22t-2 32q3 10 14.5 35.5l27.5 58.5l33 70t31 71q-33 -10 -66.5 -24l-64.5 -27.5l-57.5 -25.5t-44.5 -19q-43 -16 -58 18q-8 19 1.5 35t29.5 23q18 5 44 7.5t59.5 5l73 5.5t83.5 10q-35 28 -69 52l-62.5 44t-50 37.5t-33.5 32.5q-22 31 2 55
q14 14 31.5 13t30.5 -17q14 -15 30.5 -39.5l36 -53.5l42 -59.5t46.5 -56.5q4 34 7.5 75l7 79t6.5 67.5t6 41.5q5 18 20 26.5t33 3.5q25 -6 31.5 -22.5t1.5 -30.5q-3 -10 -15 -36.5l-27.5 -61l-32 -73l-29.5 -71.5q35 13 69 29l64.5 31l56 27t43.5 18q19 6 33 0.5t20 -27.5
q9 -41 -39 -53q-37 -9 -101.5 -14t-145.5 -19q34 -27 66.5 -49.5l60 -42t49 -36.5t32.5 -31q11 -13 10.5 -28.5t-14.5 -29.5q-11 -9 -26.5 -10t-32.5 16q-12 14 -28 37.5l-35.5 51l-41.5 57.5t-45 57q-5 -35 -9.5 -76t-7.5 -78.5t-6 -66t-5 -37.5q-5 -15 -20 -25t-35 -4z
" />
    <glyph glyph-name="plus" unicode="+" horiz-adv-x="1139" 
d="M553 502h-465v59h465v465h57v-465h465v-59h-465v-463h-57v463z" />
    <glyph glyph-name="slash" unicode="/" horiz-adv-x="823" 
d="M-184 -410l1163 1950l41 -22l-1163 -1950z" />
    <glyph glyph-name="less" unicode="&#x3c;" horiz-adv-x="1139" 
d="M133 512v41l905 440v-59l-829 -402l829 -401v-59z" />
    <glyph glyph-name="equal" unicode="=" horiz-adv-x="1139" 
d="M156 381h905v-55h-905v55zM156 739h905v-55h-905v55z" />
    <glyph glyph-name="greater" unicode="&#x3e;" horiz-adv-x="1139" 
d="M154 131l829 401l-829 402v59l905 -440v-41l-905 -440v59z" />
    <glyph glyph-name="at" unicode="@" horiz-adv-x="2011" 
d="M1012 -440q-102 0 -205.5 22t-199 66t-178.5 111t-144.5 156.5t-97 202.5t-35.5 249q0 124 33 244.5t94.5 228.5t149 200.5t197 159.5t238.5 105t273 38q111 0 204 -25.5t167 -71t129.5 -107.5t92.5 -135.5t55.5 -155t18.5 -164.5q0 -84 -20.5 -162.5t-56 -147
t-84.5 -125t-106 -97t-120 -62.5t-127 -22q-36 0 -68 11.5t-56 34.5t-37.5 57.5t-12.5 80.5l-6 2q-19 -35 -46.5 -67.5t-60.5 -58t-69 -41t-72 -15.5q-28 0 -64.5 10.5t-69 40.5t-55 83t-22.5 138q0 37 13 91t39 112.5t64 116.5t88 104.5t112 75t135 28.5q28 0 55 -8.5
t49 -25.5t37 -42t19 -59h6l47 123h98l-188 -538q-5 -12 -9 -27.5t-7 -31t-5 -30t-2 -24.5q0 -27 5 -50t17 -40.5t31 -27t48 -9.5q52 0 108 19.5t108.5 56t99.5 90t82.5 121.5t56 150.5t20.5 176.5q0 127 -44 239t-127 195.5t-202.5 132t-271.5 48.5q-99 0 -199 -28.5
t-192.5 -83t-173 -135t-140 -184t-93.5 -230t-34 -273.5q0 -124 26.5 -229.5t74 -191t113.5 -150.5t144.5 -109.5t167 -67t181.5 -22.5q163 0 304.5 42.5t256 124.5t199.5 200t137 270l10 -4q-46 -158 -137 -284t-211 -214t-262.5 -135t-292.5 -47zM874 109q45 0 81.5 15.5
t67 42.5t56 64.5t49.5 81.5l129 387q-7 45 -22.5 74t-37.5 46t-49.5 23.5t-57.5 6.5q-45 0 -87 -26.5t-79 -70.5t-67 -101t-51.5 -118t-33.5 -122t-12 -113q0 -65 11.5 -103t28.5 -57.5t37 -24.5t37 -5z" />
    <glyph glyph-name="bracketleft" unicode="[" horiz-adv-x="1130" 
d="M731 -399q12 10 24 22.5t21.5 27.5t16 31.5t6.5 34.5q0 12 -5.5 24t-23 22.5t-49.5 17t-86 6.5q-74 0 -145 -6.5t-147.5 -19t-162.5 -30.5l-190 -40l-51 -17l483 1815l43 -16q92 -23 169 -40.5t147.5 -30.5t138 -19.5t141.5 -6.5q32 0 70.5 2t72 13.5t56 36.5t22.5 71
q0 23 -5 36t-11 26l8 4q9 -10 17.5 -33t8.5 -49q0 -60 -26.5 -106t-71 -77t-103 -47t-122.5 -16q-86 0 -149.5 18t-120 48t-113.5 69.5t-129 81.5l-467 -1745q94 42 172 81.5t150.5 69.5t146.5 48t160 18q111 0 162 -38.5t53 -106.5q0 -59 -28 -106.5t-75 -80.5z" />
    <glyph glyph-name="backslash" unicode="\" horiz-adv-x="823" 
d="M348 1524l45 4l119 -1950l-45 -4z" />
    <glyph glyph-name="bracketright" unicode="]" horiz-adv-x="1130" 
d="M-111 -406q-9 10 -17.5 33t-8.5 49q0 60 26.5 106t71 77t103 47t122.5 16q86 0 150 -18t120.5 -48t113 -69.5t128.5 -81.5l467 1745q-95 -42 -172.5 -81.5t-150 -69.5t-146 -48t-159.5 -18q-111 0 -162.5 38.5t-52.5 106.5q0 59 27.5 107t74.5 80l8 -6q-12 -10 -23.5 -23
t-21.5 -28t-16 -31.5t-6 -34.5q0 -12 5.5 -24t22.5 -22.5t49 -17t86 -6.5q74 0 145 6.5t147.5 19t162.5 30.5l191 40l51 17l-484 -1815l-43 17l-169 40t-147 30.5t-138 19t-142 6.5q-32 0 -70.5 -2t-72 -13.5t-56 -36.5t-22.5 -71q0 -23 5 -36t12 -25l-9 -5v0z" />
    <glyph glyph-name="asciicircum" unicode="^" horiz-adv-x="872" 
d="M199 864l-11 8l90 121l69 93l58 76l56 71q17 22 40.5 30.5t61.5 8.5q70 0 90 -41l176 -361l-14 -6l-268 269z" />
    <glyph glyph-name="underscore" unicode="_" horiz-adv-x="1221" 
d="M-217 -225h1249v-62h-1249v62z" />
    <glyph glyph-name="braceleft" unicode="{" horiz-adv-x="831" 
d="M532 -346q-103 0 -168 12.5t-102 38.5t-51 67.5t-14 100.5q0 68 20 131t44.5 122t44.5 115t20 111q0 49 -15 85t-47 60.5t-83.5 38.5t-123.5 19l17 68q107 12 182.5 34.5t124 67.5t74.5 119t34 190q9 134 35 227t82 151.5t151 85t242 26.5l-2 -8q-88 -6 -151 -31.5
t-105.5 -74t-66.5 -121.5t-33 -175q-12 -134 -51.5 -221t-101 -142t-142 -84t-174.5 -46l-16 -64q67 -12 119 -28.5t87.5 -44t53.5 -68.5t18 -101q0 -64 -17 -124.5t-37 -117.5t-37 -110.5t-17 -101.5q0 -44 9.5 -79t33.5 -60.5t64 -40.5t102 -19l-3 -8v0z" />
    <glyph glyph-name="bar" unicode="|" horiz-adv-x="553" 
d="M293 1528h53v-1952h-53v1952z" />
    <glyph glyph-name="braceright" unicode="}" horiz-adv-x="831" 
d="M-111 -338q88 6 151.5 31t106 73.5t66.5 121.5t33 175q12 134 51.5 221.5t101 142.5t141.5 84t175 46l16 64q-68 11 -119.5 27.5t-87 44t-53.5 68.5t-18 101q0 64 17 125t37 118t37 110.5t17 101.5q0 44 -9.5 79t-33.5 60.5t-64.5 40.5t-101.5 19l2 8q103 0 168.5 -12.5
t102.5 -39t51 -68t14 -99.5q0 -69 -20 -131.5t-44.5 -121.5t-44.5 -115.5t-20 -111.5q0 -49 15 -85t47 -60t83 -38t123 -19l-16 -68q-108 -12 -183 -34.5t-124 -67.5t-74.5 -119.5t-34.5 -190.5q-9 -134 -34.5 -227t-82 -151t-151 -84.5t-242.5 -26.5z" />
    <glyph glyph-name="asciitilde" unicode="~" horiz-adv-x="1065" 
d="M86 397q25 45 63.5 87.5t84.5 75.5t97 53t101 20q58 0 102 -14t81.5 -31t72.5 -31t74 -14q78 0 136.5 35.5t111.5 101.5l6 -6q-24 -45 -59 -88.5t-77 -78t-90 -56t-98 -21.5q-62 0 -106.5 14t-81.5 31t-71 31t-73 14q-78 0 -145.5 -31.5t-120.5 -97.5z" />
    <glyph glyph-name="Adieresis" unicode="&#xc4;" horiz-adv-x="1290" 
d="M-233 8q10 1 26.5 4.5t35.5 9t38.5 12.5t36.5 15q23 11 47 30t47.5 43.5t47 52l44.5 54.5l223 280.5l240 302l244.5 308.5l236.5 301h15v-1274q0 -21 0.5 -38.5t4.5 -31.5t12.5 -24.5t23.5 -17.5q23 -13 57 -19t63 -8l-2 -8h-546l2 8q48 3 93.5 10.5t71.5 16.5
q41 15 56.5 45t15.5 61v437h-506l-74.5 -96.5l-68.5 -92l-58 -79.5l-42 -60l-28 -40t-25 -39t-18 -36t-7 -31q0 -23 23.5 -40t57 -29t69 -19t59.5 -8l-2 -8h-517zM901 598l12 633l-170 -213l-78.5 -99l-84.5 -106l-86.5 -108.5l-83.5 -106.5h491zM875 1573q-44 0 -65 27.5
t-21 62.5q0 22 8 43t23.5 37t37.5 25.5t49 9.5q18 0 32.5 -8t25 -20.5t16.5 -28.5t6 -31q0 -22 -7.5 -43t-22 -37.5t-35 -26.5t-47.5 -10zM1270 1573q-44 0 -65 27.5t-21 62.5q0 22 8 43t23.5 37t37.5 25.5t50 9.5q18 0 32.5 -8t25 -20.5t16 -28.5t5.5 -31q0 -22 -7.5 -43
t-22 -37.5t-35 -26.5t-47.5 -10z" />
    <glyph glyph-name="Aring" unicode="&#xc5;" horiz-adv-x="1290" 
d="M-233 8q10 1 26.5 4.5t35.5 9t38.5 12.5t36.5 15q23 11 47 30t47.5 43.5t47 52l44.5 54.5l223 280.5l240 302l244.5 308.5l236.5 301h15v-1274q0 -21 0.5 -38.5t4.5 -31.5t12.5 -24.5t23.5 -17.5q23 -13 57 -19t63 -8l-2 -8h-546l2 8q48 3 93.5 10.5t71.5 16.5
q41 15 56.5 45t15.5 61v437h-506l-74.5 -96.5l-68.5 -92l-58 -79.5l-42 -60l-28 -40t-25 -39t-18 -36t-7 -31q0 -23 23.5 -40t57 -29t69 -19t59.5 -8l-2 -8h-517zM901 598l12 633l-170 -213l-78.5 -99l-84.5 -106l-86.5 -108.5l-83.5 -106.5h491zM1073 1476q-43 0 -80 12.5
t-64.5 34.5t-43.5 52.5t-16 66.5q0 51 23 93t59.5 72t83 46.5t94.5 16.5q41 0 77.5 -12t63.5 -34t43 -53.5t16 -70.5q0 -47 -21 -88t-56.5 -71t-82 -47.5t-96.5 -17.5zM1069 1493q40 0 71.5 22.5t53.5 57t33.5 75t11.5 76.5q0 56 -26.5 92.5t-81.5 36.5q-39 0 -70.5 -22.5
t-53.5 -57t-34 -76t-12 -79.5q0 -53 26.5 -89t81.5 -36z" />
    <glyph glyph-name="Ccedilla" unicode="&#xc7;" horiz-adv-x="1262" 
d="M319 -457q58 1 115 12t102.5 31t74 48t28.5 63q0 42 -37.5 56t-118.5 14l66 204q-97 9 -179 51t-141.5 111t-93 163t-33.5 208q0 129 30.5 248t84 221t128 185.5t162 143t186 91.5t200.5 32q64 0 118.5 -14.5t97 -34t72 -40t44.5 -33.5l104 116h10l-98 -506h-12
q-4 63 -14.5 124t-29.5 116t-47.5 101.5t-68.5 80.5t-93.5 53t-121.5 19q-75 0 -147.5 -32t-137 -89.5t-119 -137.5t-94.5 -176t-62 -205.5t-22 -225.5q0 -108 25 -204t76 -168t127.5 -113.5t179.5 -41.5q79 0 147 27t127 74t110.5 110.5t96.5 136.5l15 -8
q-43 -71 -94.5 -140t-119 -123.5t-155 -88t-203.5 -33.5h-19t-20 2l-26 -88q37 0 76 -6.5t71 -21.5t53 -40.5t21 -64.5q0 -59 -40.5 -101t-104.5 -68t-143 -38t-157 -12z" />
    <glyph glyph-name="Eacute" unicode="&#xc9;" horiz-adv-x="1274" 
d="M-72 8q11 0 34.5 2t49.5 5.5t50.5 8t37.5 9.5q39 14 59 40.5t29 61.5l310 1116q4 16 6 31t-0.5 28.5t-11.5 25t-27 20.5q-12 5 -32.5 11t-43 11t-43.5 8.5t-35 4.5l4 8h1024l-88 -320h-10q0 50 -8 101t-24 93t-40.5 70t-58.5 33q-32 4 -81.5 6t-98.5 2h-242l-180 -643
h201q40 0 71.5 6.5t54.5 16.5t39.5 21.5t28.5 21.5q29 23 56.5 71t58.5 126h12l-160 -570h-10q4 21 8.5 51.5t6 63t-1.5 63t-13 50.5q-5 10 -14.5 21t-26.5 20.5t-44.5 15.5t-69.5 6h-201l-148 -524q-18 -62 -18.5 -98.5t21 -56.5t67 -26t117.5 -6q51 0 108 0.5t109.5 5
t94.5 14t65 27.5t48.5 46t50.5 59.5t49 65.5l44 64.5l35.5 56t23.5 40.5h11l-133 -393h-1125zM748 1483l81.5 87.5l82 91l72.5 83l54 63.5q32 38 63 58t66 20q28 0 44 -17t16 -38q0 -35 -27 -62t-65 -53l-67.5 -42l-94 -58l-108.5 -68l-111 -72z" />
    <glyph glyph-name="Ntilde" unicode="&#xd1;" horiz-adv-x="1499" 
d="M508 1239l-232 -885q-6 -22 -15.5 -60.5t-14.5 -80t-1 -80t25 -59.5q12 -12 38.5 -24t56.5 -21t58 -14.5t42 -6.5l-2 -8h-565l2 8q17 1 45.5 6t59 13t58 17.5t41.5 18.5q42 26 77 92.5t67 188.5l213 793q6 22 10.5 47.5t3.5 50.5t-9.5 49t-27.5 43q-57 57 -215 64l4 8
h371l522 -1176l219 830l10 36.5t11.5 49t9.5 55.5t3 55t-8 47t-22 33q-13 10 -38 20.5t-53.5 19.5t-55.5 15t-45 7l2 8h559l-2 -8q-14 -1 -41.5 -5.5t-58 -12t-59 -16.5t-44.5 -18q-26 -15 -46.5 -41.5t-37 -62.5t-30.5 -79t-27 -91l-289 -1079h-10zM660 1534q8 14 23.5 38
t36 51.5t45.5 56t52.5 51t57.5 37t61 14.5q32 0 57.5 -8.5t47 -21.5t40.5 -28.5t38 -28.5t39.5 -21.5t44.5 -8.5q34 0 68.5 17.5t64.5 42.5t53 51.5t35 44.5l10 -5l-27.5 -45.5t-37.5 -55t-45.5 -56.5t-52.5 -50.5t-57.5 -36.5t-60.5 -14q-29 0 -53.5 8.5t-46 21.5t-41 28.5
t-39.5 28.5t-41 21.5t-45 8.5q-35 0 -68.5 -16t-63 -38.5t-51.5 -47.5t-34 -43z" />
    <glyph glyph-name="Odieresis" unicode="&#xd6;" horiz-adv-x="1436" 
d="M614 -33q-90 0 -179.5 38.5t-161.5 110.5t-117 175.5t-45 234.5q0 126 31 242.5t86 217t130 182.5t162.5 140t183.5 90t193 32q65 0 128 -17.5t119.5 -51t105 -82t83.5 -109.5t54.5 -133.5t19.5 -155.5q0 -113 -26.5 -225t-76.5 -213.5t-120.5 -188.5t-159 -151
t-192 -100t-218.5 -36zM627 -16q100 0 184.5 39.5t153 107.5t120 159.5t86.5 196t52.5 216.5t17.5 221q0 92 -17.5 180t-58 156.5t-107 110.5t-165.5 42q-103 0 -189 -40t-154.5 -109.5t-119.5 -162t-85.5 -197t-51.5 -216t-17 -217.5q0 -95 18.5 -183t59.5 -155.5t108 -108
t165 -40.5zM752 1573q-44 0 -65 27.5t-21 62.5q0 22 8 43t23.5 37t37.5 25.5t49 9.5q18 0 32.5 -8t25 -20.5t16.5 -28.5t6 -31q0 -22 -7.5 -43t-22 -37.5t-35 -26.5t-47.5 -10zM1147 1573q-44 0 -65 27.5t-21 62.5q0 22 8 43t23.5 37t37.5 25.5t50 9.5q18 0 32.5 -8
t25 -20.5t16 -28.5t5.5 -31q0 -22 -7.5 -43t-22 -37.5t-35 -26.5t-47.5 -10z" />
    <glyph glyph-name="Udieresis" unicode="&#xdc;" horiz-adv-x="1610" 
d="M668 -33q-220 0 -325 85t-105 239q0 43 6.5 91.5t21.5 102.5l213 768q4 16 6 30.5t-0.5 27.5t-11.5 24.5t-27 20.5q-11 4 -29 10t-38.5 11t-39 9t-30.5 5l2 8h576l-2 -8q-15 -1 -36 -3.5t-44 -6t-44 -7.5t-36 -8q-40 -12 -60.5 -41t-29.5 -61l-205 -738
q-18 -66 -28.5 -127t-10.5 -112q0 -53 22.5 -100.5t66 -83t106 -56t143.5 -20.5q198 0 327.5 115t192.5 339l158 553l10.5 39.5t13 53t11.5 59t4.5 58.5t-7 50.5t-22.5 34.5q-13 10 -38 20.5t-53.5 19.5t-55.5 15t-45 7l2 8h557l-2 -8q-14 -1 -41.5 -5.5t-58 -12t-59 -16.5
t-44.5 -18q-26 -15 -47.5 -44.5t-39 -68.5t-32.5 -85t-28 -94l-164 -574q-35 -123 -84.5 -217.5t-121 -158.5t-168 -97t-226.5 -33zM891 1593q-44 0 -65 27.5t-21 62.5q0 22 8 43t23.5 37t37.5 25.5t49 9.5q18 0 32.5 -8t25 -20.5t16.5 -28.5t6 -31q0 -22 -7.5 -43
t-22 -37.5t-35 -26.5t-47.5 -10zM1286 1593q-44 0 -65 27.5t-21 62.5q0 22 8 43t23.5 37t37.5 25.5t50 9.5q18 0 32.5 -8t25 -20.5t16 -28.5t5.5 -31q0 -22 -7.5 -43t-22 -37.5t-35 -26.5t-47.5 -10z" />
    <glyph glyph-name="aacute" unicode="&#xe1;" horiz-adv-x="1081" 
d="M309 -27q-50 0 -97 15.5t-84 52.5t-59 99t-22 155q0 53 14.5 122t43.5 141t73 141.5t104 123.5t136 87.5t168 33.5q49 0 86.5 -15.5t63.5 -39.5t41.5 -52.5t21.5 -54.5h4l53 150h129l-235 -670q-19 -52 -27 -92.5t-10 -69.5q-2 -50 17 -71t48 -21q36 0 72 19.5t70 56.5
t64.5 89.5t55.5 117.5l15 -4q-28 -69 -58.5 -126t-68 -98t-82.5 -63.5t-101 -22.5q-38 0 -67.5 13t-46 41.5t-18 73.5t15.5 108l-4 2q-27 -51 -61 -95.5t-74 -77t-85.5 -51t-95.5 -18.5zM336 18q45 -2 84.5 12t74 41.5t64.5 67.5t57 90l175 523q-6 34 -21.5 64t-41.5 52
t-62.5 34.5t-83.5 12.5q-62 0 -115.5 -32t-97 -85.5t-77 -122.5t-56.5 -143.5t-34.5 -148.5t-11.5 -137q0 -60 10 -102.5t28.5 -69.5t45.5 -40.5t62 -15.5zM525 1092l81.5 87.5l82 91l72.5 83l54 63.5q32 38 63 58t66 20q28 0 44 -17t16 -38q0 -35 -27 -62t-65 -53
l-67.5 -42l-94 -58l-108.5 -68l-111 -72z" />
    <glyph glyph-name="agrave" unicode="&#xe0;" horiz-adv-x="1081" 
d="M309 -27q-50 0 -97 15.5t-84 52.5t-59 99t-22 155q0 53 14.5 122t43.5 141t73 141.5t104 123.5t136 87.5t168 33.5q49 0 86.5 -15.5t63.5 -39.5t41.5 -52.5t21.5 -54.5h4l53 150h129l-235 -670q-19 -52 -27 -92.5t-10 -69.5q-2 -50 17 -71t48 -21q36 0 72 19.5t70 56.5
t64.5 89.5t55.5 117.5l15 -4q-28 -69 -58.5 -126t-68 -98t-82.5 -63.5t-101 -22.5q-38 0 -67.5 13t-46 41.5t-18 73.5t15.5 108l-4 2q-27 -51 -61 -95.5t-74 -77t-85.5 -51t-95.5 -18.5zM336 18q45 -2 84.5 12t74 41.5t64.5 67.5t57 90l175 523q-6 34 -21.5 64t-41.5 52
t-62.5 34.5t-83.5 12.5q-62 0 -115.5 -32t-97 -85.5t-77 -122.5t-56.5 -143.5t-34.5 -148.5t-11.5 -137q0 -60 10 -102.5t28.5 -69.5t45.5 -40.5t62 -15.5zM790 1087l-72 73l-70.5 69.5l-61 59l-44.5 42.5q-51 48 -51 101q0 27 17.5 46t45.5 19q35 0 54.5 -22.5t39.5 -65.5
l29.5 -62.5l38 -79.5l42 -88l40.5 -87l-8 -5v0z" />
    <glyph glyph-name="acircumflex" unicode="&#xe2;" horiz-adv-x="1081" 
d="M309 -27q-50 0 -97 15.5t-84 52.5t-59 99t-22 155q0 53 14.5 122t43.5 141t73 141.5t104 123.5t136 87.5t168 33.5q49 0 86.5 -15.5t63.5 -39.5t41.5 -52.5t21.5 -54.5h4l53 150h129l-235 -670q-19 -52 -27 -92.5t-10 -69.5q-2 -50 17 -71t48 -21q36 0 72 19.5t70 56.5
t64.5 89.5t55.5 117.5l15 -4q-28 -69 -58.5 -126t-68 -98t-82.5 -63.5t-101 -22.5q-38 0 -67.5 13t-46 41.5t-18 73.5t15.5 108l-4 2q-27 -51 -61 -95.5t-74 -77t-85.5 -51t-95.5 -18.5zM336 18q45 -2 84.5 12t74 41.5t64.5 67.5t57 90l175 523q-6 34 -21.5 64t-41.5 52
t-62.5 34.5t-83.5 12.5q-62 0 -115.5 -32t-97 -85.5t-77 -122.5t-56.5 -143.5t-34.5 -148.5t-11.5 -137q0 -60 10 -102.5t28.5 -69.5t45.5 -40.5t62 -15.5zM354 1092l86.5 95.5l93 103l84 93.5l59.5 68q11 12 19 20t17 12t21 5.5t31 1.5q16 0 26 -1.5t16.5 -5t10.5 -10.5
t9 -18l155 -366l-8 -5l-231 287l-381 -287z" />
    <glyph glyph-name="adieresis" unicode="&#xe4;" horiz-adv-x="1081" 
d="M309 -27q-50 0 -97 15.5t-84 52.5t-59 99t-22 155q0 53 14.5 122t43.5 141t73 141.5t104 123.5t136 87.5t168 33.5q49 0 86.5 -15.5t63.5 -39.5t41.5 -52.5t21.5 -54.5h4l53 150h129l-235 -670q-19 -52 -27 -92.5t-10 -69.5q-2 -50 17 -71t48 -21q36 0 72 19.5t70 56.5
t64.5 89.5t55.5 117.5l15 -4q-28 -69 -58.5 -126t-68 -98t-82.5 -63.5t-101 -22.5q-38 0 -67.5 13t-46 41.5t-18 73.5t15.5 108l-4 2q-27 -51 -61 -95.5t-74 -77t-85.5 -51t-95.5 -18.5zM336 18q45 -2 84.5 12t74 41.5t64.5 67.5t57 90l175 523q-6 34 -21.5 64t-41.5 52
t-62.5 34.5t-83.5 12.5q-62 0 -115.5 -32t-97 -85.5t-77 -122.5t-56.5 -143.5t-34.5 -148.5t-11.5 -137q0 -60 10 -102.5t28.5 -69.5t45.5 -40.5t62 -15.5zM477 1152q-44 0 -65 27.5t-21 62.5q0 22 8 43t23.5 37t37.5 25.5t49 9.5q18 0 32.5 -8t25 -20.5t16.5 -28.5t6 -31
q0 -22 -7.5 -43t-22 -37.5t-35 -26.5t-47.5 -10zM872 1152q-44 0 -65 27.5t-21 62.5q0 22 8 43t23.5 37t37.5 25.5t50 9.5q18 0 32.5 -8t25 -20.5t16 -28.5t5.5 -31q0 -22 -7.5 -43t-22 -37.5t-35 -26.5t-47.5 -10z" />
    <glyph glyph-name="atilde" unicode="&#xe3;" horiz-adv-x="1081" 
d="M309 -27q-50 0 -97 15.5t-84 52.5t-59 99t-22 155q0 53 14.5 122t43.5 141t73 141.5t104 123.5t136 87.5t168 33.5q49 0 86.5 -15.5t63.5 -39.5t41.5 -52.5t21.5 -54.5h4l53 150h129l-235 -670q-19 -52 -27 -92.5t-10 -69.5q-2 -50 17 -71t48 -21q36 0 72 19.5t70 56.5
t64.5 89.5t55.5 117.5l15 -4q-28 -69 -58.5 -126t-68 -98t-82.5 -63.5t-101 -22.5q-38 0 -67.5 13t-46 41.5t-18 73.5t15.5 108l-4 2q-27 -51 -61 -95.5t-74 -77t-85.5 -51t-95.5 -18.5zM336 18q45 -2 84.5 12t74 41.5t64.5 67.5t57 90l175 523q-6 34 -21.5 64t-41.5 52
t-62.5 34.5t-83.5 12.5q-62 0 -115.5 -32t-97 -85.5t-77 -122.5t-56.5 -143.5t-34.5 -148.5t-11.5 -137q0 -60 10 -102.5t28.5 -69.5t45.5 -40.5t62 -15.5zM282 1128q8 14 23.5 38t36 51.5t45.5 56t52.5 51t57.5 37t61 14.5q32 0 57.5 -8.5t47 -21.5t40.5 -28.5t38 -28.5
t39.5 -21.5t44.5 -8.5q34 0 68.5 17.5t64.5 42.5t53 51.5t35 44.5l10 -5l-27.5 -45.5t-37.5 -55t-45.5 -56.5t-52.5 -50.5t-57.5 -36.5t-60.5 -14q-29 0 -53.5 8.5t-46 21.5t-41 28.5t-39.5 28.5t-41 21.5t-45 8.5q-35 0 -68.5 -16t-63 -38.5t-51.5 -47.5t-34 -43z" />
    <glyph glyph-name="aring" unicode="&#xe5;" horiz-adv-x="1081" 
d="M309 -27q-50 0 -97 15.5t-84 52.5t-59 99t-22 155q0 53 14.5 122t43.5 141t73 141.5t104 123.5t136 87.5t168 33.5q49 0 86.5 -15.5t63.5 -39.5t41.5 -52.5t21.5 -54.5h4l53 150h129l-235 -670q-19 -52 -27 -92.5t-10 -69.5q-2 -50 17 -71t48 -21q36 0 72 19.5t70 56.5
t64.5 89.5t55.5 117.5l15 -4q-28 -69 -58.5 -126t-68 -98t-82.5 -63.5t-101 -22.5q-38 0 -67.5 13t-46 41.5t-18 73.5t15.5 108l-4 2q-27 -51 -61 -95.5t-74 -77t-85.5 -51t-95.5 -18.5zM336 18q45 -2 84.5 12t74 41.5t64.5 67.5t57 90l175 523q-6 34 -21.5 64t-41.5 52
t-62.5 34.5t-83.5 12.5q-62 0 -115.5 -32t-97 -85.5t-77 -122.5t-56.5 -143.5t-34.5 -148.5t-11.5 -137q0 -60 10 -102.5t28.5 -69.5t45.5 -40.5t62 -15.5zM689 1085q-43 0 -80 12.5t-64.5 34.5t-43.5 52.5t-16 66.5q0 51 23 93t59.5 72t83 46.5t94.5 16.5q41 0 77.5 -12
t63.5 -34t43 -53.5t16 -70.5q0 -47 -21 -88t-56.5 -71t-82 -47.5t-96.5 -17.5zM685 1102q40 0 71.5 22.5t53.5 57t33.5 75t11.5 76.5q0 56 -26.5 92.5t-81.5 36.5q-39 0 -70.5 -22.5t-53.5 -57t-34 -76t-12 -79.5q0 -53 26.5 -89t81.5 -36z" />
    <glyph glyph-name="ccedilla" unicode="&#xe7;" horiz-adv-x="797" 
d="M47 -453q58 1 115 12t102.5 31t74 48t28.5 63q0 42 -38 56t-118 14l65 204q-40 7 -80.5 26.5t-73.5 57t-54 95t-21 141.5q0 62 18.5 134.5t52 144.5t81 139t106 118.5t126.5 82t142 30.5q49 0 89 -14t68 -39.5t43 -61.5t15 -79q0 -28 -7 -47.5t-18 -32t-26 -18t-30 -5.5
q-18 0 -35 6t-30.5 16.5t-21.5 26t-8 33.5q0 29 26 59.5t71 47.5q-2 18 -12.5 35t-28 30.5t-40.5 22t-48 8.5q-51 0 -99.5 -30.5t-91.5 -82.5t-79 -120t-62 -144t-40.5 -154t-14.5 -149q0 -119 50 -176.5t130 -57.5q56 0 107.5 22.5t97.5 60.5t85.5 89.5t71.5 110.5l13 -6
q-31 -56 -72.5 -114t-93.5 -104.5t-114 -76t-134 -29.5h-20.5t-20.5 2l-27 -86q37 0 76 -6.5t71.5 -21.5t53 -40.5t20.5 -64.5q0 -59 -40.5 -100.5t-104 -68t-142.5 -38.5t-157 -12z" />
    <glyph glyph-name="eacute" unicode="&#xe9;" horiz-adv-x="799" 
d="M336 -29q-46 0 -97 14.5t-93.5 52t-70.5 100.5t-28 161q0 53 17 121t49.5 140t80.5 141t110.5 123t138.5 87t165 33q34 0 67 -8.5t59 -25.5t41.5 -43t15.5 -60q0 -60 -24 -108.5t-66 -87.5t-98 -68t-120 -49.5t-133 -32t-135 -15.5q-11 -46 -18 -100t-7 -100
q0 -106 46.5 -163.5t130.5 -57.5q56 0 108 22.5t98.5 61.5t86 90.5t71.5 109.5l12 -6q-48 -91 -98.5 -154t-102 -102.5t-103.5 -57.5t-103 -18zM217 457q127 13 213 53t138.5 90.5t75 103t22.5 91.5q0 26 -6 50.5t-19 43t-32.5 30t-47.5 11.5q-51 0 -103 -40t-98 -106
t-83.5 -151.5t-59.5 -175.5zM446 1092l81.5 87.5l82 91l72.5 83l54 63.5q32 38 63 58t66 20q28 0 44 -17t16 -38q0 -35 -27 -62t-65 -53l-67.5 -42l-94 -58l-108.5 -68l-111 -72z" />
    <glyph glyph-name="egrave" unicode="&#xe8;" horiz-adv-x="799" 
d="M336 -29q-46 0 -97 14.5t-93.5 52t-70.5 100.5t-28 161q0 53 17 121t49.5 140t80.5 141t110.5 123t138.5 87t165 33q34 0 67 -8.5t59 -25.5t41.5 -43t15.5 -60q0 -60 -24 -108.5t-66 -87.5t-98 -68t-120 -49.5t-133 -32t-135 -15.5q-11 -46 -18 -100t-7 -100
q0 -106 46.5 -163.5t130.5 -57.5q56 0 108 22.5t98.5 61.5t86 90.5t71.5 109.5l12 -6q-48 -91 -98.5 -154t-102 -102.5t-103.5 -57.5t-103 -18zM217 457q127 13 213 53t138.5 90.5t75 103t22.5 91.5q0 26 -6 50.5t-19 43t-32.5 30t-47.5 11.5q-51 0 -103 -40t-98 -106
t-83.5 -151.5t-59.5 -175.5zM689 1087l-72 73l-70.5 69.5l-61 59l-44.5 42.5q-51 48 -51 101q0 27 17.5 46t45.5 19q35 0 54.5 -22.5t39.5 -65.5l29.5 -62.5l38 -79.5l42 -88l40.5 -87l-8 -5v0z" />
    <glyph glyph-name="ecircumflex" unicode="&#xea;" horiz-adv-x="799" 
d="M336 -29q-46 0 -97 14.5t-93.5 52t-70.5 100.5t-28 161q0 53 17 121t49.5 140t80.5 141t110.5 123t138.5 87t165 33q34 0 67 -8.5t59 -25.5t41.5 -43t15.5 -60q0 -60 -24 -108.5t-66 -87.5t-98 -68t-120 -49.5t-133 -32t-135 -15.5q-11 -46 -18 -100t-7 -100
q0 -106 46.5 -163.5t130.5 -57.5q56 0 108 22.5t98.5 61.5t86 90.5t71.5 109.5l12 -6q-48 -91 -98.5 -154t-102 -102.5t-103.5 -57.5t-103 -18zM217 457q127 13 213 53t138.5 90.5t75 103t22.5 91.5q0 26 -6 50.5t-19 43t-32.5 30t-47.5 11.5q-51 0 -103 -40t-98 -106
t-83.5 -151.5t-59.5 -175.5zM253 1052l86.5 95.5l93 103l84 93.5l59.5 68q11 12 19 20t17 12t21 5.5t31 1.5q16 0 26 -1.5t16.5 -5t10.5 -10.5t9 -18l155 -366l-8 -5l-231 287l-381 -287z" />
    <glyph glyph-name="edieresis" unicode="&#xeb;" horiz-adv-x="799" 
d="M336 -29q-46 0 -97 14.5t-93.5 52t-70.5 100.5t-28 161q0 53 17 121t49.5 140t80.5 141t110.5 123t138.5 87t165 33q34 0 67 -8.5t59 -25.5t41.5 -43t15.5 -60q0 -60 -24 -108.5t-66 -87.5t-98 -68t-120 -49.5t-133 -32t-135 -15.5q-11 -46 -18 -100t-7 -100
q0 -106 46.5 -163.5t130.5 -57.5q56 0 108 22.5t98.5 61.5t86 90.5t71.5 109.5l12 -6q-48 -91 -98.5 -154t-102 -102.5t-103.5 -57.5t-103 -18zM217 457q127 13 213 53t138.5 90.5t75 103t22.5 91.5q0 26 -6 50.5t-19 43t-32.5 30t-47.5 11.5q-51 0 -103 -40t-98 -106
t-83.5 -151.5t-59.5 -175.5zM380 1152q-44 0 -65 27.5t-21 62.5q0 22 8 43t23.5 37t37.5 25.5t49 9.5q18 0 32.5 -8t25 -20.5t16.5 -28.5t6 -31q0 -22 -7.5 -43t-22 -37.5t-35 -26.5t-47.5 -10zM775 1152q-44 0 -65 27.5t-21 62.5q0 22 8 43t23.5 37t37.5 25.5t50 9.5
q18 0 32.5 -8t25 -20.5t16 -28.5t5.5 -31q0 -22 -7.5 -43t-22 -37.5t-35 -26.5t-47.5 -10z" />
    <glyph glyph-name="iacute" unicode="&#xed;" horiz-adv-x="645" 
d="M309 -23q-33 0 -63 7.5t-52.5 25.5t-35.5 49t-13 78q0 37 10.5 76.5t30.5 93.5l138 348q24 63 35.5 108.5t11.5 74.5q0 42 -17 57.5t-49 15.5q-38 0 -72 -19.5t-65 -56t-59.5 -89t-53.5 -117.5l-12 4q28 67 56 124.5t61.5 98.5t75.5 64.5t98 23.5q33 0 61.5 -10t49 -31.5
t32.5 -54.5t12 -78q0 -18 -6.5 -44t-16 -54.5t-20.5 -57.5l-20 -51l-117 -301q-26 -68 -36.5 -111.5t-10.5 -72.5q0 -35 21 -50.5t53 -15.5q74 0 137.5 74t114.5 205l12 -4q-28 -69 -56.5 -126t-62.5 -98t-76 -63.5t-96 -22.5zM216 1092l81.5 87.5l82 91l72.5 83l54 63.5
q32 38 63 58t66 20q28 0 44 -17t16 -38q0 -35 -27 -62t-65 -53l-67.5 -42l-94 -58l-108.5 -68l-111 -72z" />
    <glyph glyph-name="igrave" unicode="&#xec;" horiz-adv-x="645" 
d="M309 -23q-33 0 -63 7.5t-52.5 25.5t-35.5 49t-13 78q0 37 10.5 76.5t30.5 93.5l138 348q24 63 35.5 108.5t11.5 74.5q0 42 -17 57.5t-49 15.5q-38 0 -72 -19.5t-65 -56t-59.5 -89t-53.5 -117.5l-12 4q28 67 56 124.5t61.5 98.5t75.5 64.5t98 23.5q33 0 61.5 -10t49 -31.5
t32.5 -54.5t12 -78q0 -18 -6.5 -44t-16 -54.5t-20.5 -57.5l-20 -51l-117 -301q-26 -68 -36.5 -111.5t-10.5 -72.5q0 -35 21 -50.5t53 -15.5q74 0 137.5 74t114.5 205l12 -4q-28 -69 -56.5 -126t-62.5 -98t-76 -63.5t-96 -22.5zM548 1087l-72 73l-70.5 69.5l-61 59
l-44.5 42.5q-51 48 -51 101q0 27 17.5 46t45.5 19q35 0 54.5 -22.5t39.5 -65.5l29.5 -62.5l38 -79.5l42 -88l40.5 -87l-8 -5v0z" />
    <glyph glyph-name="icircumflex" unicode="&#xee;" horiz-adv-x="645" 
d="M309 -23q-33 0 -63 7.5t-52.5 25.5t-35.5 49t-13 78q0 37 10.5 76.5t30.5 93.5l138 348q24 63 35.5 108.5t11.5 74.5q0 42 -17 57.5t-49 15.5q-38 0 -72 -19.5t-65 -56t-59.5 -89t-53.5 -117.5l-12 4q28 67 56 124.5t61.5 98.5t75.5 64.5t98 23.5q33 0 61.5 -10t49 -31.5
t32.5 -54.5t12 -78q0 -18 -6.5 -44t-16 -54.5t-20.5 -57.5l-20 -51l-117 -301q-26 -68 -36.5 -111.5t-10.5 -72.5q0 -35 21 -50.5t53 -15.5q74 0 137.5 74t114.5 205l12 -4q-28 -69 -56.5 -126t-62.5 -98t-76 -63.5t-96 -22.5zM83 1092l86.5 95.5l93 103l84 93.5l59.5 68
q11 12 19 20t17 12t21 5.5t31 1.5q16 0 26 -1.5t16.5 -5t10.5 -10.5t9 -18l155 -366l-8 -5l-231 287l-381 -287z" />
    <glyph glyph-name="idieresis" unicode="&#xef;" horiz-adv-x="645" 
d="M309 -23q-33 0 -63 7.5t-52.5 25.5t-35.5 49t-13 78q0 37 10.5 76.5t30.5 93.5l138 348q24 63 35.5 108.5t11.5 74.5q0 42 -17 57.5t-49 15.5q-38 0 -72 -19.5t-65 -56t-59.5 -89t-53.5 -117.5l-12 4q28 67 56 124.5t61.5 98.5t75.5 64.5t98 23.5q33 0 61.5 -10t49 -31.5
t32.5 -54.5t12 -78q0 -18 -6.5 -44t-16 -54.5t-20.5 -57.5l-20 -51l-117 -301q-26 -68 -36.5 -111.5t-10.5 -72.5q0 -35 21 -50.5t53 -15.5q74 0 137.5 74t114.5 205l12 -4q-28 -69 -56.5 -126t-62.5 -98t-76 -63.5t-96 -22.5zM212 1152q-44 0 -65 27.5t-21 62.5q0 22 8 43
t23.5 37t37.5 25.5t49 9.5q18 0 32.5 -8t25 -20.5t16.5 -28.5t6 -31q0 -22 -7.5 -43t-22 -37.5t-35 -26.5t-47.5 -10zM607 1152q-44 0 -65 27.5t-21 62.5q0 22 8 43t23.5 37t37.5 25.5t50 9.5q18 0 32.5 -8t25 -20.5t16 -28.5t5.5 -31q0 -22 -7.5 -43t-22 -37.5t-35 -26.5
t-47.5 -10z" />
    <glyph glyph-name="ntilde" unicode="&#xf1;" horiz-adv-x="1190" 
d="M868 -23q-32 0 -63.5 7.5t-56 25.5t-39.5 49t-15 78q0 37 12.5 77.5t32.5 92.5l121 320q9 23 17 47t14 46.5t10 42t4 34.5q0 32 -11.5 51.5t-29.5 30t-40 13.5t-42 3q-57 0 -106.5 -25t-90.5 -63.5t-72.5 -84t-51.5 -85.5l-209 -637h-141l221 655q25 72 35 119t10 76
q0 37 -18 50t-44 13q-38 0 -72.5 -20t-65 -57t-58.5 -89.5t-53 -117.5l-15 4q28 67 56 124.5t62 98.5t76 64.5t97 23.5q40 0 71 -15.5t48.5 -47t20 -80t-14.5 -113.5l4 -2q31 54 70.5 101t83.5 82t90.5 55t91.5 20q57 0 97 -18t66 -47.5t38 -67t12 -76.5q0 -18 -3.5 -40.5
t-9 -45.5t-12.5 -45.5t-14 -40.5l-115 -301q-10 -27 -19 -54t-15.5 -51t-10.5 -44t-4 -33q0 -21 7 -35t18.5 -21.5t25.5 -10.5t29 -3q72 0 134.5 75t115.5 206l14 -4q-28 -69 -56.5 -126t-63 -98t-76.5 -63.5t-97 -22.5zM393 1128q8 14 23.5 38t36 51.5t45.5 56t52.5 51
t57.5 37t61 14.5q32 0 57.5 -8.5t47 -21.5t40.5 -28.5t38 -28.5t39.5 -21.5t44.5 -8.5q34 0 68.5 17.5t64.5 42.5t53 51.5t35 44.5l10 -5l-27.5 -45.5t-37.5 -55t-45.5 -56.5t-52.5 -50.5t-57.5 -36.5t-60.5 -14q-29 0 -53.5 8.5t-46 21.5t-41 28.5t-39.5 28.5t-41 21.5
t-45 8.5q-35 0 -68.5 -16t-63 -38.5t-51.5 -47.5t-34 -43z" />
    <glyph glyph-name="oacute" unicode="&#xf3;" horiz-adv-x="936" 
d="M346 -29q-57 0 -109.5 22t-93 66t-64.5 111.5t-24 159.5q0 55 16.5 122t48.5 135.5t78 132.5t105 114t129.5 80t151.5 30q59 0 113 -22t95.5 -67t66 -112.5t24.5 -158.5q0 -52 -15.5 -118t-46.5 -134t-76 -133t-105 -115.5t-133.5 -81.5t-160.5 -31zM365 -14q60 0 111 30
t92.5 80.5t73.5 116t53.5 137t32.5 143.5t11 136q0 84 -13.5 141.5t-36 93t-53 51t-63.5 15.5q-56 0 -105.5 -28.5t-91 -77t-74.5 -112t-56 -134.5t-35 -145t-12 -142q0 -80 12.5 -137.5t34.5 -95t52.5 -55t66.5 -17.5zM452 1092l81.5 87.5l82 91l72.5 83l54 63.5
q32 38 63 58t66 20q28 0 44 -17t16 -38q0 -35 -27 -62t-65 -53l-67.5 -42l-94 -58l-108.5 -68l-111 -72z" />
    <glyph glyph-name="ograve" unicode="&#xf2;" horiz-adv-x="936" 
d="M346 -29q-57 0 -109.5 22t-93 66t-64.5 111.5t-24 159.5q0 55 16.5 122t48.5 135.5t78 132.5t105 114t129.5 80t151.5 30q59 0 113 -22t95.5 -67t66 -112.5t24.5 -158.5q0 -52 -15.5 -118t-46.5 -134t-76 -133t-105 -115.5t-133.5 -81.5t-160.5 -31zM365 -14q60 0 111 30
t92.5 80.5t73.5 116t53.5 137t32.5 143.5t11 136q0 84 -13.5 141.5t-36 93t-53 51t-63.5 15.5q-56 0 -105.5 -28.5t-91 -77t-74.5 -112t-56 -134.5t-35 -145t-12 -142q0 -80 12.5 -137.5t34.5 -95t52.5 -55t66.5 -17.5zM737 1087l-72 73l-70.5 69.5l-61 59l-44.5 42.5
q-51 48 -51 101q0 27 17.5 46t45.5 19q35 0 54.5 -22.5t39.5 -65.5l29.5 -62.5l38 -79.5l42 -88l40.5 -87l-8 -5v0z" />
    <glyph glyph-name="ocircumflex" unicode="&#xf4;" horiz-adv-x="936" 
d="M346 -29q-57 0 -109.5 22t-93 66t-64.5 111.5t-24 159.5q0 55 16.5 122t48.5 135.5t78 132.5t105 114t129.5 80t151.5 30q59 0 113 -22t95.5 -67t66 -112.5t24.5 -158.5q0 -52 -15.5 -118t-46.5 -134t-76 -133t-105 -115.5t-133.5 -81.5t-160.5 -31zM365 -14q60 0 111 30
t92.5 80.5t73.5 116t53.5 137t32.5 143.5t11 136q0 84 -13.5 141.5t-36 93t-53 51t-63.5 15.5q-56 0 -105.5 -28.5t-91 -77t-74.5 -112t-56 -134.5t-35 -145t-12 -142q0 -80 12.5 -137.5t34.5 -95t52.5 -55t66.5 -17.5zM280 1052l86.5 95.5l93 103l84 93.5l59.5 68
q11 12 19 20t17 12t21 5.5t31 1.5q16 0 26 -1.5t16.5 -5t10.5 -10.5t9 -18l155 -366l-8 -5l-231 287l-381 -287z" />
    <glyph glyph-name="odieresis" unicode="&#xf6;" horiz-adv-x="936" 
d="M346 -29q-57 0 -109.5 22t-93 66t-64.5 111.5t-24 159.5q0 55 16.5 122t48.5 135.5t78 132.5t105 114t129.5 80t151.5 30q59 0 113 -22t95.5 -67t66 -112.5t24.5 -158.5q0 -52 -15.5 -118t-46.5 -134t-76 -133t-105 -115.5t-133.5 -81.5t-160.5 -31zM365 -14q60 0 111 30
t92.5 80.5t73.5 116t53.5 137t32.5 143.5t11 136q0 84 -13.5 141.5t-36 93t-53 51t-63.5 15.5q-56 0 -105.5 -28.5t-91 -77t-74.5 -112t-56 -134.5t-35 -145t-12 -142q0 -80 12.5 -137.5t34.5 -95t52.5 -55t66.5 -17.5zM421 1152q-44 0 -65 27.5t-21 62.5q0 22 8 43t23.5 37
t37.5 25.5t49 9.5q18 0 32.5 -8t25 -20.5t16.5 -28.5t6 -31q0 -22 -7.5 -43t-22 -37.5t-35 -26.5t-47.5 -10zM816 1152q-44 0 -65 27.5t-21 62.5q0 22 8 43t23.5 37t37.5 25.5t50 9.5q18 0 32.5 -8t25 -20.5t16 -28.5t5.5 -31q0 -22 -7.5 -43t-22 -37.5t-35 -26.5t-47.5 -10
z" />
    <glyph glyph-name="otilde" unicode="&#xf5;" horiz-adv-x="936" 
d="M346 -29q-57 0 -109.5 22t-93 66t-64.5 111.5t-24 159.5q0 55 16.5 122t48.5 135.5t78 132.5t105 114t129.5 80t151.5 30q59 0 113 -22t95.5 -67t66 -112.5t24.5 -158.5q0 -52 -15.5 -118t-46.5 -134t-76 -133t-105 -115.5t-133.5 -81.5t-160.5 -31zM365 -14q60 0 111 30
t92.5 80.5t73.5 116t53.5 137t32.5 143.5t11 136q0 84 -13.5 141.5t-36 93t-53 51t-63.5 15.5q-56 0 -105.5 -28.5t-91 -77t-74.5 -112t-56 -134.5t-35 -145t-12 -142q0 -80 12.5 -137.5t34.5 -95t52.5 -55t66.5 -17.5zM251 1103q8 14 23.5 38t36 51.5t45.5 56t52.5 51
t57.5 37t61 14.5q32 0 57.5 -8.5t47 -21.5t40.5 -28.5t38 -28.5t39.5 -21.5t44.5 -8.5q34 0 68.5 17.5t64.5 42.5t53 51.5t35 44.5l10 -5l-27.5 -45.5t-37.5 -55t-45.5 -56.5t-52.5 -50.5t-57.5 -36.5t-60.5 -14q-29 0 -53.5 8.5t-46 21.5t-41 28.5t-39.5 28.5t-41 21.5
t-45 8.5q-35 0 -68.5 -16t-63 -38.5t-51.5 -47.5t-34 -43z" />
    <glyph glyph-name="uacute" unicode="&#xfa;" horiz-adv-x="1174" 
d="M379 -27q-103 0 -158 62.5t-55 167.5q0 10 3 27.5t8 38t12 42.5t16 43l117 301q45 120 45 176q0 41 -17 60.5t-45 19.5q-36 0 -69.5 -19.5t-64 -56t-59 -89t-53.5 -117.5l-14 4q27 67 54.5 123.5t61 97.5t75 63.5t96.5 22.5q33 0 61.5 -9t49 -28t32.5 -49.5t12 -73.5
q0 -37 -11.5 -76.5t-31.5 -93.5l-125 -319q-36 -93 -36 -166q0 -47 27 -78t93 -31q52 0 98 19.5t85 51t71 72.5t56 83l211 671h139l-215 -651q-6 -18 -12 -40.5t-10.5 -45t-7.5 -44t-3 -38.5q0 -35 19.5 -58.5t48.5 -23.5q72 0 135.5 75t114.5 206l14 -6q-28 -69 -56.5 -126
t-63 -98t-77 -63.5t-96.5 -22.5q-87 0 -124 57t-15 175l-4 2q-29 -52 -67.5 -96t-82.5 -75.5t-90.5 -49t-91.5 -17.5zM566 1092l81.5 87.5l82 91l72.5 83l54 63.5q32 38 63 58t66 20q28 0 44 -17t16 -38q0 -35 -27 -62t-65 -53l-67.5 -42l-94 -58l-108.5 -68l-111 -72z" />
    <glyph glyph-name="ugrave" unicode="&#xf9;" horiz-adv-x="1174" 
d="M379 -27q-103 0 -158 62.5t-55 167.5q0 10 3 27.5t8 38t12 42.5t16 43l117 301q45 120 45 176q0 41 -17 60.5t-45 19.5q-36 0 -69.5 -19.5t-64 -56t-59 -89t-53.5 -117.5l-14 4q27 67 54.5 123.5t61 97.5t75 63.5t96.5 22.5q33 0 61.5 -9t49 -28t32.5 -49.5t12 -73.5
q0 -37 -11.5 -76.5t-31.5 -93.5l-125 -319q-36 -93 -36 -166q0 -47 27 -78t93 -31q52 0 98 19.5t85 51t71 72.5t56 83l211 671h139l-215 -651q-6 -18 -12 -40.5t-10.5 -45t-7.5 -44t-3 -38.5q0 -35 19.5 -58.5t48.5 -23.5q72 0 135.5 75t114.5 206l14 -6q-28 -69 -56.5 -126
t-63 -98t-77 -63.5t-96.5 -22.5q-87 0 -124 57t-15 175l-4 2q-29 -52 -67.5 -96t-82.5 -75.5t-90.5 -49t-91.5 -17.5zM850 1087l-72 73l-70.5 69.5l-61 59l-44.5 42.5q-51 48 -51 101q0 27 17.5 46t45.5 19q35 0 54.5 -22.5t39.5 -65.5l29.5 -62.5l38 -79.5l42 -88l40.5 -87
l-8 -5v0z" />
    <glyph glyph-name="ucircumflex" unicode="&#xfb;" horiz-adv-x="1174" 
d="M379 -27q-103 0 -158 62.5t-55 167.5q0 10 3 27.5t8 38t12 42.5t16 43l117 301q45 120 45 176q0 41 -17 60.5t-45 19.5q-36 0 -69.5 -19.5t-64 -56t-59 -89t-53.5 -117.5l-14 4q27 67 54.5 123.5t61 97.5t75 63.5t96.5 22.5q33 0 61.5 -9t49 -28t32.5 -49.5t12 -73.5
q0 -37 -11.5 -76.5t-31.5 -93.5l-125 -319q-36 -93 -36 -166q0 -47 27 -78t93 -31q52 0 98 19.5t85 51t71 72.5t56 83l211 671h139l-215 -651q-6 -18 -12 -40.5t-10.5 -45t-7.5 -44t-3 -38.5q0 -35 19.5 -58.5t48.5 -23.5q72 0 135.5 75t114.5 206l14 -6q-28 -69 -56.5 -126
t-63 -98t-77 -63.5t-96.5 -22.5q-87 0 -124 57t-15 175l-4 2q-29 -52 -67.5 -96t-82.5 -75.5t-90.5 -49t-91.5 -17.5zM414 1092l86.5 95.5l93 103l84 93.5l59.5 68q11 12 19 20t17 12t21 5.5t31 1.5q16 0 26 -1.5t16.5 -5t10.5 -10.5t9 -18l155 -366l-8 -5l-231 287
l-381 -287z" />
    <glyph glyph-name="udieresis" unicode="&#xfc;" horiz-adv-x="1174" 
d="M379 -27q-103 0 -158 62.5t-55 167.5q0 10 3 27.5t8 38t12 42.5t16 43l117 301q45 120 45 176q0 41 -17 60.5t-45 19.5q-36 0 -69.5 -19.5t-64 -56t-59 -89t-53.5 -117.5l-14 4q27 67 54.5 123.5t61 97.5t75 63.5t96.5 22.5q33 0 61.5 -9t49 -28t32.5 -49.5t12 -73.5
q0 -37 -11.5 -76.5t-31.5 -93.5l-125 -319q-36 -93 -36 -166q0 -47 27 -78t93 -31q52 0 98 19.5t85 51t71 72.5t56 83l211 671h139l-215 -651q-6 -18 -12 -40.5t-10.5 -45t-7.5 -44t-3 -38.5q0 -35 19.5 -58.5t48.5 -23.5q72 0 135.5 75t114.5 206l14 -6q-28 -69 -56.5 -126
t-63 -98t-77 -63.5t-96.5 -22.5q-87 0 -124 57t-15 175l-4 2q-29 -52 -67.5 -96t-82.5 -75.5t-90.5 -49t-91.5 -17.5zM535 1152q-44 0 -65 27.5t-21 62.5q0 22 8 43t23.5 37t37.5 25.5t49 9.5q18 0 32.5 -8t25 -20.5t16.5 -28.5t6 -31q0 -22 -7.5 -43t-22 -37.5t-35 -26.5
t-47.5 -10zM930 1152q-44 0 -65 27.5t-21 62.5q0 22 8 43t23.5 37t37.5 25.5t50 9.5q18 0 32.5 -8t25 -20.5t16 -28.5t5.5 -31q0 -22 -7.5 -43t-22 -37.5t-35 -26.5t-47.5 -10z" />
    <glyph glyph-name="dagger" unicode="&#x2020;" horiz-adv-x="836" 
d="M356 233q20 84 41.5 185.5l42 206l40 205l36.5 182.5q8 34 3 51t-23 22q-17 5 -35.5 -3.5t-40.5 -22.5q-25 -16 -53.5 -27.5t-53.5 -5.5q-38 11 -52 38t-5 64q6 23 23.5 35.5t42.5 5.5q45 -12 38 -86q12 -2 29.5 2t37 9t38.5 8t33 0q23 -5 41.5 -19t29.5 -34
q8 36 10 79.5t3 86t2.5 79t7.5 58.5q4 15 11 28t17.5 22.5t24 13t31.5 -0.5q18 -5 28.5 -15t15 -23.5t4 -29t-4.5 -30.5q-6 -21 -23.5 -53.5l-38.5 -69t-41 -75t-32 -72.5q21 9 44 11.5t48 -3.5q14 -4 28.5 -16t29 -25.5l27 -26t23.5 -16.5q16 32 39 45.5t47 5.5
q22 -6 28.5 -24.5t0.5 -41.5q-9 -37 -36.5 -52.5t-65.5 -4.5q-23 6 -42.5 30t-33.5 50q-12 22 -24.5 39t-26.5 22q-20 5 -32.5 -8t-23.5 -47l-60 -175.5l-66.5 -197.5l-65 -199.5t-55.5 -181.5z" />
    <glyph glyph-name="degree" unicode="&#xb0;" horiz-adv-x="831" 
d="M539 848q-59 0 -112.5 19t-93.5 56.5t-63.5 93t-23.5 128.5q0 67 25 124t66.5 98t94 64t107.5 23q58 0 112.5 -18.5t96.5 -56t67 -95.5t25 -137q0 -63 -25 -117.5t-67 -95t-96.5 -63.5t-112.5 -23zM545 862q38 0 71.5 23t58.5 61.5t39.5 89.5t14.5 107q0 59 -12 112.5
t-35.5 94.5t-58.5 65.5t-82 24.5t-82 -25.5t-58.5 -66t-35 -92t-11.5 -103.5q0 -54 11.5 -106.5t35.5 -93.5t60 -66t84 -25z" />
    <glyph glyph-name="cent" unicode="&#xa2;" horiz-adv-x="899" 
d="M193 -223l135 364q-37 11 -73 33.5t-64.5 60t-46 91.5t-17.5 129q0 62 18.5 134.5t53 144.5t82.5 139t107 118.5t127.5 82t143.5 30.5h19l100 268l17 -6l-99 -266q81 -11 126.5 -62t45.5 -129q0 -29 -7.5 -49t-20 -32t-28.5 -17t-32 -4q-17 1 -33 7t-28 17t-19.5 25.5
t-7.5 32.5q0 29 25.5 59t70.5 47q-3 31 -28.5 59t-67.5 33l-325 -886q34 -17 75 -17q56 0 109.5 21.5t101.5 58.5t89 87.5t73 109.5l12 -6q-49 -91 -102 -153t-106.5 -100t-106.5 -54.5t-102 -16.5q-32 0 -66 6l-135 -366zM674 1092q-50 1 -99.5 -30t-94 -83.5t-83 -121.5
t-66 -145t-43.5 -153.5t-16 -146.5q0 -73 22.5 -123t57.5 -78z" />
    <glyph glyph-name="sterling" unicode="&#xa3;" horiz-adv-x="1479" 
d="M111 -188q-50 0 -86 11t-59 30t-33.5 44t-10.5 54q0 48 31.5 86t84.5 64.5t123 40.5t148 14q53 0 105 -6t94 -15q9 21 13.5 46.5t6 56t1.5 65t1 72.5h-303v20h303q1 21 2.5 46.5t3.5 51t5 49.5t6 42h-283v22h285q10 78 35.5 166.5t66.5 175t97 166t126.5 140t155 96.5
t182.5 36q90 0 152 -27t100 -69.5t55 -95.5t17 -104q0 -78 -23.5 -144t-66.5 -114t-104 -74.5t-136 -26.5q-44 0 -81.5 15t-65.5 42t-44 64t-16 82q0 49 14 100t46 101l8 -5q-26 -45 -36.5 -91.5t-10.5 -84.5q0 -41 14.5 -75t40 -58t59.5 -37.5t72 -13.5q54 0 97 26.5t73 71
t46 102.5t16 120q0 46 -12 96t-39 91.5t-69.5 68t-103.5 26.5q-84 0 -157 -33t-131.5 -105.5t-102 -187.5t-69.5 -278q-7 -42 -13 -82t-14 -80h391v-22h-395q-8 -47 -18.5 -96t-24.5 -93h399v-20h-405q-23 -66 -55.5 -127.5t-83.5 -118.5q84 -21 151 -53l128.5 -61.5
t122.5 -50.5t132 -21q67 0 112 24.5t77.5 67t55.5 99.5t46 122l10 -4q-12 -49 -30 -99.5t-44 -98t-61 -88.5t-83 -72t-109 -48.5t-138 -17.5q-54 0 -110 17t-114 42.5t-115.5 56.5l-114.5 60q-70 -88 -154 -140t-186 -52zM111 -174q43 0 87.5 13.5t86.5 38t80 59t69 77.5
q-63 31 -135.5 52.5t-151.5 21.5q-44 0 -82 -10t-65.5 -29t-43 -45t-15.5 -57q0 -26 12 -48t34 -38t53.5 -25.5t70.5 -9.5z" />
    <glyph glyph-name="section" unicode="&#xa7;" horiz-adv-x="991" 
d="M252 -463q-47 0 -80.5 11.5t-54.5 32t-31 48.5t-10 60q0 30 10 53.5t27 40t38 25t44 8.5q32 0 55.5 -18t23.5 -50t-15 -48t-34 -27t-36 -22t-21 -32q-2 -14 4 -26t18 -20.5t28.5 -13.5t35.5 -5q61 0 110 21.5t83.5 58.5t53.5 86.5t19 105.5q0 37 -8 73.5t-27.5 81.5
t-52.5 104.5t-84 143.5l-82 143t-55.5 114.5t-31 99t-9.5 94.5q0 114 79.5 186t227.5 84q-20 51 -30.5 98t-10.5 97q0 76 27 143t75 116.5t114.5 78t146.5 28.5q47 0 80.5 -11.5t54.5 -32t31 -48t10 -59.5q0 -30 -10.5 -53.5t-27 -40t-38 -25t-43.5 -8.5q-32 0 -56 17.5
t-24 49.5q0 31 14 47t32 26.5t34.5 21.5t20.5 32q5 28 -18.5 48t-61.5 20q-61 0 -110 -21.5t-84 -58.5t-54 -86.5t-19 -105.5q0 -38 8 -74t27.5 -81.5t52.5 -105t84 -143.5l82 -143t55.5 -114t31.5 -98.5t10 -94.5q0 -115 -79.5 -186.5t-228.5 -84.5q20 -51 30.5 -98
t10.5 -96q0 -76 -26.5 -143t-74.5 -116.5t-114.5 -78.5t-146.5 -29zM569 109q110 15 161.5 67t51.5 141q0 35 -9.5 70.5t-32.5 83.5t-60.5 113.5l-93.5 160.5l-59 103.5t-46 91.5q-109 -15 -161 -67t-52 -142q0 -35 9.5 -70t32.5 -83t61 -114l94 -161l59 -103t45 -91z" />
    <glyph glyph-name="paragraph" unicode="&#xb6;" horiz-adv-x="1198" 
d="M631 735h-23q-95 0 -169 21t-125 59.5t-78 92.5t-27 120t28.5 132t86 119.5t143 86.5t199.5 33h704l-6 -25h-289l-407 -1630h-29l405 1630h-225l-405 -1630h-29z" />
    <glyph glyph-name="germandbls" unicode="&#xdf;" horiz-adv-x="1110" 
d="M-272 -483q-53 0 -88 13.5t-56 35t-30 48t-9 52.5q0 15 6 31t17.5 29.5t28.5 22.5t38 9q14 0 30.5 -4.5t31 -14.5t24 -26t9.5 -39q0 -14 -5 -27.5t-12.5 -27t-16 -26.5t-15.5 -25q1 -9 6 -16t11.5 -11.5t14 -7t13.5 -2.5q57 0 102.5 23t85 74.5t75.5 135.5t74 207
q38 124 71.5 244.5l66 244l65 252.5l68.5 269q31 121 89.5 231t154.5 197q60 54 136 83.5t167 29.5q64 0 110 -18.5t75 -51t42.5 -75.5t13.5 -91q0 -65 -15.5 -128.5t-43.5 -113.5q-71 -27 -120 -55.5t-79 -57.5t-43.5 -59t-13.5 -61q0 -69 27.5 -128t62.5 -114l36 -58
t32.5 -59.5t24 -62t11.5 -65.5q3 -93 -24.5 -160t-72.5 -109.5t-99.5 -63t-104.5 -20.5q-60 0 -101.5 17t-67.5 42.5t-38 55.5t-12 57q0 22 8 43.5t22 37.5t34 26t43 10q16 0 31 -4.5t27 -13.5t19 -23t7 -33q0 -24 -12 -39.5t-29 -21.5q-9 -4 -18.5 -6.5t-17 -6t-12.5 -8.5
t-5 -14q0 -48 39 -77t98 -29q38 0 69 16.5t53 46.5t34 71.5t12 90.5q0 41 -8 77t-20.5 67.5t-29 60t-34.5 55.5l-36.5 55t-31.5 56t-22.5 60t-8.5 67q0 33 10.5 67t35 68.5t65 69t100.5 67.5q26 20 48.5 50t39 67.5t26 79.5t9.5 86q0 50 -11.5 94.5t-34 78t-56 53
t-78.5 19.5q-110 0 -202.5 -112.5t-158.5 -339.5q-29 -101 -61 -225l-66.5 -256.5l-71 -267.5t-73.5 -257q-38 -124 -94.5 -229.5t-128.5 -179.5q-57 -57 -122.5 -90t-139.5 -33z" />
    <glyph glyph-name="AE" unicode="&#xc6;" horiz-adv-x="1946" 
d="M-184 8q29 2 71.5 12t77.5 27q42 20 89.5 64.5t95.5 95.5l65.5 74l101.5 116l127.5 147.5l144 167.5l151 176.5l148.5 174.5l137 161.5l116 137.5q-15 5 -42.5 10t-56 9t-53.5 6.5l-35 3.5l2 8h1055l-88 -320h-10q0 50 -8 101t-24 93t-40.5 70t-58.5 33q-32 4 -81.5 6
t-98.5 2h-242l-180 -643h200q41 0 72 6.5t54.5 16.5t40 21.5t28.5 21.5q29 23 56.5 71t58.5 126h12l-160 -570h-10q4 21 8.5 51.5t6 63t-1.5 63t-13 50.5q-5 10 -14.5 21t-26.5 20.5t-45 15.5t-70 6h-200l-148 -524q-18 -62 -19 -98.5t20 -56.5t66 -26t119 -6q52 0 109 0.5
t109 5t94.5 14t64.5 27.5q34 28 73.5 74.5t75 96t63.5 94t40 67.5h10l-133 -393h-1124l4 8q11 0 34 2t49.5 5.5t51 8t37.5 9.5q38 14 58.5 40.5t29.5 61.5l125 447h-477l-291 -349l-28 -37t-21 -29.5t-15 -26t-10 -27.5q-6 -23 12.5 -41.5t50.5 -32t71.5 -22t76.5 -9.5
l-2 -8h-538zM991 602l207 758h-33l-219 -260l-100 -118.5l-107.5 -127l-109 -128.5l-105.5 -124h467z" />
    <glyph glyph-name="Oslash" unicode="&#xd8;" horiz-adv-x="1436" 
d="M-2 -51l223 225q-51 69 -80.5 157.5t-29.5 194.5q0 126 31 242.5t86 217t130 182.5t162.5 140t183.5 90t193 32q108 0 208.5 -48.5t174.5 -136.5l205 209l14 -14l-207 -209q53 -69 84 -157t31 -193q0 -113 -26.5 -225t-76.5 -213.5t-120.5 -188.5t-159 -151t-192 -100
t-218.5 -36q-51 0 -103 13t-101 37.5t-94 60.5t-83 82l-221 -226zM627 -16q100 0 184.5 39.5t153 107.5t120 159.5t86.5 196t52.5 216.5t17.5 221q0 58 -6.5 115t-22.5 110l-903 -913q17 -56 44 -102t66 -79.5t90.5 -52t117.5 -18.5zM1206 1171q-18 52 -45 96.5t-65.5 77
t-88.5 50.5t-114 18q-103 0 -189 -40t-154.5 -109.5t-119.5 -162t-85.5 -197t-51.5 -216t-17 -217.5q0 -57 5.5 -111t19.5 -104z" />
    <glyph glyph-name="lessequal" unicode="&#x2264;" horiz-adv-x="1139" 
d="M109 573v41l905 441v-60l-830 -401l830 -401v-60zM117 53h905v-53h-905v53z" />
    <glyph glyph-name="greaterequal" unicode="&#x2265;" horiz-adv-x="1139" 
d="M125 193l829 401l-829 401v60l905 -441v-41l-905 -440v60zM117 53h905v-53h-905v53z" />
    <glyph glyph-name="yen" unicode="&#xa5;" horiz-adv-x="1137" 
d="M143 8q13 1 34.5 2.5t44 4.5t43 6.5t32.5 7.5q40 14 59.5 41t28.5 59l53 193h-317v22h323l48 176h-318v23h322q-28 130 -64.5 266t-75.5 264q-27 95 -82 131q-20 14 -41 20.5t-47 8.5l2 10h527l-2 -10q-30 -2 -65.5 -6.5t-66 -11t-51 -17t-20.5 -24.5q0 -9 9 -58.5
t26.5 -128.5t43.5 -182.5t60 -220.5l111 130.5l105 128.5l93 117l74.5 98t49.5 70.5t18 34.5q0 17 -21.5 29t-53.5 20.5t-68 13.5t-64 7l2 10h461l-2 -10q-16 -2 -45.5 -9t-61.5 -24q-26 -14 -69.5 -52.5t-96 -93l-111 -120.5l-116 -134.5l-110 -135l-93.5 -121.5h324v-23
h-332l-53 -176h332v-22h-340l-52 -189q-8 -32 -3 -57.5t40 -40.5q8 -4 26 -8.5t39.5 -8t42.5 -6.5t36 -4l-2 -8h-568z" />
    <glyph glyph-name="mu" unicode="&#xb5;" horiz-adv-x="1130" 
d="M-39 -463q-10 0 -20.5 4t-19 12t-14 21.5t-5.5 32.5q0 28 8 55.5t21.5 58t31.5 66.5t37 82q20 49 43.5 112.5t48.5 147.5l236 784h139l-193 -622q-15 -48 -24.5 -88.5t-9.5 -77.5q0 -47 27 -78t93 -31q52 0 98 19.5t85 51t71 72.5t56 83l211 671h139l-215 -651
q-6 -18 -12 -40.5t-10.5 -45t-7.5 -44t-3 -38.5q0 -35 19.5 -58.5t48.5 -23.5q72 0 135.5 75t114.5 206l14 -6q-28 -69 -56.5 -126t-63 -98t-77 -63.5t-96.5 -22.5q-87 0 -124 57t-15 175l-4 2q-29 -52 -67.5 -96t-82.5 -75.5t-90.5 -49t-91.5 -17.5q-50 0 -86.5 14
t-61.5 38t-39.5 55.5t-21.5 66.5h-4l-31 -112q-15 -56 -21 -106t-8 -95t-3 -85.5t-7 -76.5q-9 -66 -33 -100.5t-59 -34.5z" />
    <glyph glyph-name="mu" unicode="&#x3bc;" horiz-adv-x="1130" 
d="M-39 -463q-10 0 -20.5 4t-19 12t-14 21.5t-5.5 32.5q0 28 8 55.5t21.5 58t31.5 66.5t37 82q20 49 43.5 112.5t48.5 147.5l236 784h139l-193 -622q-15 -48 -24.5 -88.5t-9.5 -77.5q0 -47 27 -78t93 -31q52 0 98 19.5t85 51t71 72.5t56 83l211 671h139l-215 -651
q-6 -18 -12 -40.5t-10.5 -45t-7.5 -44t-3 -38.5q0 -35 19.5 -58.5t48.5 -23.5q72 0 135.5 75t114.5 206l14 -6q-28 -69 -56.5 -126t-63 -98t-77 -63.5t-96.5 -22.5q-87 0 -124 57t-15 175l-4 2q-29 -52 -67.5 -96t-82.5 -75.5t-90.5 -49t-91.5 -17.5q-50 0 -86.5 14
t-61.5 38t-39.5 55.5t-21.5 66.5h-4l-31 -112q-15 -56 -21 -106t-8 -95t-3 -85.5t-7 -76.5q-9 -66 -33 -100.5t-59 -34.5z" />
    <glyph glyph-name="ordfeminine" unicode="&#xaa;" horiz-adv-x="737" 
d="M346 741q-28 0 -55.5 8.5t-50 28.5t-36.5 54.5t-14 87.5q0 29 9 66t27 76t44.5 76.5t61.5 66.5t78 47t94 18q37 0 61 -19t35 -71h4l25 84h86l-123 -359q-4 -10 -8 -24t-7.5 -28t-5.5 -26t-2 -16q0 -23 9.5 -31t21.5 -8q43 0 80 40t61 110l11 -4q-14 -36 -29.5 -68
t-34.5 -55t-43 -36.5t-55 -13.5q-42 0 -65 30t-21 87h-4q-8 -14 -22.5 -34.5t-34 -40t-44.5 -33t-53 -13.5zM367 774q21 0 39 8.5t33.5 22.5t29 32t25.5 37l94 297q-8 41 -26 59.5t-56 18.5q-29 0 -56.5 -17.5t-51.5 -46t-44.5 -66t-35.5 -77t-23 -78.5t-8 -71q0 -59 21 -89
t59 -30zM156 598h440l-8 -35h-441z" />
    <glyph glyph-name="ordmasculine" unicode="&#xba;" horiz-adv-x="649" 
d="M346 741q-26 0 -54 11t-50.5 34.5t-37 61t-14.5 90.5q0 29 9 65t26 73t43 72t59.5 62t75.5 43.5t91 16.5q26 0 53.5 -11t50 -35t37 -61.5t14.5 -89.5q0 -30 -8.5 -66t-25.5 -73t-42.5 -71.5t-59.5 -61.5t-75.5 -43.5t-91.5 -16.5zM358 754q33 0 60.5 16.5t49.5 44.5
t38.5 64t28 74t17 76.5t5.5 70.5q0 72 -17.5 116t-56.5 44q-44 0 -80.5 -36t-63 -89t-41.5 -112.5t-15 -107.5q0 -35 4.5 -64.5t13.5 -51t23 -33.5t34 -12zM141 598h441l-9 -35h-440z" />
    <glyph glyph-name="ae" unicode="&#xe6;" horiz-adv-x="1399" 
d="M309 -27q-50 0 -97 15.5t-84 52.5t-59 99t-22 155q0 53 14.5 122t43.5 141t73 141.5t104 123.5t136 87.5t168 33.5q49 0 86.5 -15.5t63.5 -39.5t41.5 -52.5t21.5 -54.5h4l53 150h109l-39 -113q57 56 126.5 90.5t155.5 34.5q34 0 67 -8.5t59 -25.5t41.5 -43t15.5 -60
q0 -60 -24 -108.5t-66 -87.5t-98 -68t-120 -49.5t-133 -32t-135 -15.5q-11 -46 -17.5 -100t-6.5 -100q0 -106 46 -163.5t130 -57.5q56 0 108 22.5t98.5 61.5t86 90.5t71.5 109.5l12 -6q-47 -91 -97.5 -154t-102.5 -102.5t-104 -57.5t-103 -18q-43 0 -90.5 13t-88.5 44.5
t-70.5 85t-37.5 134.5q-2 0 -3 1q-1 0 -1 1q-24 -49 -55 -98.5t-71.5 -89t-92.5 -64.5t-117 -25zM336 18q45 -2 84.5 12t74 41.5t64.5 67.5t57 90l175 523q-6 34 -21.5 64t-41.5 52t-62.5 34.5t-83.5 12.5q-62 0 -115.5 -32t-97 -85.5t-77 -122.5t-56.5 -143.5t-34.5 -148.5
t-11.5 -137q0 -60 10 -102.5t28.5 -69.5t45.5 -40.5t62 -15.5zM817 457q127 13 213 53t138.5 90.5t75 103t22.5 91.5q0 26 -6 50.5t-19 43t-32.5 30t-47.5 11.5q-51 0 -103 -40t-98 -106t-83.5 -151.5t-59.5 -175.5z" />
    <glyph glyph-name="oslash" unicode="&#xf8;" horiz-adv-x="936" 
d="M-23 -63l140 155q-29 44 -45.5 102t-16.5 136q0 55 16.5 122t48.5 135.5t78 132.5t105 114t129.5 80t151.5 30q60 0 115.5 -23t97.5 -71l131 145l12 -14l-131 -147q34 -45 54 -107t20 -143q0 -52 -15.5 -118t-46.5 -134t-76 -133t-105 -115.5t-133.5 -81.5t-160.5 -31
q-63 0 -120 26.5t-99 80.5l-137 -154zM365 -14q60 0 111 30t92.5 80.5t73.5 116t53.5 137t32.5 143.5t11 136q0 34 -2.5 63t-7.5 53l-520 -579q5 -23 10.5 -43.5t11.5 -34.5q23 -53 56.5 -77.5t77.5 -24.5zM725 770q-3 12 -5 24t-7 23q-22 60 -60 86.5t-80 26.5
q-56 0 -105.5 -28.5t-91 -77t-74.5 -112t-56 -134.5t-35 -145t-12 -142q0 -57 6 -103z" />
    <glyph glyph-name="questiondown" unicode="&#xbf;" horiz-adv-x="827" 
d="M547.025 1085.02q74.9951 0 120.492 -49.4961q45.498 -49.4971 45.498 -142.492q0 -59.9961 -20.999 -107.993t-60.4961 -88.4941q-39.498 -40.498 -96.9941 -75.4951q-57.4971 -34.998 -130.492 -69.9961q-76.9951 -35.998 -125.492 -69.4961t-76.4951 -69.4951
q-27.999 -35.998 -37.998 -76.4961q-9.99902 -40.4971 -9.99902 -89.4941q0 -44.9971 13.999 -86.9951q13.999 -41.9971 43.9971 -74.4951t75.4951 -52.4971q45.4971 -19.998 108.493 -19.998q52.9971 0 96.9941 16.498q43.998 16.5 75.9961 44.498t49.9971 65.9961
q17.998 37.9971 17.998 79.9951q0 37.9971 -12.499 69.4951t-33.998 54.9971q-21.498 23.498 -50.9971 36.4971q-29.498 13 -63.4961 13q-30.998 0 -47.9971 -8v-5.99902q9 0.999023 21.999 -3q12.999 -4 24.499 -12.499q11.499 -8.5 19.498 -20.999q8 -12.499 8 -29.498
q0 -33.998 -21.999 -56.9971q-21.998 -22.998 -55.9961 -22.998q-41.998 0 -65.9961 19.998q-23.999 19.999 -23.999 59.9971q0 19.999 9.5 38.4971q9.49902 18.499 26.998 32.998t42.9971 22.999q25.499 8.49902 57.4971 8.49902q36.9971 0 70.4951 -14.499
t58.4971 -40.4971q24.998 -25.999 39.4971 -61.9961q14.499 -35.998 14.499 -77.9961q0 -48.9961 -21.498 -92.4941q-21.499 -43.4971 -59.4971 -76.4951q-37.9971 -32.998 -91.4941 -51.9971q-53.4971 -18.998 -118.492 -18.998q-80.9951 0 -140.492 26.498
q-59.4961 26.498 -98.9941 69.9961q-39.4971 43.4971 -58.9961 99.9932q-19.499 56.4971 -19.499 115.493q0 60.9961 17.999 109.993t53.4971 89.4951q35.498 40.4971 87.4941 74.4951q51.9971 33.998 119.993 63.9961q66.9961 28.998 127.492 61.4961t106.993 69.9961
q46.4971 37.4971 73.9961 81.4951q27.498 43.9971 27.498 95.9941q0 28.998 -10.499 51.4961q-10.5 22.499 -27.999 37.498t-40.9971 22.499q-23.499 7.49902 -49.4971 7.49902q-27.998 0 -51.9971 -13.499q-23.998 -13.499 -43.4971 -35.998
q-19.499 -22.498 -32.998 -52.9971q-13.499 -30.498 -19.499 -65.4951l-9.99902 3.99902q15.999 89.9951 60.9961 139.992q44.9971 49.9961 112.993 49.9961zM664.019 1431q45.9971 0 77.4951 -29.998t31.498 -75.9951q0 -22.999 -8.5 -42.998
q-8.49902 -19.998 -22.998 -34.498q-14.499 -14.499 -34.498 -22.998q-19.999 -8.5 -42.9971 -8.5q-22.999 0 -42.998 8.5q-19.998 8.49902 -34.4971 22.998q-14.5 14.5 -22.999 34.498q-8.49902 19.999 -8.49902 42.998q0 45.9971 31.498 75.9951t77.4951 29.998z" />
    <glyph glyph-name="exclamdown" unicode="&#xa1;" horiz-adv-x="635" 
d="M475.019 973.026q-15.999 -81.9951 -31.498 -174.989t-29.498 -185.988l-26.998 -179.989l-22.999 -157.99q-9.99902 -70.9951 -17.999 -119.993q-7.99902 -48.9961 -12.999 -65.9951q-11.999 -45.9971 -40.4971 -74.9961q-28.499 -28.998 -71.4961 -28.998
q-37.998 0 -58.9961 22.499q-20.999 22.498 -20.999 63.4961q0 15.999 12.999 59.9961t35.998 109.493l53.9971 148.991l66.4951 178.989l73.4961 199.487l75.9951 209.987zM549.015 1427q45.9971 0 76.9951 -29.998t30.998 -75.9951q0 -46.998 -30.998 -77.9961
t-76.9951 -30.998q-46.9971 0 -77.9961 30.998q-30.998 30.998 -30.998 77.9961q0 45.9971 30.998 75.9951q30.999 29.998 77.9961 29.998z" />
    <glyph glyph-name="logicalnot" unicode="&#xac;" horiz-adv-x="1139" 
d="M940 526h-854v58h920v-504h-66v446z" />
    <glyph glyph-name="florin" unicode="&#x192;" horiz-adv-x="922" 
d="M-201 -397q-35 0 -66 8.5t-53.5 23.5t-35.5 36.5t-13 47.5q0 20 6 38.5t17 33t28 23t39 8.5q41 0 65 -22.5t24 -65.5q0 -15 -5 -29.5t-12.5 -27t-16 -23t-14.5 -16.5q5 -10 19.5 -15.5t25.5 -5.5q57 0 103.5 27t88 83.5t80 143.5t79.5 207l53 161.5l44.5 145.5l39.5 136
l39 134h-217l8 29h215q24 78 49.5 145.5t56.5 126t70 109t90 94.5q68 59 136 89t141 30q46 0 82.5 -9.5t61.5 -26t38.5 -38t13.5 -45.5q0 -19 -4.5 -37.5t-14 -33.5t-24.5 -24t-37 -9q-38 0 -63 19t-25 61q0 18 8 47t25 57q-3 6 -11.5 10.5t-19 8t-21.5 5t-20 1.5
q-114 0 -201.5 -114.5t-152.5 -338.5l-35 -127h258l-10 -29h-254l-40.5 -135l-41 -134.5l-41 -130l-39.5 -120.5q-41 -120 -96 -214t-131 -171q-69 -71 -144.5 -109t-144.5 -38z" />
    <glyph glyph-name="guillemotleft" unicode="&#xab;" horiz-adv-x="1108" 
d="M420 37l-43 49l-54 62l-59.5 68l-58.5 66.5l-51 58l-37 42.5q-19 20 -26 35t1 41t21 39.5t41 31.5l59.5 40l85.5 57.5l99 67l101 69.5l92 64l71 51l8 -9l-426 -415l184 -414zM848 37l-42.5 49l-54.5 62l-59.5 68l-58 66.5l-51 58l-37.5 42.5q-19 20 -26 35t1 41t21 39.5
t41 31.5l59.5 40l85.5 57.5l99 67l101 69.5l92 64l71 51l8 -9l-426 -415l184 -414z" />
    <glyph glyph-name="guillemotright" unicode="&#xbb;" horiz-adv-x="1108" 
d="M2 47l426 416l-184 414l8 4l42.5 -49l54.5 -62l59.5 -68l58 -67l51 -58l37.5 -42q19 -20 26 -35t-1 -41q-4 -13 -9 -22.5t-12 -17.5t-17 -15.5t-24 -16.5l-59.5 -39.5l-85.5 -57.5l-99 -67l-101 -69l-92 -64l-71 -51zM430 47l426 416l-184 414l8 4l42.5 -49l54.5 -62
l59.5 -68l58.5 -67l51 -58l37 -42q19 -20 26 -35t-1 -41q-4 -13 -9 -22.5t-12 -17.5t-17 -15.5t-24 -16.5l-60 -39.5l-85 -57.5l-99 -67l-101 -69l-92 -64l-71 -51z" />
    <glyph glyph-name="nonbreakingspace" unicode="&#xa0;" horiz-adv-x="233" 
 />
    <glyph glyph-name="Agrave" unicode="&#xc0;" horiz-adv-x="1290" 
d="M-233 8q10 1 26.5 4.5t35.5 9t38.5 12.5t36.5 15q23 11 47 30t47.5 43.5t47 52l44.5 54.5l223 280.5l240 302l244.5 308.5l236.5 301h15v-1274q0 -21 0.5 -38.5t4.5 -31.5t12.5 -24.5t23.5 -17.5q23 -13 57 -19t63 -8l-2 -8h-546l2 8q48 3 93.5 10.5t71.5 16.5
q41 15 56.5 45t15.5 61v437h-506l-74.5 -96.5l-68.5 -92l-58 -79.5l-42 -60l-28 -40t-25 -39t-18 -36t-7 -31q0 -23 23.5 -40t57 -29t69 -19t59.5 -8l-2 -8h-517zM901 598l12 633l-170 -213l-78.5 -99l-84.5 -106l-86.5 -108.5l-83.5 -106.5h491zM1102 1478l-72 73
l-70.5 69.5l-61 59l-44.5 42.5q-51 48 -51 101q0 27 17.5 46t45.5 19q35 0 54.5 -22.5t39.5 -65.5l29.5 -62.5l38 -79.5l42 -88l40.5 -87l-8 -5v0z" />
    <glyph glyph-name="Atilde" unicode="&#xc3;" horiz-adv-x="1290" 
d="M-233 8q10 1 26.5 4.5t35.5 9t38.5 12.5t36.5 15q23 11 47 30t47.5 43.5t47 52l44.5 54.5l223 280.5l240 302l244.5 308.5l236.5 301h15v-1274q0 -21 0.5 -38.5t4.5 -31.5t12.5 -24.5t23.5 -17.5q23 -13 57 -19t63 -8l-2 -8h-546l2 8q48 3 93.5 10.5t71.5 16.5
q41 15 56.5 45t15.5 61v437h-506l-74.5 -96.5l-68.5 -92l-58 -79.5l-42 -60l-28 -40t-25 -39t-18 -36t-7 -31q0 -23 23.5 -40t57 -29t69 -19t59.5 -8l-2 -8h-517zM901 598l12 633l-170 -213l-78.5 -99l-84.5 -106l-86.5 -108.5l-83.5 -106.5h491zM698 1534q8 14 23.5 38
t36 51.5t45.5 56t52.5 51t57.5 37t61 14.5q32 0 57.5 -8.5t47 -21.5t40.5 -28.5t38 -28.5t39.5 -21.5t44.5 -8.5q34 0 68.5 17.5t64.5 42.5t53 51.5t35 44.5l10 -5l-27.5 -45.5t-37.5 -55t-45.5 -56.5t-52.5 -50.5t-57.5 -36.5t-60.5 -14q-29 0 -53.5 8.5t-46 21.5t-41 28.5
t-39.5 28.5t-41 21.5t-45 8.5q-35 0 -68.5 -16t-63 -38.5t-51.5 -47.5t-34 -43z" />
    <glyph glyph-name="Otilde" unicode="&#xd5;" horiz-adv-x="1436" 
d="M614 -33q-90 0 -179.5 38.5t-161.5 110.5t-117 175.5t-45 234.5q0 126 31 242.5t86 217t130 182.5t162.5 140t183.5 90t193 32q65 0 128 -17.5t119.5 -51t105 -82t83.5 -109.5t54.5 -133.5t19.5 -155.5q0 -113 -26.5 -225t-76.5 -213.5t-120.5 -188.5t-159 -151
t-192 -100t-218.5 -36zM627 -16q100 0 184.5 39.5t153 107.5t120 159.5t86.5 196t52.5 216.5t17.5 221q0 92 -17.5 180t-58 156.5t-107 110.5t-165.5 42q-103 0 -189 -40t-154.5 -109.5t-119.5 -162t-85.5 -197t-51.5 -216t-17 -217.5q0 -95 18.5 -183t59.5 -155.5t108 -108
t165 -40.5zM596 1534q8 14 23.5 38t36 51.5t45.5 56t52.5 51t57.5 37t61 14.5q32 0 57.5 -8.5t47 -21.5t40.5 -28.5t38 -28.5t39.5 -21.5t44.5 -8.5q34 0 68.5 17.5t64.5 42.5t53 51.5t35 44.5l10 -5l-27.5 -45.5t-37.5 -55t-45.5 -56.5t-52.5 -50.5t-57.5 -36.5t-60.5 -14
q-29 0 -53.5 8.5t-46 21.5t-41 28.5t-39.5 28.5t-41 21.5t-45 8.5q-35 0 -68.5 -16t-63 -38.5t-51.5 -47.5t-34 -43z" />
    <glyph glyph-name="OE" unicode="&#x152;" horiz-adv-x="2003" 
d="M627 0q-103 0 -196.5 33t-164.5 99t-113 164.5t-42 229.5q0 100 19 192t53.5 174.5t83.5 153.5t110 130q109 105 250.5 164t300.5 59h1140l-88 -320h-10q0 50 -8 101t-24 93t-40.5 70t-58.5 33q-32 4 -81.5 6t-98.5 2h-242l-180 -643h201q40 0 71.5 6.5t55 16.5t40 21.5
t27.5 21.5q29 23 56.5 71t58.5 126h12l-160 -570h-10q5 21 9.5 51.5t5.5 63t-2 63t-13 50.5q-5 10 -14.5 21t-26.5 20.5t-44.5 15.5t-69.5 6h-201l-148 -524q-18 -62 -19 -98.5t20 -56.5t66.5 -26t119.5 -6q51 0 108 0.5t109.5 5t94.5 14t65 27.5q34 28 73.5 74.5t75 96
t63.5 94t40 67.5h10l-133 -393h-1151zM625 16q100 0 162.5 20.5t93.5 69.5q22 36 42 84t43.5 121.5t53 178l70.5 251.5l38.5 141.5t35 137.5t25.5 123.5t11 99.5q0 31 -13 56t-45 43t-87 28t-140 10q-130 0 -232 -52.5t-179 -143.5q-56 -66 -99 -148t-71.5 -174t-43 -191.5
t-14.5 -199.5q0 -95 25 -178t70.5 -144.5t110 -97t143.5 -35.5z" />
    <glyph glyph-name="oe" unicode="&#x153;" horiz-adv-x="1444" 
d="M346 -29q-57 0 -109.5 22t-93 66t-64.5 111.5t-24 159.5q0 55 16.5 122t48.5 135.5t78 132.5t105 114t129.5 80t151.5 30q45 0 87.5 -13t79 -40t64.5 -67.5t45 -94.5q36 45 78.5 84.5t91.5 68.5t105 45.5t118 16.5q35 0 68 -8.5t58.5 -25.5t41 -43t15.5 -60
q0 -60 -24 -108.5t-66 -87.5t-98 -68t-120 -49.5t-133 -32t-135 -15.5q-11 -46 -17.5 -100t-6.5 -100q0 -106 46 -163.5t130 -57.5q56 0 108 22.5t98.5 61.5t86 90.5t71.5 109.5l13 -6q-48 -91 -98.5 -154t-102.5 -102.5t-104 -57.5t-103 -18q-36 0 -75.5 8.5t-76 30
t-67.5 57.5t-49 91q-34 -40 -74 -74.5t-85.5 -59.5t-97.5 -39t-110 -14zM365 -14q60 0 111 30t92.5 80.5t73.5 116t53.5 137t32.5 143.5t11 136q0 84 -13.5 141.5t-36 93t-53 51t-63.5 15.5q-56 0 -105.5 -28.5t-91 -77t-74.5 -112t-56 -134.5t-35 -145t-12 -142
q0 -80 12.5 -137.5t34.5 -95t52.5 -55t66.5 -17.5zM862 457q127 13 213 53t138.5 90.5t75 103t22.5 91.5q0 26 -6 50.5t-19 43t-32.5 30t-47.5 11.5q-51 0 -103 -40t-98 -106t-83.5 -151.5t-59.5 -175.5z" />
    <glyph glyph-name="divide" unicode="&#xf7;" horiz-adv-x="1139" 
d="M582 131q-41 0 -68 27t-27 67q0 41 27 69t68 28q40 0 68 -28t28 -69q0 -40 -28 -67t-68 -27zM582 741q-41 0 -68 27t-27 68q0 40 27 68t68 28q40 0 68 -28t28 -68q0 -41 -28 -68t-68 -27zM88 561h987v-59h-987v59z" />
    <glyph glyph-name="e.ordn" horiz-adv-x="774" 
d="M426 569q-38 0 -80 11t-77.5 38t-59 73t-23.5 116q0 41 14 91.5t40.5 102t64.5 100t86 86t104.5 60.5t120.5 23q63 0 103.5 -25.5t40.5 -79.5q0 -42 -18 -77t-48.5 -64t-72 -51t-88.5 -39t-97.5 -28t-99.5 -17q-12 -56 -12 -119q0 -78 31 -120t94 -42q38 0 76 16t72.5 44
t64.5 65.5t53 79.5l12 -8q-32 -64 -67.5 -108.5t-73.5 -73t-78 -41.5t-82 -13zM340 905q94 15 156.5 49t99 73t51.5 76.5t15 61.5q0 41 -16 64.5t-58 23.5q-33 0 -70 -28t-71 -76t-62.5 -111t-44.5 -133z" />
    <glyph glyph-name="ydieresis" unicode="&#xff;" horiz-adv-x="1061" 
d="M184 -489q-89 0 -139.5 20t-76 48t-32 57t-6.5 47q0 30 10.5 52.5t27.5 37.5t37.5 22.5t41.5 7.5q40 0 60 -22.5t20 -50.5q0 -21 -5.5 -34.5t-14 -22.5t-18.5 -13.5t-19 -7.5q-11 -3 -20.5 -5t-17 -5.5t-12 -10t-4.5 -18.5q0 -25 13.5 -42t35.5 -27.5t50 -15.5t57 -5
q108 0 191.5 51.5t150 145t118.5 224t97 289.5l-4 3q-29 -53 -67.5 -100.5t-84 -83.5t-95 -57.5t-99.5 -21.5q-51 0 -91 18.5t-67 50t-41 73.5t-14 88q0 10 3 27.5t8 38t12 42.5t16 43l117 301q21 54 33 101.5t12 74.5q0 41 -17 60.5t-45 19.5q-36 0 -69.5 -19.5t-64 -56
t-59 -89t-53.5 -117.5l-14 4q27 67 54.5 123.5t61 97.5t75 63.5t96.5 22.5q33 0 61.5 -9t49 -28t32.5 -49.5t12 -73.5q0 -37 -11.5 -76.5t-31.5 -93.5l-125 -319q-36 -93 -36 -166q0 -47 27 -78t93 -31q52 0 97.5 19.5t86 53.5t75.5 80.5t67 100.5l199 643h133l-215 -696
q-57 -183 -127.5 -316.5t-153.5 -220t-178.5 -128t-202.5 -41.5zM549 1152q-44 0 -65 27.5t-21 62.5q0 22 8 43t23.5 37t37.5 25.5t49 9.5q18 0 32.5 -8t25 -20.5t16.5 -28.5t6 -31q0 -22 -7.5 -43t-22 -37.5t-35 -26.5t-47.5 -10zM944 1152q-44 0 -65 27.5t-21 62.5
q0 22 8 43t23.5 37t37.5 25.5t50 9.5q18 0 32.5 -8t25 -20.5t16 -28.5t5.5 -31q0 -22 -7.5 -43t-22 -37.5t-35 -26.5t-47.5 -10z" />
    <glyph glyph-name="Ydieresis" unicode="&#x178;" horiz-adv-x="1255" 
d="M242 8l33 2.5t41 4.5t40 6.5t31 7.5q20 7 34.5 18.5t24.5 25t16 28.5t9 28l133 537q9 34 14.5 72t9.5 75.5t5.5 71.5t1.5 59q0 70 -14 137.5t-45.5 120.5t-81.5 86t-123 33q-36 0 -72 -14t-68 -41t-58.5 -67.5t-43.5 -94.5l-12 4q106 315 356 315q78 0 132.5 -36
t88.5 -95t49 -134t15 -154q0 -27 -2 -60t-5 -68t-7 -69.5t-9 -65.5h19q56 167 127 294.5t149 214t158.5 131t154.5 44.5q54 0 87.5 -26.5t33.5 -69.5q0 -25 -8.5 -43.5t-22 -30.5t-30.5 -18t-35 -6q-24 0 -39.5 7t-25 17.5t-13.5 22t-4 20.5q0 20 8.5 43t18.5 35l-8 8
q-55 -6 -130 -51.5t-152 -131.5t-146.5 -213.5t-112.5 -297.5l-139 -553q-3 -12 -5 -22.5t-2 -18.5q2 -21 13.5 -34.5t34.5 -24.5q7 -4 28.5 -9t47 -9.5t50.5 -7.5t39 -3l-2 -8h-589zM734 1593q-44 0 -65 27.5t-21 62.5q0 22 8 43t23.5 37t37.5 25.5t49 9.5q18 0 32.5 -8
t25 -20.5t16.5 -28.5t6 -31q0 -22 -7.5 -43t-22 -37.5t-35 -26.5t-47.5 -10zM1129 1593q-44 0 -65 27.5t-21 62.5q0 22 8 43t23.5 37t37.5 25.5t50 9.5q18 0 32.5 -8t25 -20.5t16 -28.5t5.5 -31q0 -22 -7.5 -43t-22 -37.5t-35 -26.5t-47.5 -10z" />
    <glyph glyph-name="fraction" unicode="&#x2044;" horiz-adv-x="659" 
d="M-481 -391l1583 1931l39 -27l-1585 -1931z" />
    <glyph glyph-name="fraction" unicode="&#x2215;" horiz-adv-x="659" 
d="M-481 -391l1583 1931l39 -27l-1585 -1931z" />
    <glyph glyph-name="currency" unicode="&#xa4;" horiz-adv-x="1120" 
d="M596 -29q-108 0 -186.5 42t-127.5 113.5t-68.5 167t-10.5 202.5h-131v22h133q5 45 13.5 93t21.5 91h-111v23h119q39 114 105.5 213.5t152 173t186.5 116t209 42.5q84 0 144 -20t98.5 -52t57 -71.5t18.5 -79.5q0 -39 -10 -68t-27 -48t-40 -28.5t-50 -9.5q-38 0 -58 21.5
t-20 52.5q0 30 12.5 48t29 33t31 32t19.5 44q4 22 -9 44.5t-41 41.5t-69 31t-94 12q-77 0 -149 -43t-134.5 -115.5t-113 -168.5t-84.5 -201h520v-23h-526q-13 -43 -23 -91t-16 -93h426v-22h-431q-6 -61 -7 -119.5t7 -111t26.5 -96.5t50 -76t78.5 -50t112 -18q66 0 125.5 20
t114 56t104.5 87t98 113l10 -8q-41 -63 -93 -121t-113 -103t-131 -71.5t-148 -26.5z" />
    <glyph glyph-name="guilsinglleft" unicode="&#x2039;" horiz-adv-x="680" 
d="M420 37l-43 49l-54 62l-59.5 68l-58.5 66.5l-51 58l-37 42.5q-19 20 -26 35t1 41t21 39.5t41 31.5l59.5 40l85.5 57.5l99 67l101 69.5l92 64l71 51l8 -9l-426 -415l184 -414l-8 -4v0z" />
    <glyph glyph-name="guilsinglright" unicode="&#x203a;" horiz-adv-x="680" 
d="M2 47l426 416l-184 414l8 4l42.5 -49l54.5 -62l59.5 -68l58 -67l51 -58l37.5 -42q19 -20 26 -35t-1 -41q-4 -13 -9 -22.5t-12 -17.5t-17 -15.5t-24 -16.5l-59.5 -39.5l-85.5 -57.5l-99 -67l-101 -69l-92 -64l-71 -51z" />
    <glyph glyph-name="daggerdbl" unicode="&#x2021;" horiz-adv-x="836" 
d="M293 27q-32 9 -39.5 37t4.5 65q7 21 21 45.5t29.5 48.5l30.5 46t23 38q-15 -8 -37 -12.5t-53 4.5q-34 11 -52 25.5t-40 25.5q-15 -28 -40 -43.5t-50 -9.5q-15 4 -22.5 14t-10.5 21.5t-2.5 23.5t2.5 21q10 28 34.5 40.5t55.5 4.5q27 -8 43.5 -24t30 -33l26 -32.5
t32.5 -21.5q10 -3 20 2.5t18.5 16t16 25.5l14.5 30q5 10 14 30.5l21 47l25 57.5l26 62.5l24 60t19 51.5l10 -4q-8 -35 -15.5 -84.5l-14.5 -99t-12 -90l-7 -56.5t-3.5 -32.5t0 -30.5t7 -24t17.5 -13q24 -7 43.5 -1.5t38.5 14t39 14t45 -1.5q35 -10 48.5 -34t4.5 -52
q-6 -22 -28 -38.5t-50 -8.5q-26 9 -34.5 33t-6.5 55q-12 1 -23 0.5t-23.5 -1t-26 0.5t-29.5 6q-29 8 -49 25t-29 32q-2 -19 0.5 -45t4.5 -54t2 -55t-5 -49q-11 -42 -32.5 -62.5t-55.5 -10.5zM494 752q7 34 15 84t14.5 99l12 89.5t7.5 56.5t3.5 32.5t0 31t-7 24.5t-17.5 13
q-24 7 -43.5 1.5t-38.5 -14t-39 -14t-45 1.5q-35 9 -48.5 33.5t-4.5 52.5q6 22 28 38t50 9q26 -9 34.5 -33t6.5 -55q23 -3 46.5 0t55.5 -6q29 -8 49 -25t29 -32q1 19 -1 45l-4 53.5t-2 55t5 48.5q11 42 32.5 62.5t55.5 11.5q32 -9 39.5 -37t-4.5 -65q-7 -22 -21 -46.5
t-29.5 -48.5l-30.5 -45.5t-24 -37.5q16 8 38 12.5t53 -4.5q17 -6 29.5 -12.5t22.5 -13.5l19.5 -13.5t20.5 -11.5q15 27 40 43t50 10q15 -5 22.5 -14.5t10.5 -21t2.5 -23.5t-2.5 -21q-10 -28 -35 -40.5t-55 -4.5q-27 7 -43.5 23t-30 33.5t-26.5 32.5t-32 21q-11 3 -20.5 -2
t-18 -15.5t-16 -25.5l-14.5 -30q-5 -10 -14 -30.5l-21 -47l-25 -57.5l-26 -62.5l-24 -60.5l-19 -51z" />
    <glyph glyph-name="quotesinglbase" unicode="&#x201a;" horiz-adv-x="340" 
d="M-127 -258q87 45 150 109.5t92 152.5h-68q-29 0 -49.5 7.5t-33 19.5t-18 28t-5.5 33q0 24 9.5 46.5t26.5 40t41.5 28t53.5 10.5q51 0 80.5 -35t29.5 -94q0 -43 -14.5 -89.5t-49.5 -92.5t-94 -90.5t-147 -83.5z" />
    <glyph glyph-name="quotedblbase" unicode="&#x201e;" horiz-adv-x="688" 
d="M-127 -258q87 45 150 109.5t92 152.5h-68q-29 0 -49.5 7.5t-33 19.5t-18 28t-5.5 33q0 24 9.5 46.5t26.5 40t41.5 28t53.5 10.5q51 0 80.5 -35t29.5 -94q0 -43 -14.5 -89.5t-49.5 -92.5t-94 -90.5t-147 -83.5zM221 -258q87 45 150 109.5t92 152.5h-68q-29 0 -49.5 7.5
t-33 19.5t-18 28t-5.5 33q0 24 9.5 46.5t26.5 40t41.5 28t53.5 10.5q51 0 80.5 -35t29.5 -94q0 -43 -14.5 -89.5t-49.5 -92.5t-94 -90.5t-147 -83.5z" />
    <glyph glyph-name="perthousand" unicode="&#x2030;" horiz-adv-x="2441" 
d="M414 614q-53 0 -99 18t-80 51t-53.5 79.5t-19.5 103.5q0 78 32.5 151t86 128.5t123 89t143.5 33.5q56 0 106 -18t88 -51.5t60 -81t22 -105.5t-18 -110t-48 -96.5t-71 -79.5t-86 -60t-93 -38.5t-93 -13.5zM414 633q58 0 108 36.5t87 96.5t58 136t21 155q0 38 -8.5 73
t-25.5 62t-42 43t-59 16q-62 0 -109.5 -42t-80 -106t-49.5 -139t-17 -141q0 -34 4 -68t16.5 -61t35.5 -44t61 -17zM1147 -27q-53 0 -99 18t-80 51t-53.5 79.5t-19.5 103.5q0 78 32.5 151t86 128.5t123 89t143.5 33.5q56 0 106.5 -18t88 -51.5t59.5 -81t22 -105.5t-18 -110
t-48 -96.5t-71 -79.5t-86 -60t-93 -38.5t-93 -13.5zM1147 -8q59 0 109.5 36.5t87 96.5t57 136t20.5 155q0 38 -8.5 73t-25.5 62t-42 43t-59 16q-62 0 -110 -42t-80.5 -106t-49 -139t-16.5 -141q0 -34 4.5 -68t17 -61t35.5 -44t60 -17zM1929 -33q-53 0 -99 18t-80 51
t-53.5 79.5t-19.5 103.5q0 78 32.5 151t86.5 128.5t123 89t143 33.5q56 0 106.5 -18t88.5 -51.5t60 -81t22 -105.5t-18 -110t-48.5 -96.5t-71 -79.5t-86 -60t-93.5 -38.5t-93 -13.5zM1929 -14q59 0 109.5 36.5t87 96.5t57.5 136t21 155q0 38 -8.5 73t-25.5 62t-42.5 43
t-59.5 16q-62 0 -109.5 -42t-80 -106t-49.5 -139t-17 -141q0 -34 4.5 -68t17 -61t35.5 -44t60 -17zM166 -180l1333 1585l25 -19l-1336 -1585z" />
    <glyph glyph-name="Acircumflex" unicode="&#xc2;" horiz-adv-x="1290" 
d="M-233 8q10 1 26.5 4.5t35.5 9t38.5 12.5t36.5 15q23 11 47 30t47.5 43.5t47 52l44.5 54.5l223 280.5l240 302l244.5 308.5l236.5 301h15v-1274q0 -21 0.5 -38.5t4.5 -31.5t12.5 -24.5t23.5 -17.5q23 -13 57 -19t63 -8l-2 -8h-546l2 8q48 3 93.5 10.5t71.5 16.5
q41 15 56.5 45t15.5 61v437h-506l-74.5 -96.5l-68.5 -92l-58 -79.5l-42 -60l-28 -40t-25 -39t-18 -36t-7 -31q0 -23 23.5 -40t57 -29t69 -19t59.5 -8l-2 -8h-517zM901 598l12 633l-170 -213l-78.5 -99l-84.5 -106l-86.5 -108.5l-83.5 -106.5h491zM707 1442l86.5 95.5l93 103
l84 93.5l59.5 68q11 12 19 20t17 12t21 5.5t31 1.5q16 0 26 -1.5t16.5 -5t10.5 -10.5t9 -18l155 -366l-8 -5l-231 287l-381 -287z" />
    <glyph glyph-name="Ecircumflex" unicode="&#xca;" horiz-adv-x="1274" 
d="M-72 8q11 0 34.5 2t49.5 5.5t50.5 8t37.5 9.5q39 14 59 40.5t29 61.5l310 1116q4 16 6 31t-0.5 28.5t-11.5 25t-27 20.5q-12 5 -32.5 11t-43 11t-43.5 8.5t-35 4.5l4 8h1024l-88 -320h-10q0 50 -8 101t-24 93t-40.5 70t-58.5 33q-32 4 -81.5 6t-98.5 2h-242l-180 -643
h201q40 0 71.5 6.5t54.5 16.5t39.5 21.5t28.5 21.5q29 23 56.5 71t58.5 126h12l-160 -570h-10q4 21 8.5 51.5t6 63t-1.5 63t-13 50.5q-5 10 -14.5 21t-26.5 20.5t-44.5 15.5t-69.5 6h-201l-148 -524q-18 -62 -18.5 -98.5t21 -56.5t67 -26t117.5 -6q51 0 108 0.5t109.5 5
t94.5 14t65 27.5t48.5 46t50.5 59.5t49 65.5l44 64.5l35.5 56t23.5 40.5h11l-133 -393h-1125zM617 1483l86.5 95.5l93 103l84 93.5l59.5 68q11 12 19 20t17 12t21 5.5t31 1.5q16 0 26 -1.5t16.5 -5t10.5 -10.5t9 -18l155 -366l-8 -5l-231 287l-381 -287z" />
    <glyph glyph-name="Aacute" unicode="&#xc1;" horiz-adv-x="1290" 
d="M-233 8q10 1 26.5 4.5t35.5 9t38.5 12.5t36.5 15q23 11 47 30t47.5 43.5t47 52l44.5 54.5l223 280.5l240 302l244.5 308.5l236.5 301h15v-1274q0 -21 0.5 -38.5t4.5 -31.5t12.5 -24.5t23.5 -17.5q23 -13 57 -19t63 -8l-2 -8h-546l2 8q48 3 93.5 10.5t71.5 16.5
q41 15 56.5 45t15.5 61v437h-506l-74.5 -96.5l-68.5 -92l-58 -79.5l-42 -60l-28 -40t-25 -39t-18 -36t-7 -31q0 -23 23.5 -40t57 -29t69 -19t59.5 -8l-2 -8h-517zM901 598l12 633l-170 -213l-78.5 -99l-84.5 -106l-86.5 -108.5l-83.5 -106.5h491zM908 1483l81.5 87.5l82 91
l72.5 83l54 63.5q32 38 63 58t66 20q28 0 44 -17t16 -38q0 -35 -27 -62t-65 -53l-67.5 -42l-94 -58l-108.5 -68l-111 -72z" />
    <glyph glyph-name="Edieresis" unicode="&#xcb;" horiz-adv-x="1274" 
d="M-72 8q11 0 34.5 2t49.5 5.5t50.5 8t37.5 9.5q39 14 59 40.5t29 61.5l310 1116q4 16 6 31t-0.5 28.5t-11.5 25t-27 20.5q-12 5 -32.5 11t-43 11t-43.5 8.5t-35 4.5l4 8h1024l-88 -320h-10q0 50 -8 101t-24 93t-40.5 70t-58.5 33q-32 4 -81.5 6t-98.5 2h-242l-180 -643
h201q40 0 71.5 6.5t54.5 16.5t39.5 21.5t28.5 21.5q29 23 56.5 71t58.5 126h12l-160 -570h-10q4 21 8.5 51.5t6 63t-1.5 63t-13 50.5q-5 10 -14.5 21t-26.5 20.5t-44.5 15.5t-69.5 6h-201l-148 -524q-18 -62 -18.5 -98.5t21 -56.5t67 -26t117.5 -6q51 0 108 0.5t109.5 5
t94.5 14t65 27.5t48.5 46t50.5 59.5t49 65.5l44 64.5l35.5 56t23.5 40.5h11l-133 -393h-1125zM744 1593q-44 0 -65 27.5t-21 62.5q0 22 8 43t23.5 37t37.5 25.5t49 9.5q18 0 32.5 -8t25 -20.5t16.5 -28.5t6 -31q0 -22 -7.5 -43t-22 -37.5t-35 -26.5t-47.5 -10zM1139 1593
q-44 0 -65 27.5t-21 62.5q0 22 8 43t23.5 37t37.5 25.5t50 9.5q18 0 32.5 -8t25 -20.5t16 -28.5t5.5 -31q0 -22 -7.5 -43t-22 -37.5t-35 -26.5t-47.5 -10z" />
    <glyph glyph-name="Egrave" unicode="&#xc8;" horiz-adv-x="1274" 
d="M-72 8q11 0 34.5 2t49.5 5.5t50.5 8t37.5 9.5q39 14 59 40.5t29 61.5l310 1116q4 16 6 31t-0.5 28.5t-11.5 25t-27 20.5q-12 5 -32.5 11t-43 11t-43.5 8.5t-35 4.5l4 8h1024l-88 -320h-10q0 50 -8 101t-24 93t-40.5 70t-58.5 33q-32 4 -81.5 6t-98.5 2h-242l-180 -643
h201q40 0 71.5 6.5t54.5 16.5t39.5 21.5t28.5 21.5q29 23 56.5 71t58.5 126h12l-160 -570h-10q4 21 8.5 51.5t6 63t-1.5 63t-13 50.5q-5 10 -14.5 21t-26.5 20.5t-44.5 15.5t-69.5 6h-201l-148 -524q-18 -62 -18.5 -98.5t21 -56.5t67 -26t117.5 -6q51 0 108 0.5t109.5 5
t94.5 14t65 27.5t48.5 46t50.5 59.5t49 65.5l44 64.5l35.5 56t23.5 40.5h11l-133 -393h-1125zM1094 1478l-72 73l-70.5 69.5l-61 59l-44.5 42.5q-51 48 -51 101q0 27 17.5 46t45.5 19q35 0 54.5 -22.5t39.5 -65.5l29.5 -62.5l38 -79.5l42 -88l40.5 -87l-8 -5v0z" />
    <glyph glyph-name="Iacute" unicode="&#xcd;" horiz-adv-x="764" 
d="M-39 8l34 2.5t43.5 4.5t42.5 6.5t32 7.5q40 14 59 41t29 59l313 1124q8 32 5 58t-38 45q-11 4 -29 10t-38.5 11t-39 9t-30.5 5l2 8h576l-2 -8q-15 -1 -36 -3.5t-44 -6t-44 -7.5t-36 -8q-40 -12 -60.5 -41t-29.5 -61l-316 -1127q-9 -35 -3.5 -59t40.5 -39q8 -4 26 -9
t39.5 -9.5t42.5 -8t36 -4.5l-3 -8h-573zM529 1483l81.5 87.5l82 91l72.5 83l54 63.5q32 38 63 58t66 20q28 0 44 -17t16 -38q0 -35 -27 -62t-65 -53l-67.5 -42l-94 -58l-108.5 -68l-111 -72z" />
    <glyph glyph-name="Icircumflex" unicode="&#xce;" horiz-adv-x="764" 
d="M-39 8l34 2.5t43.5 4.5t42.5 6.5t32 7.5q40 14 59 41t29 59l313 1124q8 32 5 58t-38 45q-11 4 -29 10t-38.5 11t-39 9t-30.5 5l2 8h576l-2 -8q-15 -1 -36 -3.5t-44 -6t-44 -7.5t-36 -8q-40 -12 -60.5 -41t-29.5 -61l-316 -1127q-9 -35 -3.5 -59t40.5 -39q8 -4 26 -9
t39.5 -9.5t42.5 -8t36 -4.5l-3 -8h-573zM337 1483l86.5 95.5l93 103l84 93.5l59.5 68q11 12 19 20t17 12t21 5.5t31 1.5q16 0 26 -1.5t16.5 -5t10.5 -10.5t9 -18l155 -366l-8 -5l-231 287l-381 -287z" />
    <glyph glyph-name="Idieresis" unicode="&#xcf;" horiz-adv-x="764" 
d="M-39 8l34 2.5t43.5 4.5t42.5 6.5t32 7.5q40 14 59 41t29 59l313 1124q8 32 5 58t-38 45q-11 4 -29 10t-38.5 11t-39 9t-30.5 5l2 8h576l-2 -8q-15 -1 -36 -3.5t-44 -6t-44 -7.5t-36 -8q-40 -12 -60.5 -41t-29.5 -61l-316 -1127q-9 -35 -3.5 -59t40.5 -39q8 -4 26 -9
t39.5 -9.5t42.5 -8t36 -4.5l-3 -8h-573zM489 1593q-44 0 -65 27.5t-21 62.5q0 22 8 43t23.5 37t37.5 25.5t49 9.5q18 0 32.5 -8t25 -20.5t16.5 -28.5t6 -31q0 -22 -7.5 -43t-22 -37.5t-35 -26.5t-47.5 -10zM884 1593q-44 0 -65 27.5t-21 62.5q0 22 8 43t23.5 37t37.5 25.5
t50 9.5q18 0 32.5 -8t25 -20.5t16 -28.5t5.5 -31q0 -22 -7.5 -43t-22 -37.5t-35 -26.5t-47.5 -10z" />
    <glyph glyph-name="Igrave" unicode="&#xcc;" horiz-adv-x="764" 
d="M-39 8l34 2.5t43.5 4.5t42.5 6.5t32 7.5q40 14 59 41t29 59l313 1124q8 32 5 58t-38 45q-11 4 -29 10t-38.5 11t-39 9t-30.5 5l2 8h576l-2 -8q-15 -1 -36 -3.5t-44 -6t-44 -7.5t-36 -8q-40 -12 -60.5 -41t-29.5 -61l-316 -1127q-9 -35 -3.5 -59t40.5 -39q8 -4 26 -9
t39.5 -9.5t42.5 -8t36 -4.5l-3 -8h-573zM757 1478l-72 73l-70.5 69.5l-61 59l-44.5 42.5q-51 48 -51 101q0 27 17.5 46t45.5 19q35 0 54.5 -22.5t39.5 -65.5l29.5 -62.5l38 -79.5l42 -88l40.5 -87l-8 -5v0z" />
    <glyph glyph-name="Oacute" unicode="&#xd3;" horiz-adv-x="1436" 
d="M614 -33q-90 0 -179.5 38.5t-161.5 110.5t-117 175.5t-45 234.5q0 126 31 242.5t86 217t130 182.5t162.5 140t183.5 90t193 32q65 0 128 -17.5t119.5 -51t105 -82t83.5 -109.5t54.5 -133.5t19.5 -155.5q0 -113 -26.5 -225t-76.5 -213.5t-120.5 -188.5t-159 -151
t-192 -100t-218.5 -36zM627 -16q100 0 184.5 39.5t153 107.5t120 159.5t86.5 196t52.5 216.5t17.5 221q0 92 -17.5 180t-58 156.5t-107 110.5t-165.5 42q-103 0 -189 -40t-154.5 -109.5t-119.5 -162t-85.5 -197t-51.5 -216t-17 -217.5q0 -95 18.5 -183t59.5 -155.5t108 -108
t165 -40.5zM828 1483l81.5 87.5l82 91l72.5 83l54 63.5q32 38 63 58t66 20q28 0 44 -17t16 -38q0 -35 -27 -62t-65 -53l-67.5 -42l-94 -58l-108.5 -68l-111 -72z" />
    <glyph glyph-name="Ocircumflex" unicode="&#xd4;" horiz-adv-x="1436" 
d="M614 -33q-90 0 -179.5 38.5t-161.5 110.5t-117 175.5t-45 234.5q0 126 31 242.5t86 217t130 182.5t162.5 140t183.5 90t193 32q65 0 128 -17.5t119.5 -51t105 -82t83.5 -109.5t54.5 -133.5t19.5 -155.5q0 -113 -26.5 -225t-76.5 -213.5t-120.5 -188.5t-159 -151
t-192 -100t-218.5 -36zM627 -16q100 0 184.5 39.5t153 107.5t120 159.5t86.5 196t52.5 216.5t17.5 221q0 92 -17.5 180t-58 156.5t-107 110.5t-165.5 42q-103 0 -189 -40t-154.5 -109.5t-119.5 -162t-85.5 -197t-51.5 -216t-17 -217.5q0 -95 18.5 -183t59.5 -155.5t108 -108
t165 -40.5zM605 1483l86.5 95.5l93 103l84 93.5l59.5 68q11 12 19 20t17 12t21 5.5t31 1.5q16 0 26 -1.5t16.5 -5t10.5 -10.5t9 -18l155 -366l-8 -5l-231 287l-381 -287z" />
    <glyph glyph-name="apple" unicode="&#xf8ff;" horiz-adv-x="1264" 
d="M793 -4q-31 0 -59 11.5t-49 32t-33.5 49t-12.5 61.5q0 24 6 45l12.5 43t12.5 47t6 57v23l-14 10q-11 -2 -20.5 -2h-20.5q-32 0 -61 10t-54 27l-27 -2q-21 -32 -29.5 -64t-13.5 -61q-5 -33 -16.5 -63.5t-30.5 -54.5t-46.5 -38t-66.5 -14q-30 0 -58.5 12t-50.5 33t-35 49.5
t-13 62.5q0 33 13 61t36 49t54 32.5t67 11.5h30t36.5 2t41 7.5t43.5 17.5l6 28q-9 20 -14.5 42.5t-5.5 45.5q0 27 6 51l-10 27q-14 5 -27.5 5.5t-27.5 0.5q-22 0 -39.5 -2t-33 -5t-29.5 -5t-29 -2q-34 0 -63 12.5t-50 34t-33 49.5t-12 60q0 31 12 59.5t32.5 50.5t49 34.5
t61.5 12.5q28 0 49.5 -7.5t38.5 -19.5t29 -27.5t21 -31.5q8 -18 14.5 -38.5l14 -42.5t19 -44t30.5 -41l30 2q28 29 64.5 45.5t77.5 16.5l22 14q0 41 -11 71t-24 55.5t-24 50.5t-11 57q0 34 12.5 61.5t34 47t49.5 30t60 10.5q34 0 62 -12.5t48 -34t31 -49.5t11 -59
q0 -33 -9 -55.5t-24 -39t-34 -30l-39.5 -29t-40 -35.5t-34.5 -49l9 -25q35 -18 61 -48t37 -70l24 -13q28 10 49 25t37.5 31l32 31.5t33 28t39 20.5t51.5 8q31 0 58 -12.5t47.5 -33.5t32.5 -50t12 -62q0 -32 -12 -60t-33 -48.5t-49 -32t-60 -11.5q-36 0 -62 13.5t-51 31
t-54 34.5t-71 24l-18 -17q-6 -37 -27.5 -68t-52.5 -54l-2 -21q25 -32 53 -49t56 -31q46 -21 79 -59t33 -96q0 -31 -12.5 -59t-34 -49.5t-50.5 -34.5t-62 -13zM621 426q30 0 55 11t43 30.5t28.5 45.5t10.5 56q0 29 -10.5 54.5t-28.5 44.5t-43 30t-55 11q-29 0 -54.5 -11
t-44 -30t-29 -44.5t-10.5 -54.5q0 -30 10.5 -56t29 -45.5t44 -30.5t54.5 -11z" />
    <glyph glyph-name="Ograve" unicode="&#xd2;" horiz-adv-x="1436" 
d="M614 -33q-90 0 -179.5 38.5t-161.5 110.5t-117 175.5t-45 234.5q0 126 31 242.5t86 217t130 182.5t162.5 140t183.5 90t193 32q65 0 128 -17.5t119.5 -51t105 -82t83.5 -109.5t54.5 -133.5t19.5 -155.5q0 -113 -26.5 -225t-76.5 -213.5t-120.5 -188.5t-159 -151
t-192 -100t-218.5 -36zM627 -16q100 0 184.5 39.5t153 107.5t120 159.5t86.5 196t52.5 216.5t17.5 221q0 92 -17.5 180t-58 156.5t-107 110.5t-165.5 42q-103 0 -189 -40t-154.5 -109.5t-119.5 -162t-85.5 -197t-51.5 -216t-17 -217.5q0 -95 18.5 -183t59.5 -155.5t108 -108
t165 -40.5zM1035 1478l-72 73l-70.5 69.5l-61 59l-44.5 42.5q-51 48 -51 101q0 27 17.5 46t45.5 19q35 0 54.5 -22.5t39.5 -65.5l29.5 -62.5l38 -79.5l42 -88l40.5 -87l-8 -5v0z" />
    <glyph glyph-name="Uacute" unicode="&#xda;" horiz-adv-x="1610" 
d="M668 -33q-220 0 -325 85t-105 239q0 43 6.5 91.5t21.5 102.5l213 768q4 16 6 30.5t-0.5 27.5t-11.5 24.5t-27 20.5q-11 4 -29 10t-38.5 11t-39 9t-30.5 5l2 8h576l-2 -8q-15 -1 -36 -3.5t-44 -6t-44 -7.5t-36 -8q-40 -12 -60.5 -41t-29.5 -61l-205 -738
q-18 -66 -28.5 -127t-10.5 -112q0 -53 22.5 -100.5t66 -83t106 -56t143.5 -20.5q198 0 327.5 115t192.5 339l158 553l10.5 39.5t13 53t11.5 59t4.5 58.5t-7 50.5t-22.5 34.5q-13 10 -38 20.5t-53.5 19.5t-55.5 15t-45 7l2 8h557l-2 -8q-14 -1 -41.5 -5.5t-58 -12t-59 -16.5
t-44.5 -18q-26 -15 -47.5 -44.5t-39 -68.5t-32.5 -85t-28 -94l-164 -574q-35 -123 -84.5 -217.5t-121 -158.5t-168 -97t-226.5 -33zM916 1483l81.5 87.5l82 91l72.5 83l54 63.5q32 38 63 58t66 20q28 0 44 -17t16 -38q0 -35 -27 -62t-65 -53l-67.5 -42l-94 -58l-108.5 -68
l-111 -72z" />
    <glyph glyph-name="Ucircumflex" unicode="&#xdb;" horiz-adv-x="1610" 
d="M668 -33q-220 0 -325 85t-105 239q0 43 6.5 91.5t21.5 102.5l213 768q4 16 6 30.5t-0.5 27.5t-11.5 24.5t-27 20.5q-11 4 -29 10t-38.5 11t-39 9t-30.5 5l2 8h576l-2 -8q-15 -1 -36 -3.5t-44 -6t-44 -7.5t-36 -8q-40 -12 -60.5 -41t-29.5 -61l-205 -738
q-18 -66 -28.5 -127t-10.5 -112q0 -53 22.5 -100.5t66 -83t106 -56t143.5 -20.5q198 0 327.5 115t192.5 339l158 553l10.5 39.5t13 53t11.5 59t4.5 58.5t-7 50.5t-22.5 34.5q-13 10 -38 20.5t-53.5 19.5t-55.5 15t-45 7l2 8h557l-2 -8q-14 -1 -41.5 -5.5t-58 -12t-59 -16.5
t-44.5 -18q-26 -15 -47.5 -44.5t-39 -68.5t-32.5 -85t-28 -94l-164 -574q-35 -123 -84.5 -217.5t-121 -158.5t-168 -97t-226.5 -33zM748 1483l86.5 95.5l93 103l84 93.5l59.5 68q11 12 19 20t17 12t21 5.5t31 1.5q16 0 26 -1.5t16.5 -5t10.5 -10.5t9 -18l155 -366l-8 -5
l-231 287l-381 -287z" />
    <glyph glyph-name="Ugrave" unicode="&#xd9;" horiz-adv-x="1610" 
d="M668 -33q-220 0 -325 85t-105 239q0 43 6.5 91.5t21.5 102.5l213 768q4 16 6 30.5t-0.5 27.5t-11.5 24.5t-27 20.5q-11 4 -29 10t-38.5 11t-39 9t-30.5 5l2 8h576l-2 -8q-15 -1 -36 -3.5t-44 -6t-44 -7.5t-36 -8q-40 -12 -60.5 -41t-29.5 -61l-205 -738
q-18 -66 -28.5 -127t-10.5 -112q0 -53 22.5 -100.5t66 -83t106 -56t143.5 -20.5q198 0 327.5 115t192.5 339l158 553l10.5 39.5t13 53t11.5 59t4.5 58.5t-7 50.5t-22.5 34.5q-13 10 -38 20.5t-53.5 19.5t-55.5 15t-45 7l2 8h557l-2 -8q-14 -1 -41.5 -5.5t-58 -12t-59 -16.5
t-44.5 -18q-26 -15 -47.5 -44.5t-39 -68.5t-32.5 -85t-28 -94l-164 -574q-35 -123 -84.5 -217.5t-121 -158.5t-168 -97t-226.5 -33zM1200 1478l-72 73l-70.5 69.5l-61 59l-44.5 42.5q-51 48 -51 101q0 27 17.5 46t45.5 19q35 0 54.5 -22.5t39.5 -65.5l29.5 -62.5l38 -79.5
l42 -88l40.5 -87l-8 -5v0z" />
    <glyph glyph-name="dotlessi" unicode="&#x131;" horiz-adv-x="645" 
d="M309 -23q-33 0 -63 7.5t-52.5 25.5t-35.5 49t-13 78q0 37 10.5 76.5t30.5 93.5l138 348q24 63 35.5 108.5t11.5 74.5q0 42 -17 57.5t-49 15.5q-38 0 -72 -19.5t-65 -56t-59.5 -89t-53.5 -117.5l-12 4q28 67 56 124.5t61.5 98.5t75.5 64.5t98 23.5q33 0 61.5 -10t49 -31.5
t32.5 -54.5t12 -78q0 -18 -6.5 -44t-16 -54.5t-20.5 -57.5l-20 -51l-117 -301q-26 -68 -36.5 -111.5t-10.5 -72.5q0 -35 21 -50.5t53 -15.5q74 0 137.5 74t114.5 205l12 -4q-28 -69 -56.5 -126t-62.5 -98t-76 -63.5t-96 -22.5z" />
    <glyph glyph-name="R.salt" horiz-adv-x="1401" 
d="M-55 8l34 2.5t43.5 4.5t42.5 6.5t31 7.5q41 14 60 41t28 59l314 1124q8 32 5 58t-38 45q-11 4 -29.5 10t-38.5 11t-39 9t-30 5l2 8h542q208 0 308 -73t100 -202q0 -84 -32 -150.5t-92.5 -116t-149 -83t-201.5 -51.5v-6q64 -9 111.5 -30.5t81 -56t53.5 -82t28 -108.5
q4 -32 8 -69.5t7 -74l5.5 -69.5t4.5 -55q5 -68 27.5 -103t64.5 -44q29 -7 60 -11t59 -6l-4 -8h-365q0 112 -1.5 210.5t-9.5 179t-25 141.5t-48 98q-34 40 -86 63t-131 23h-145l-48.5 -171.5l-48 -168l-40.5 -143l-27 -95.5q-8 -32 -2.5 -57.5t39.5 -40.5q7 -4 25.5 -9
t40 -9.5t43 -8t36.5 -4.5l-2 -8h-573zM653 731q98 0 182 22.5t145.5 68.5t96.5 115.5t35 164.5q0 134 -66 207t-200 73h-160l-182 -651h149z" />
    <glyph glyph-name="Euro" unicode="&#x20ac;" horiz-adv-x="1120" 
d="M596 -29q-108 0 -186.5 42t-127.5 113.5t-68.5 167t-10.5 202.5h-131v22h133q5 45 13.5 93t21.5 91h-111v23h119q39 114 105.5 213.5t152 173t186.5 116t209 42.5q84 0 144 -20t98.5 -52t57 -71.5t18.5 -79.5q0 -39 -10 -68t-27 -48t-40 -28.5t-50 -9.5q-38 0 -58 21.5
t-20 52.5q0 30 12.5 48t29 33t31 32t19.5 44q4 22 -9 44.5t-41 41.5t-69 31t-94 12q-77 0 -149 -43t-134.5 -115.5t-113 -168.5t-84.5 -201h520v-23h-526q-13 -43 -23 -91t-16 -93h426v-22h-431q-6 -61 -7 -119.5t7 -111t26.5 -96.5t50 -76t78.5 -50t112 -18q66 0 125.5 20
t114 56t104.5 87t98 113l10 -8q-41 -63 -93 -121t-113 -103t-131 -71.5t-148 -26.5z" />
    <glyph glyph-name="ampersand" unicode="&#x26;" horiz-adv-x="1696" 
d="M776 -35q-128 0 -239.5 36t-195 98.5t-131.5 147.5t-48 183q0 65 18.5 112t49 81.5t69.5 60t80 47.5q-66 47 -101.5 111t-35.5 135q0 54 23 106t66.5 92t106.5 64.5t142 24.5q67 0 117.5 -20t87.5 -54.5t62 -80.5t40 -99l-8 -4q-48 93 -116.5 131.5t-160.5 38.5
q-62 0 -112 -18.5t-84.5 -52.5t-53 -81.5t-18.5 -105.5q0 -45 15 -94.5t46 -84.5q37 14 85.5 29.5t113.5 15.5q54 0 84.5 -21t30.5 -56q0 -28 -21.5 -49t-58.5 -21q-79 0 -135.5 23.5t-98.5 58.5q-24 -11 -47.5 -27.5t-43.5 -39.5t-33.5 -54t-16.5 -70q-6 -77 29.5 -156
t117 -143t211.5 -104.5t314 -40.5q107 0 193.5 22t154 60t116 89.5t80.5 109.5t47 120.5t15 122.5q0 88 -25 152.5t-66.5 106t-96 61.5t-113.5 20q-54 0 -99.5 -16.5t-78.5 -45t-51.5 -68t-18.5 -85.5q0 -50 16 -85t43 -57t62 -32t72 -10q34 0 57 7t37 24q-21 8 -42 18
t-38.5 23.5t-28 31t-10.5 41.5q0 25 9 42t22 26.5t28 13.5t27 4q19 0 39.5 -4.5t38 -16.5t28.5 -33t11 -54q0 -26 -9.5 -52t-30 -47.5t-51.5 -35t-73 -13.5q-44 0 -89.5 16.5t-82.5 48t-60.5 78t-23.5 107.5q0 81 34 132t85 80t111 39.5t112 10.5q20 0 50 -1.5t61.5 -3.5
t60 -3.5t45.5 -1.5q42 0 78 11t62.5 32t41.5 51t15 68q0 46 -14.5 80t-37 56t-51.5 33t-57 11q-21 0 -36 -6.5t-24.5 -15.5t-13.5 -18.5t-4 -16.5q5 -6 17.5 -12t25 -14t22 -20.5t9.5 -33.5q0 -43 -23.5 -60.5t-54.5 -17.5q-18 0 -36.5 5.5t-33 18.5t-23.5 33.5t-9 49.5
q0 22 10.5 44.5t32 40.5t54 29.5t75.5 11.5q87 0 139.5 -54t52.5 -154q0 -59 -18.5 -107.5t-58.5 -81.5t-103 -49t-152 -10q38 -22 72.5 -51.5t61 -70t42 -95t15.5 -125.5q0 -64 -15.5 -135t-51.5 -140.5t-95.5 -132t-147.5 -110.5t-207.5 -76.5t-275.5 -28.5z" />
    <glyph glyph-name="fi" horiz-adv-x="1137" 
d="M-252 -483q-52 0 -87 13.5t-56 35t-30 48t-9 52.5q0 15 6 31t17.5 29.5t28.5 22.5t38 9q14 0 30.5 -4.5t30.5 -14.5t23.5 -26t9.5 -39q0 -14 -5 -27.5t-12.5 -27t-16 -26.5t-15.5 -25q2 -19 18 -28t27 -9q57 0 103 23.5t86 75.5t76 136t73 205l69 238.5l61 225l57 221
l57 227.5h-217l8 28h217l22 82q32 118 85.5 217t125.5 170q65 63 146 102.5t174 39.5q52 0 95 -11t73.5 -31t47.5 -49t17 -65q0 -34 -22.5 -61t-67.5 -27q-13 0 -30 4t-32 13t-25.5 23.5t-10.5 35.5q0 15 4.5 31t10.5 31.5l12 30.5t8 30q-2 7 -9.5 12.5t-19 9.5t-25 6
t-26.5 2q-126 0 -221.5 -109.5t-161.5 -342.5l-41 -144h553q-5 -33 -15 -75t-23.5 -88t-29 -93.5t-32.5 -91.5l-117 -301q-26 -68 -36.5 -111.5t-10.5 -72.5q0 -35 20.5 -50.5t52.5 -15.5q75 0 138 74t114 205l13 -4q-27 -69 -55.5 -126t-63 -98t-76.5 -63.5t-96 -22.5
q-33 0 -63 7.5t-52.5 25.5t-35.5 49t-13 78q0 37 10.5 76.5t30.5 93.5l137 348q13 33 23.5 66t18 63t11.5 55.5t4 43.5h-413l-53.5 -205.5l-58 -222.5l-59 -217t-55.5 -189q-38 -124 -94.5 -229.5t-128.5 -179.5q-57 -57 -122.5 -90t-139.5 -33z" />
    <glyph glyph-name="fl" horiz-adv-x="1176" 
d="M-252 -483q-52 0 -87 13.5t-56 35t-30 48t-9 52.5q0 15 6 31t17.5 29.5t28.5 22.5t38 9q14 0 30.5 -4.5t30.5 -14.5t23.5 -26t9.5 -39q0 -14 -5 -27.5t-12.5 -27t-16 -26.5t-15.5 -25q2 -19 18 -28t27 -9q57 0 102.5 22t84.5 73t75.5 135.5t75.5 209.5q38 123 73 250.5
l66 247.5l57.5 226.5l47.5 187.5h-217l8 28h217l22 82q31 112 81.5 209.5t121.5 169.5q68 69 148 109.5t180 40.5q62 0 103 -23t61 -57l194 78l-403 -1262q-20 -62 -29.5 -103t-9.5 -75q0 -37 20 -54.5t54 -17.5q37 0 70.5 19.5t64.5 56.5t59.5 89.5t54.5 117.5l15 -4
q-28 -69 -56.5 -126t-63 -98t-77 -63.5t-96.5 -22.5q-33 0 -62 7t-51 25t-34.5 48.5t-12.5 77.5q0 34 11.5 80.5t25.5 91.5l315 993q-22 -16 -51 -16q-14 0 -29 4.5t-27 13.5t-20 22.5t-8 31.5q0 25 11 53.5t16 52.5q-6 25 -21.5 35t-44.5 10q-111 0 -204 -112.5
t-158 -339.5l-41 -144h258l-10 -28h-254l-53.5 -205.5l-58 -222.5l-59 -217t-55.5 -189q-38 -124 -94.5 -229.5t-128.5 -179.5q-57 -57 -122.5 -90t-139.5 -33z" />
    <glyph glyph-name="J.salt" horiz-adv-x="1079" 
d="M741 393q-22 -78 -54 -154.5t-84 -137t-129 -97.5t-189 -37q-75 0 -126 17.5t-82.5 44.5t-45 59.5t-13.5 63.5q0 49 28.5 82.5t78.5 33.5q43 0 68.5 -25.5t25.5 -68.5q0 -45 -24.5 -77t-53.5 -54q16 -22 54.5 -40.5t89.5 -18.5q74 0 121.5 29t79.5 84t56 134l52 179
l235 843q4 16 6 30.5t-0.5 27.5t-11 24.5t-26.5 20.5q-11 4 -29.5 10t-39 11t-39 9t-30.5 5l3 8h575l-2 -8q-15 -1 -36 -3.5t-44 -6t-44 -7.5t-36 -8q-40 -12 -60.5 -41t-29.5 -61z" />
    <glyph glyph-name="Q.salt" horiz-adv-x="1436" 
d="M614 -33q-90 0 -179.5 38.5t-161.5 110.5t-117 175.5t-45 234.5q0 126 31 242.5t86 217t130 182.5t162.5 140t183.5 90t193 32q65 0 128 -17.5t119.5 -51t105 -82t83.5 -109.5t54.5 -133.5t19.5 -155.5q0 -128 -34 -254t-97 -237t-152 -201t-198 -146q27 -54 53 -96
t55 -70.5t61.5 -43.5t71.5 -15q42 0 73.5 11.5t57.5 33t48.5 53.5t46.5 74l16 -8q-22 -46 -49 -89.5t-63 -77t-83 -53.5t-110 -20q-52 0 -95.5 22t-79.5 58t-64.5 82t-51.5 94q-93 -31 -199 -31zM657 256q76 0 138.5 -40t111.5 -134q82 63 144.5 157.5t104.5 206.5t63.5 235
t21.5 243q0 92 -17.5 180t-58 156.5t-107 110.5t-165.5 42q-103 0 -189 -40t-154.5 -109.5t-119.5 -162t-85.5 -197t-51.5 -216t-17 -217.5q0 -59 6.5 -115.5t21 -107.5t37.5 -95.5t56 -78.5q56 88 122.5 135t137.5 47zM627 -16q48 0 91 8.5t85 25.5q-38 79 -78.5 117.5
t-103.5 38.5q-28 0 -55 -4.5t-53.5 -17t-52.5 -34t-50 -55.5q45 -42 98 -60.5t119 -18.5z" />
    <glyph glyph-name="Y.salt" horiz-adv-x="1112" 
d="M117 8q43 3 83 7.5t60 11.5q43 12 64 41t30 63l101 369l10 38.5t5.5 27t1 20.5t-2.5 18l-32.5 149.5l-26.5 122.5l-24 109.5l-26 108.5q-15 62 -27 106t-25 75t-28.5 51.5t-39.5 35.5q-19 12 -42.5 18.5t-52.5 10.5l5 8h538l-4 -8q-28 -2 -64 -6t-68.5 -10.5t-56.5 -16.5
t-28 -25q-2 -5 1 -23.5t8 -46.5t12.5 -62.5l15.5 -72.5q9 -45 22.5 -107l29 -131l33 -140.5l34.5 -135.5l55.5 66l71.5 84l78.5 92.5l77.5 91l68 80l50 59.5q82 101 121.5 155.5t44.5 70.5q6 21 -14 34.5t-53.5 22.5t-73.5 13.5t-74 7.5l2 8h459l-4 -8q-31 -4 -55.5 -10.5
t-49.5 -18.5q-21 -11 -41 -28.5t-40.5 -39l-41.5 -45.5l-43 -47l-83 -95l-94.5 -110l-96.5 -113.5l-89 -105l-72.5 -85.5t-47.5 -54l-23.5 -25t-15 -23.5t-14.5 -39t-21 -72.5l-98 -350q-9 -34 1.5 -58t45.5 -36q28 -9 64 -16.5t71 -10.5l-2 -8h-573z" />
    <glyph glyph-name="ampersand.salt" horiz-adv-x="1300" 
d="M508 -432q87 -5 156.5 8t117.5 50.5t73.5 103.5t25.5 168q0 75 -28.5 158.5t-72.5 172.5q-34 -54 -73.5 -101t-88.5 -82t-108.5 -55t-132.5 -20q-68 0 -128.5 21t-107 61.5t-73.5 98.5t-27 133q0 80 30 152t86.5 135t136.5 116t181 96q-29 66 -47 127.5t-18 118.5
q0 82 26.5 154.5t74 126.5t114 85t147.5 31q48 0 89.5 -15t72.5 -43.5t49 -69t18 -91.5q0 -78 -31 -138t-84.5 -106.5t-124 -81t-149.5 -61.5q24 -51 54.5 -105.5l63 -110.5l64.5 -110.5l60 -105.5l41 87.5t47.5 94t54 90t59 77t63.5 53.5t67 20q37 0 63 -11t42.5 -28.5
t24 -38.5t7.5 -41q0 -16 -4.5 -32t-13.5 -28.5t-22.5 -20t-31.5 -7.5q-25 0 -39.5 6.5t-24 16.5t-15.5 21t-13.5 21t-18.5 16.5t-30 6.5q-27 0 -55 -24.5t-58.5 -67t-63.5 -101.5l-69 -128q48 -90 79.5 -172t31.5 -156q0 -114 -31 -208t-90 -162.5t-144.5 -108.5t-195.5 -45
zM434 57q96 0 182.5 44t155.5 143q-33 63 -72 130.5l-78 135l-76 133.5t-65 127q-68 -35 -122 -81t-92 -100t-58.5 -114t-20.5 -123q0 -61 16.5 -114.5t48 -93.5t77.5 -63.5t104 -23.5zM606 836q155 64 240.5 151.5t85.5 210.5q0 37 -10 75.5t-30 69.5t-51.5 50.5
t-74.5 19.5q-53 0 -95.5 -28.5t-72 -74t-45.5 -102t-16 -112.5q0 -62 19 -127t50 -133z" />
    <glyph glyph-name="copyrightsound" unicode="&#x2117;" horiz-adv-x="1923" 
d="M594 59q12 1 30.5 3.5t36.5 5.5t33.5 6.5t22.5 5.5q28 9 37.5 26t9.5 35v742q0 18 -9.5 36.5t-37.5 26.5q-15 4 -32 8t-34.5 7.5t-34 6t-28.5 3.5v8h514q65 0 119.5 -15.5t94 -44.5t61.5 -69.5t22 -91.5q0 -68 -29.5 -121.5t-79 -90.5t-114.5 -57t-136 -20h-122v-328
q0 -18 9 -35.5t34 -25.5q6 -2 24 -5.5t40.5 -6.5t45.5 -5.5t39 -3.5v-8h-516v8zM977 -371q-118 0 -229 31.5t-209 89.5t-179.5 139t-140 179t-91 211t-32.5 235q0 121 32.5 233t91 210t139.5 178.5t179 138.5t209.5 89.5t229.5 31.5q117 0 228 -31.5t208.5 -89.5
t178.5 -138.5t139.5 -178.5t91 -210t32.5 -233q0 -122 -32.5 -235t-91 -211t-139.5 -179t-178.5 -139t-208.5 -89.5t-228 -31.5zM977 -322q110 0 214.5 30t196 84.5t168 130.5t131 169t85 200t30.5 222q0 114 -30.5 220t-85 198.5t-131 168.5t-168 130.5t-196 84.5
t-214.5 30q-112 0 -216.5 -30t-196.5 -84.5t-168 -130.5t-131 -168.5t-85 -198.5t-30 -220q0 -115 30.5 -222t85 -200t131 -169t168.5 -130.5t196.5 -84.5t215.5 -30zM993 483q47 0 82 14t60.5 35.5t42 49t26 54t13.5 50t4 37.5q0 36 -10.5 78.5t-34.5 78.5t-62.5 60.5
t-93.5 24.5h-102v-482h75z" />
    <glyph glyph-name="exclam" unicode="!" horiz-adv-x="635" 
d="M307 438q16 82 31.5 175t29.5 186l27 180l23 158t18 120t13 66q12 46 40.5 75t71.5 29q38 0 59 -22.5t21 -63.5q0 -16 -13 -60t-36 -109.5l-54 -149l-66.5 -179l-73.5 -199.5l-76 -210zM233 -16q-46 0 -77 30t-31 76q0 47 31 78t77 31q47 0 78 -31t31 -78q0 -46 -31 -76
t-78 -30z" />
    <glyph glyph-name="DEL" horiz-adv-x="0" 
 />
    <glyph glyph-name="quotedbl" unicode="&#x22;" horiz-adv-x="770" 
d="M266 967q5 72 6 135.5t0 115.5t-2.5 89.5t-1.5 58.5q0 72 27 107.5t72 35.5q26 0 43 -8t27.5 -22t15 -33.5t4.5 -42.5q0 -20 -13.5 -53.5t-37.5 -86l-58 -125.5l-76 -171h-6zM668 967q4 72 5 135.5t-0.5 115.5t-3 89.5t-1.5 58.5q0 72 26.5 107.5t71.5 35.5q52 0 71 -30
t19 -76q0 -20 -13.5 -53.5t-37.5 -86l-58 -125.5t-75 -171h-4z" />
    </font>
</defs>
</svg>
