<svg id="Layer_1" data-name="Layer 1" xmlns="http://www.w3.org/2000/svg" viewBox="0 0 328 56"><defs><style>.cls-1{fill:#231f20;}</style></defs><title>BHS-DM</title><path class="cls-1" d="M15.52,15.34V9c0-1.51.24-1.57,2.18-1.57h0.7c3.42,0,4.81.6,4.81,3.87s-1.39,4.08-5.06,4.08H15.52ZM8.32,27.52H20.15c5.71,0,8.55-1.78,8.55-5.72,0-3.69-2.48-5.74-7.31-5.94,4.47-.23,6.55-1.6,6.55-4.66,0-3.51-2.38-4.83-7.27-4.83H8.32V7.18H9.73c1.21,0,1.54.45,1.54,1.75V24.86c0,1.3-.33,1.76-1.54,1.76H8.32v0.9Zm7.21-11.14c0.48,0,.94,0,1.39,0,5.05,0,6.77,1.21,6.77,5.36,0,3.7-1.6,4.76-5.56,4.76-2.3,0-2.6-.09-2.6-2V16.38Z"/><path class="cls-1" d="M35.72,19.43l0.91,0c3.27,0,4.2.68,4.2,3.11,0,0.72,0,1.22,0,1.49,0,2.59,1,3.87,3.1,3.87s3-1,3-3.14V24.31H46v0.18c0,1.23-.2,1.79-0.84,1.79-1.18,0-.7-1.59-1-3.72C44,20.13,42.69,19.27,39.74,19c3.71-.27,5.34-1.26,5.34-3.73s-2.13-3.6-6.44-3.6H30.34v0.62H31.4c0.91,0,1.16.34,1.16,1.31v12c0,1-.25,1.32-1.16,1.32H30.34v0.67h7.61V26.85h-1c-0.91,0-1.18-.34-1.18-1.32V19.43Zm0-.84v-5c0-1,.14-1.22,2.06-1.22,2.58,0,3.65.59,3.65,3,0,2.19-1.06,3.23-3.42,3.23H35.72Z"/><path class="cls-1" d="M55.36,27.88c4.17,0,7.46-3.46,7.46-8.31s-3.29-8.31-7.46-8.31-7.44,3.39-7.44,8.31,3.29,8.31,7.44,8.31M51.6,19.55c0-5,1-7.54,3.76-7.54s3.79,2.49,3.79,7.54-1,7.52-3.79,7.52S51.6,24.6,51.6,19.55"/><path class="cls-1" d="M71.79,27.66H70.45L65.67,14.57c-0.61-1.65-1.16-2.31-2.51-2.31H63.09V11.65h7.18v0.62H69.59c-0.75,0-1.11.23-1.11,0.72a2.16,2.16,0,0,0,.11.61l3.62,10.08,2.54-7.32L74,14.08c-0.47-1.41-.7-1.81-2.26-1.81H71.56V11.65h7.65v0.62H78.13c-0.81,0-1.23.23-1.23,0.75a1.68,1.68,0,0,0,.14.59l3.6,10.08,3.26-9.44a2.8,2.8,0,0,0,.2-0.86c0-.84-0.47-1.11-1.65-1.11H82.16V11.65h5.19v0.62H87.25c-1.74,0-2.08,1.31-2.9,3.67L80.21,27.66H78.9l-3.64-10Z"/><path class="cls-1" d="M90.61,23c0,2.67.07,3.8,2.51,3.83v0.67H87.37V26.85h0.18c1.9,0,2-1.22,2-3.67V13.58c0-1-.25-1.31-1.16-1.31h-1V11.65h5.12l7.63,11.85V16.11c0-2.42-.07-3.83-2.29-3.83a2.08,2.08,0,0,0-.25,0V11.65h5.75v0.62l-0.18,0c-1.9,0-2,1.2-2,3.65V27.52h-2L90.61,14.37V23Z"/><path class="cls-1" d="M116.52,24.86c0,1.3.33,1.75,1.54,1.75h1.39v0.9H109.31v-0.9h1.42c1.21,0,1.54-.45,1.54-1.75V8.92c0-1.29-.33-1.75-1.54-1.75h-1.42V6.37h10.14V7.18h-1.39c-1.21,0-1.54.45-1.54,1.75v5.66h7.64V8.92c0-1.29-.3-1.75-1.51-1.75h-1.42V6.37h10.15V7.18H130c-1.21,0-1.54.45-1.54,1.75V24.86c0,1.3.33,1.75,1.54,1.75h1.39v0.9H121.23v-0.9h1.42c1.21,0,1.51-.45,1.51-1.75V16.2h-7.64v8.66Z"/><path class="cls-1" d="M131.41,27.52h5.25V26.85h-0.27c-1,0-1.5-.23-1.5-1a5.64,5.64,0,0,1,.38-1.57l0.27-.75h5.61L141.68,25a3.62,3.62,0,0,1,.29,1c0,0.61-.45.82-1.4,0.82l-0.5,0v0.67h7.37V26.85a2.33,2.33,0,0,1-.38,0c-1.41,0-1.74-.89-2.42-2.82l-4.37-12.41h-1.61l-4,11.43c-0.86,2.46-1.49,3.77-3.19,3.77h-0.09v0.67Zm4.5-5,2.46-7.12,2.45,7.12h-4.91Z"/><path class="cls-1" d="M152.82,19.43l0.91,0c3.27,0,4.2.68,4.2,3.11,0,0.72,0,1.22,0,1.49,0,2.59,1,3.87,3.1,3.87s3-1,3-3.14V24.31h-0.86v0.18c0,1.23-.2,1.79-0.84,1.79-1.18,0-.7-1.59-1-3.72-0.27-2.43-1.54-3.29-4.48-3.58,3.71-.27,5.34-1.26,5.34-3.73s-2.13-3.6-6.44-3.6h-8.31v0.62h1.07c0.9,0,1.15.34,1.15,1.31v12c0,1-.25,1.32-1.15,1.32h-1.07v0.67H155V26.85h-1c-0.91,0-1.18-.34-1.18-1.32V19.43Zm0-.84v-5c0-1,.13-1.22,2.06-1.22,2.58,0,3.65.59,3.65,3,0,2.19-1.07,3.23-3.42,3.23h-2.29Z"/><path class="cls-1" d="M170,19.43l0.91,0c3.27,0,4.2.68,4.2,3.11,0,0.72,0,1.22,0,1.49,0,2.59,1,3.87,3.1,3.87s3-1,3-3.14V24.31H180.3v0.18c0,1.23-.2,1.79-0.84,1.79-1.18,0-.7-1.59-1-3.72C178.24,20.13,177,19.27,174,19c3.71-.27,5.34-1.26,5.34-3.73s-2.13-3.6-6.44-3.6h-8.31v0.62h1.07c0.91,0,1.16.34,1.16,1.31v12c0,1-.25,1.32-1.16,1.32h-1.07v0.67h7.61V26.85h-1c-0.91,0-1.18-.34-1.18-1.32V19.43Zm0-.84v-5c0-1,.13-1.22,2.06-1.22,2.58,0,3.65.59,3.65,3,0,2.19-1.07,3.23-3.42,3.23H170Z"/><path class="cls-1" d="M188.37,26.85h1v0.67h-7.58V26.85h1c0.9,0,1.15-.34,1.15-1.31v-12c0-1-.25-1.31-1.15-1.31h-1V11.65h7.58v0.62h-1c-0.91,0-1.16.34-1.16,1.31v12c0,1,.25,1.31,1.16,1.31"/><path class="cls-1" d="M191.2,21.36h0.75c0.86,3.56,3.21,5.61,5.82,5.61a2.59,2.59,0,0,0,2.83-2.53c0-2-1.74-2.79-4.82-4S191,18.23,191,15.77a4.69,4.69,0,0,1,5-4.5c2.6,0,4.07,1.42,4.57,1.42s0.56-.37.92-1.13h0.66V17h-0.66c-1-3.15-3-4.89-5.14-4.89-1.65,0-2.81,1-2.81,2.31,0,1.81,1.52,2.26,4.09,3.26,3.49,1.34,5.43,2.24,5.43,5.16a5,5,0,0,1-5.31,5c-2.85,0-4.28-1.67-4.87-1.67s-0.7.43-1.08,1.31h-0.74Z"/><path class="cls-1" d="M211.42,19.31h1c1.15,4.75,4.29,7.5,7.76,7.5a3.45,3.45,0,0,0,3.77-3.39c0-2.69-2.33-3.72-6.43-5.29s-6.31-3-6.31-6.29,2.9-6,6.64-6c3.47,0,5.44,1.88,6.1,1.88,0.49,0,.75-0.48,1.24-1.5h0.87v7.24h-0.87c-1.38-4.2-4-6.53-6.85-6.53-2.21,0-3.75,1.3-3.75,3.09,0,2.42,2,3,5.46,4.36,4.65,1.78,7.24,3,7.24,6.89S224.4,28,220.2,28c-3.8,0-5.71-2.22-6.49-2.22-0.6,0-.93.57-1.45,1.74h-1Z"/><path class="cls-1" d="M239,26.83h1.63v0.69h-8.77V26.83h1.63c0.91,0,1.15-.34,1.15-1.32V14.43c0-1.39-.29-2.06-1.22-2.06-1.29,0-2.94,1.81-3.6,5H229l0.25-5.73h14.06l0.25,5.73h-0.86c-0.66-3.2-2.31-5-3.6-5-0.93,0-1.23.68-1.23,2.06V25.51c0,1,.25,1.32,1.16,1.32"/><path class="cls-1" d="M244.34,26.85h1.06c0.9,0,1.15-.34,1.15-1.32v-12c0-1-.25-1.31-1.15-1.31h-1.06V11.65h14.25L259,16.36h-0.91c-0.54-3-2.4-4-6.2-4-2,0-2.1.2-2.1,1.42v4.48h0.77c2.69,0,3.89-.84,4-3h0.91v6.89h-0.91c-0.13-2.18-1.29-3-4-3h-0.77v6c0,1.27.13,1.68,2.26,1.68,3.44,0,5.59-1.5,6.2-4.31h0.88l-0.45,5H244.34V26.85Z"/><path class="cls-1" d="M262.49,14.57c-0.61-1.61-1.07-2.31-2.49-2.31h-0.07V11.65h7.67v0.62h-0.88c-0.95,0-1.42.23-1.42,0.72a2.4,2.4,0,0,0,.11.61L269,23.5l3.21-9.26a3,3,0,0,0,.21-0.93c0-.79-0.47-1-1.54-1h-0.41V11.65h5.16v0.62H275.5c-1.68,0-2,1.22-2.9,3.67l-4.12,11.73h-1.2Z"/><path class="cls-1" d="M275.58,26.85h1.07c0.9,0,1.15-.34,1.15-1.32v-12c0-1-.25-1.31-1.15-1.31h-1.07V11.65h14.24l0.38,4.71H289.3c-0.54-3-2.4-4-6.2-4-2,0-2.11.2-2.11,1.42v4.48h0.77c2.7,0,3.9-.84,4-3h0.91v6.89h-0.91c-0.13-2.18-1.29-3-4-3H281v6c0,1.27.14,1.68,2.26,1.68,3.44,0,5.6-1.5,6.2-4.31h0.88l-0.45,5H275.58V26.85Z"/><path class="cls-1" d="M295,23c0,2.67.07,3.8,2.52,3.83v0.67h-5.75V26.85H292c1.9,0,2-1.22,2-3.67V13.58c0-1-.25-1.31-1.15-1.31h-1V11.65h5.12l7.63,11.85V16.11c0-2.42-.06-3.83-2.28-3.83a2.28,2.28,0,0,0-.25,0V11.65h5.75v0.62l-0.18,0c-1.9,0-2,1.2-2,3.65V27.52h-2L295,14.37V23Z"/><path class="cls-1" d="M309.31,21.36h0.75c0.86,3.56,3.21,5.61,5.82,5.61a2.58,2.58,0,0,0,2.83-2.53c0-2-1.75-2.79-4.83-4s-4.73-2.24-4.73-4.71a4.69,4.69,0,0,1,5-4.5c2.6,0,4.08,1.42,4.57,1.42s0.57-.37.93-1.13h0.65V17h-0.65c-1-3.15-3-4.89-5.14-4.89-1.65,0-2.81,1-2.81,2.31,0,1.81,1.52,2.26,4.1,3.26,3.49,1.34,5.42,2.24,5.42,5.16a5,5,0,0,1-5.31,5c-2.85,0-4.28-1.67-4.87-1.67s-0.7.43-1.08,1.31H309.2Z"/><path class="cls-1" d="M114,36.21c2.05,0,3.56.4,4.57,1.36A4.66,4.66,0,0,1,119.92,41a5.13,5.13,0,0,1-2,4.29,7.72,7.72,0,0,1-4.8,1.33h-3.82V46.2c1.39-.1,1.52-0.19,1.52-1.56V38.19c0-1.38-.13-1.44-1.38-1.54V36.21H114Zm-1.78,8.32c0,1.22.53,1.53,1.72,1.53,3,0,4.42-2.25,4.42-4.81a4.23,4.23,0,0,0-1.91-3.85,5.2,5.2,0,0,0-2.75-.66,2.42,2.42,0,0,0-1.26.21,1,1,0,0,0-.21.91v6.67Z"/><path class="cls-1" d="M129.38,44.52c-0.09.51-.35,1.77-0.45,2.11h-6.69V46.17c1.23-.1,1.32-0.21,1.32-1.42V40.55c0-1.26-.09-1.34-1.19-1.41V38.66h6.24c0,0.35.07,1.19,0.14,2l-0.47,0a2.94,2.94,0,0,0-.47-1,1.57,1.57,0,0,0-1.44-.4h-0.92c-0.45,0-.48,0-0.48.48v2.47h1.26c1,0,1.12-.1,1.28-0.94H128v2.59h-0.49c-0.16-.87-0.24-1-1.28-1H125v2a1.26,1.26,0,0,0,.29,1.1,2.82,2.82,0,0,0,1.33.17,2.1,2.1,0,0,0,1.65-.43,3.79,3.79,0,0,0,.66-1.22Zm10.9-5.39c-1,.14-1.13.27-1.66,1.39S137,44.24,136,46.8h-0.54c-0.9-2.23-2.1-5.08-2.72-6.58a1.38,1.38,0,0,0-1.42-1.1V38.66H135v0.46l-0.49.09c-0.47.1-.54,0.2-0.33,0.74,0.29,0.77,1.21,3,2,4.91,0.64-1.5,1.58-3.92,1.89-4.83,0.19-.62.12-0.74-0.5-0.84l-0.38-.07V38.66h3.14v0.46Zm9.2,5.39c-0.09.51-.35,1.77-0.45,2.11h-6.69V46.17c1.23-.1,1.32-0.21,1.32-1.42V40.55c0-1.26-.09-1.34-1.19-1.41V38.66h6.24c0,0.35.07,1.19,0.14,2l-0.47,0a3.06,3.06,0,0,0-.47-1,1.58,1.58,0,0,0-1.44-.4h-0.92c-0.45,0-.49,0-0.49.48v2.47h1.27c1,0,1.13-.1,1.28-0.94h0.49v2.59h-0.49c-0.15-.87-0.24-1-1.28-1h-1.27v2a1.24,1.24,0,0,0,.3,1.1,2.81,2.81,0,0,0,1.33.17,2.1,2.1,0,0,0,1.64-.43,3.8,3.8,0,0,0,.66-1.22Zm9.22-.12c-0.1.51-.36,1.85-0.47,2.23h-6.48V46.17C153,46.08,153,46,153,44.76V40.5c0-1.24-.1-1.28-1.21-1.37V38.66h3.9v0.46c-1.18.09-1.28,0.14-1.28,1.37v4.43a1.08,1.08,0,0,0,.31,1,3.76,3.76,0,0,0,1.26.14,2,2,0,0,0,1.55-.45,4.27,4.27,0,0,0,.64-1.31Zm10.85-1.84a4.16,4.16,0,0,1-4.3,4.3,4.11,4.11,0,0,1-4.34-4.05,4.24,4.24,0,0,1,4.36-4.36,4.07,4.07,0,0,1,4.28,4.12m-7-.15c0,2.3,1.19,3.92,2.89,3.92,1.31,0,2.5-.95,2.5-3.42,0-2-1-3.91-2.84-3.91-1.32,0-2.55,1.15-2.55,3.42m13.29-3.75c1.87,0,3.09.69,3.09,2.35s-1.2,2.37-2.67,2.56a4,4,0,0,1-.63,0l-1-.26v1.5c0,1.15.1,1.22,1.37,1.32v0.46h-4V46.17c1.11-.1,1.22-0.17,1.22-1.3V40.53c0-1.25-.11-1.32-1.15-1.41V38.66h3.76Zm-1.23,4.14a2.88,2.88,0,0,0,1,.17A1.69,1.69,0,0,0,177.34,41a1.73,1.73,0,0,0-1.9-1.85c-0.83,0-.85.14-0.85,0.72v2.9Zm17.73-3.67c-1.28.1-1.37,0.17-1.35,1.37l0.1,4.31c0,1.19.09,1.25,1.29,1.36v0.46h-3.88V46.17c1.13-.1,1.22-0.15,1.23-1.36l0-5h-0.05l-3.07,6.65h-0.37L183.58,40h0l-0.19,3.18a19.88,19.88,0,0,0-.05,2.25c0,0.55.28,0.69,1.2,0.77v0.46h-3.24V46.17c0.78-.07,1.09-0.24,1.16-0.75s0.19-1.21.29-2.32l0.19-2.42c0.12-1.37,0-1.44-1.21-1.54V38.66h2.67l2.51,5.58,2.74-5.58h2.71v0.46Zm9.46,5.39c-0.09.51-.35,1.77-0.45,2.11h-6.69V46.17c1.23-.1,1.32-0.21,1.32-1.42V40.55c0-1.26-.09-1.34-1.19-1.41V38.66H201c0,0.35.07,1.19,0.14,2l-0.47,0a3,3,0,0,0-.47-1,1.58,1.58,0,0,0-1.44-.4h-0.91c-0.45,0-.49,0-0.49.48v2.47h1.27c1,0,1.13-.1,1.28-0.94h0.49v2.59h-0.49c-0.15-.87-0.25-1-1.28-1h-1.27v2a1.25,1.25,0,0,0,.29,1.1,2.81,2.81,0,0,0,1.33.17,2.11,2.11,0,0,0,1.65-.43,3.82,3.82,0,0,0,.66-1.22Zm11.29-5.39c-0.82.07-1.12,0.21-1.2,0.74a19,19,0,0,0-.09,2.22v4.63h-0.57L206,40.48h0V43.2a17.36,17.36,0,0,0,.1,2.22c0.07,0.53.38,0.69,1.35,0.75v0.46H204V46.17c0.8-.07,1.11-0.22,1.18-0.74a18.17,18.17,0,0,0,.1-2.23v-2.3c0-1.43-.3-1.68-1.48-1.77V38.66h2.34l4.92,5.62h0v-2.2a17.49,17.49,0,0,0-.09-2.18c-0.07-.57-0.34-0.7-1.35-0.77V38.66h3.36v0.46Zm9.13,1.73a3.72,3.72,0,0,0-.45-1.27,1.64,1.64,0,0,0-1.37-.37h-0.76v5.51c0,1.25.1,1.34,1.35,1.42v0.48h-4.09V46.15c1.21-.09,1.31-0.17,1.31-1.41V39.21h-0.54c-1.08,0-1.33.12-1.56,0.43a3.39,3.39,0,0,0-.43,1.22h-0.49c0.06-1,.14-1.89.16-2.49h0.36a0.63,0.63,0,0,0,.68.29h5.16a0.66,0.66,0,0,0,.64-0.29h0.37c0,0.53.07,1.72,0.16,2.46Z"/><path class="cls-1" d="M238.69,46.63V46.18c1.33-.11,1.38-0.21,1.38-1.91L240,37.73h-0.06L236,46.52h-0.33L232,38h0l-0.24,4.57c-0.06,1.34-.06,2,0,2.66s0.4,0.88,1.49,1v0.45h-3.77V46.18c1-.09,1.26-0.29,1.37-1a25.6,25.6,0,0,0,.31-2.94l0.23-3.34c0.14-2.09.06-2.15-1.41-2.3V36.21h2.65l3.69,8,3.75-8h2.75v0.45c-1.44.13-1.54,0.16-1.49,1.81l0.15,5.81c0,1.7.09,1.8,1.5,1.91v0.45h-4.26Z"/><path class="cls-1" d="M250.1,46.63V46.17l0.33,0c0.52-.07.62-0.21,0.38-0.82L250.32,44h-2.84a10.84,10.84,0,0,0-.4,1.2c-0.21.69,0,.83,0.47,0.89L248,46.17v0.46h-3.14V46.17c0.8-.08,1.13-0.21,1.65-1.46L249,38.56l0.52-.14L252.23,45a1.39,1.39,0,0,0,1.51,1.17v0.46H250.1Zm-1.18-6.29h0l-1.14,3h2.31Zm15.14,6.39h-0.4a2.53,2.53,0,0,1-2.46-1.12c-0.38-.55-0.86-1.36-1.11-1.79a1.07,1.07,0,0,0-1.18-.63h-0.38v1.6c0,1.18.1,1.29,1.23,1.37v0.46h-3.84V46.17c1.14-.08,1.25-0.17,1.25-1.37V40.52c0-1.25-.1-1.3-1.19-1.39V38.66h3.81a3.87,3.87,0,0,1,2,.41,1.85,1.85,0,0,1,.89,1.65,2.22,2.22,0,0,1-1.65,2.06c0.21,0.35.75,1.24,1.14,1.79a8.86,8.86,0,0,0,1,1.2,2.23,2.23,0,0,0,1,.57Zm-4.82-4.07a2.51,2.51,0,0,0,1.27-.27,1.79,1.79,0,0,0-1.18-3.19c-0.73,0-.79.15-0.79,0.67v2.8h0.71Zm12.89,4c-0.5-.53-2.13-2.53-2.86-3.49a0.56,0.56,0,0,0-.76-0.27v1.92c0,1.2.1,1.29,1.25,1.37v0.46H266V46.17c1-.08,1.14-0.17,1.14-1.37V40.5c0-1.22-.1-1.28-1.21-1.37V38.66h3.74v0.46c-1,.09-1.16.15-1.16,1.37v1.89a1.82,1.82,0,0,0,.86-0.45,27.16,27.16,0,0,0,2.06-2.11c0.29-.38.33-0.58-0.17-0.65l-0.4-.05V38.66h3.41v0.46a3,3,0,0,0-2,.84c-0.49.39-1.35,1.22-2.17,2a33.66,33.66,0,0,0,2.77,3.28,2.31,2.31,0,0,0,1.62.89v0.46h-2.38Zm11.54-2.11c-0.09.51-.35,1.77-0.45,2.11h-6.69V46.17c1.23-.1,1.32-0.21,1.32-1.42V40.55c0-1.26-.09-1.34-1.2-1.41V38.66h6.24c0,0.35.07,1.19,0.14,2l-0.47,0a3.07,3.07,0,0,0-.46-1,1.59,1.59,0,0,0-1.44-.4h-0.92c-0.45,0-.49,0-0.49.48v2.47h1.27c1,0,1.12-.1,1.28-0.94h0.49v2.59h-0.49c-0.16-.87-0.24-1-1.28-1h-1.27v2a1.25,1.25,0,0,0,.29,1.1,2.78,2.78,0,0,0,1.33.17,2.11,2.11,0,0,0,1.65-.43,3.71,3.71,0,0,0,.66-1.22Zm9.17-3.66a4,4,0,0,0-.45-1.27,1.65,1.65,0,0,0-1.37-.37h-0.76v5.51c0,1.25.1,1.34,1.35,1.42v0.48h-4.09V46.15c1.21-.09,1.32-0.17,1.32-1.41V39.21h-0.54c-1.07,0-1.33.12-1.56,0.43a3.41,3.41,0,0,0-.43,1.22h-0.49c0.05-1,.14-1.89.16-2.49h0.37a0.62,0.62,0,0,0,.68.29h5.16a0.68,0.68,0,0,0,.65-0.29h0.37c0,0.53.07,1.72,0.15,2.46Zm2.89,5.77V46.17c1.11-.08,1.21-0.17,1.21-1.41V40.53c0-1.25-.1-1.32-1.21-1.41V38.66h3.84v0.46c-1.13.1-1.23,0.15-1.23,1.41v4.22c0,1.24.1,1.33,1.23,1.41v0.46h-3.84ZM311,39.13c-0.81.07-1.13,0.21-1.19,0.74a18.29,18.29,0,0,0-.09,2.22v4.63h-0.57l-5.23-6.23h0V43.2a16.86,16.86,0,0,0,.1,2.22c0.07,0.53.38,0.69,1.35,0.75v0.46H302V46.17c0.8-.07,1.11-0.22,1.18-0.74a17.52,17.52,0,0,0,.1-2.23V40.9c0-1.43-.29-1.68-1.47-1.77V38.66h2.34l4.92,5.62h0v-2.2A17.8,17.8,0,0,0,309,39.9c-0.07-.57-0.35-0.7-1.35-0.77V38.66H311v0.46Zm10.66,4c-0.76.14-.81,0.19-0.81,1v1a4.56,4.56,0,0,0,.1,1.1,13.28,13.28,0,0,1-2.93.52c-2.89,0-4.87-1.63-4.87-4.12,0-2.89,2.44-4.29,5-4.29a9.54,9.54,0,0,1,2.51.38c0.06,0.41.11,1.13,0.23,2.15l-0.49.07a2.33,2.33,0,0,0-2.58-2c-1.66,0-3,1.29-3,3.52,0,1.87,1,3.8,3.33,3.8,0.61,0,1.33-.16,1.33-0.84V44.22c0-.82-0.07-0.92-1.47-1.06V42.7h3.69v0.47Z"/></svg>